<mxfile host="app.diagrams.net" modified="2023-03-28T22:50:19.309Z" agent="Mozilla/5.0 (X11; Linux x86_64) AppleWebKit/537.36 (KHTML, like Gecko) Chrome/111.0.0.0 Safari/537.36" etag="TRKaNFbF9daHHyimjCdJ" version="21.1.1" type="github">
  <diagram name="PÃ¡gina-1" id="9Z7AQM2SOjS9ChT2Cdfp">
    <mxGraphModel dx="3585" dy="2018" grid="1" gridSize="10" guides="1" tooltips="1" connect="1" arrows="1" fold="1" page="1" pageScale="1" pageWidth="2500" pageHeight="2500" math="0" shadow="0">
      <root>
        <mxCell id="0" />
        <mxCell id="1" parent="0" />
        <mxCell id="4rNJ4vwEb-hpk1fD-wyn-2" value="" style="group" vertex="1" connectable="0" parent="1">
          <mxGeometry x="1380" y="210" width="360" height="1060" as="geometry" />
        </mxCell>
        <mxCell id="acgDZ-SoyNHMQ0wOxpw4-46" value="" style="rounded=0;whiteSpace=wrap;html=1;fillColor=#e1d5e7;strokeColor=#9673a6;" parent="4rNJ4vwEb-hpk1fD-wyn-2" vertex="1">
          <mxGeometry width="360" height="1060" as="geometry" />
        </mxCell>
        <mxCell id="acgDZ-SoyNHMQ0wOxpw4-32" value="" style="shape=image;verticalLabelPosition=bottom;labelBackgroundColor=default;verticalAlign=top;aspect=fixed;imageAspect=0;image=data:image/png,iVBORw0KGgoAAAANSUhEUgAAAy4AAAEyCAYAAAAcOIRiAAAACXBIWXMAAAsSAAALEgHS3X78AABxbElEQVR4Xu2dBYAcRdbHx9ddoxt3IYIFAgchuFxwOJzA4e7wHZogxx3B3SHBEpKDECCEuCtxz8bWXWdlpr9X1d2zs5vZ7Mx09czs7L/vhuzudL169avq6npVr14ZDLhAAARAAARAAARAAARAAARAAARAAARAAARAAARAAARAAARAAARAAARAAARAAARAAARAAARAAARAAARAAARAAARAAARAAARAAARAAARAAARAAARAAARAAARAAARAAARAAARAAARAAARAAARAAARAAARAAARAAARAAARAAARAAARAAARAAARAAARAAARAAARAAARAAARAAARAAARAAARAAARAAARAAARAAARAAARAAARAAARAAARAAARAAARAAARAAARAAARAAARAAARAAARAAARAAARAAARAAARAAARAAARAAARAAARAAARAAARAAARAAARAAARAAARAAARAAARAAARAAARAAARAAARAAARAAARAAARAAARAAARAAARAAARAAARAAARAAARAAARAAARAAARAAARAAARAAARAAARAAARAAARAAARAAARAAARAAARAAARAAARAAARAAARAAARAAARAAARAAARAAARAAARAAARAAARAAARAAARAAARAAARAAARAAARAAARAAARAAARAAARAAARAAARAAARAAARAAARAAARAAARAAARAAARAAARAAARAAARAAARAAARAAARAAARAAARAAARAAARAAARAAARAAARAAARAAARAAARAAARAAARAAARAAARAAARAAARAAARAAARAAARAAARAAARAAARAAARAAARAAARAAARAAARAAARAAARAAARAAARAAARAAARAAARAAARAAARAAARAAARAAARAAARAAARAAARAAARAAARAAARAAARAAARAAARAAARAAARAAARAAARAAARAAARAAARAAARAAARAAARAAARAAARAAARAAARAAARAAARAAARAAARAAARAAARAAARAAARAAARAAARAAARAAARAAARAAARAAARAAARAAARAAARAAARAAARAAARAAARAAARAAARAAARAAARAAARAAARAAARAAARAAARAAARAAARAAARAAARAAARAAARAAARAAARAAARAAARAAARAAARAAARAAARAAARAAARAAARAAARAAARAAARAAARAAARAAARAAARAAARAAARAAARAAARAAARAAARAAARAAARAAARAAARAAARAAARAAARAAARAAARAAARAAARAAARAAARAAARAAARAAARAAARAAARAAARAAARAAARAAARAAARAAARAAARAAARAAARAAARAAARAAARAAARAAARAAARAAARAAARAAARAAARAAARAAARAAARAAARAAARAAARAAARAAARAAARAAARAAARAAARAAARAAARAAARAAARAAARAAARAAARAAARAAARAAARAAARAAARAAARAAARAAARAAARAAARAAARAAARAAARAAARAAARAAARAAARAAARAAARAAARAAARAAARAAARAAARAAARAAARAAARAAARAAARAAARAAARAAARAAARAAARAAARAAARAAARAAARAAARAAARAAARAAARAAARAAARAAARAAARAAARAAARAAARAAARAAARAAARAAARAAARAAARAAARAAARAAARAAARAAARAAARAAARAAARAAARAAARAAARAAARAAARAAARAAARAAARAAARAAARAAARAAARAAARAAARAAARAAARAAARAAARAAARAAARAAARAAARAAARAAARAAARAAARAAARAAARAAARAAARAAARAAARAAARAAARAAARAAARAAARAAARAAARAAARAAARAAARAAARAAARAAARAAARAAARAAARAAARAAARAAARAAARAAARAAARAAARAAARAAARAAARAAARAAARAAARAAARAAARAAARAAARAAARAAARAAARAAARAAARAAARAAARAAARAAARAAARAAARAAARAAARAAARAAARAAARAAARAAARAAARAAARAAARAAARAAARAAARAAARAAARAAARAAARAAARAAARAAARAAARAAARAAARAAARAAARAAARAAARAAARAAARAAARAAARAAARAAARAAARAAARAAARAAARAAARAAARAAARAAARAAARAAARAAARAAARAAARAAARAAARAAARAAARAAAS8J2D0/lbcGQ4E9lSWDDMajQ6DUvNGg1Fi5aL/0F+klu2Bf+fF5X5fW2nU79m/ZvpYWb4s41Rr9IE4W2SJF/kZKmpr40qdDRkOo2Sj9EyWKlctg6e2rd7HvjMa5eKa4iy2ktSIqBxv8mX3lNTVJJU76jpJpLZklJxKzq3l615enh+RNtE/RvqPI8FkzUuOjC72Nm/cBwIgAAIgAAIgAAIdlYCloxY8XMtd6qhLP1xX2WdPbfmxOQb7gDx7Ve9KZ0NKoVTXpcJRF3df4fJIZSTtbmCQLcPH3erguzXjo+Xf3Q0GT0hbM4ydiqFBY3fJymwni1NqeKbLiWfT3//0pm6KHHU9njy8fEGVTUqg+xsUI4gZQkczIJi+Dvqw/M1kddC/RvO4iIxP6PdbvcmX3bOqofCidws3f+Agu4UZLSb+3zbzZXmyvMlWNFglspsiGqTaG5P6Pkp/e8/bvHEfCIAACIAACIAACHRUAjBcwqDmcx013VZV5V72e23O7bcc+rOL3eGMstuMtJxBU/tOo4H+b5CYicCNE6NracK96M3MlqZBeADosJwlg9lpsDqNJq9XAGmxxFxrMSTYLUZmrLBPW5dceLbi4brk7OpNhoi2Ert/7zQZLfVmo7VBUVdes/LhYvVBtzvIaGs0mLzR3QfhuBUEQAAEQAAEQAAEwpMADJd2Wq+5dVW9FtXkXrmxtmj8HQcXHFdvkqLraSAtWWhC30zeSDQyZlP8TnVU7Ta4btU68HUALoyd7LAmr194fZGLlkQrGNxw8fNSs3O6GTPeiDKamHMaS02rLb5fLDGvBImsKGej7wKQAgRAAARAAARAAAQ6HgEYLu2szg/UVw38qmj7y3cfWnS63WqIqadVlEYrrazQ+F3Zs0HjYdUTq50VzreVHnf3LK0F9dX48XplqHXF/LF4tBYT6UEABEAABEAABECg/RKA4dJO6m5DdeHpC8sP3vjY4aXnlpucyfWRbI83jfTJD4zcrNhOc+4ExtzC+PJFuxwXHxEc4Ci1w1YtWGl9tTk8ivRxxcW1n0VE6xFgBIlQAzJAAARAAARAAARAILQJwHAJ7foxHGys6vdNya7JL+SvPr/CZoiQLNxBiXzA2MCdTBVusMiXugTRLm0W/+pB1KDfVzm+3u9f6ZAKBEAABEAABEAABEDARQCGSwg3hrnlB294LGfZvytMjlQ7Bf1lkb/Y/47qUdVWnK8QLi8L0OWDevKufjGXr4ZIi1gGYpSAFBAAARAAARAAARAAgdYJwHAJwdaRV1/d88vSXS+/XbL5kmqbZGKeX2wTuDxK93WMHYIFFKdSsGAEK19x5CAJBEAABEAABEAABNoZARguIVZhG2oLT3+scNXXuU57poOOZmQb7tUIVrLlImqRIcQK7qM6tPrkpE/QYLDdOLBefKw03A4CIAACIAACIAACGgj44pqjIRsk9YbA9NJdj7xYsHZmrqM2kx3HzoflQRuae6Ox8Ht8KK0SQFm4ChAIAiAAAiAAAiAAAiAQigSw4hICtVLRWJ/8QcnWtz4t33kVHWxIkcEovLHiHuboQNP66ukm3ldJcODQaoucsQ9m1lHKFJxCeA8Zd4IACIAACIAACIBASBCA4RLkaiCjJeXt/L8+XNpYNKHeQqF95WBhbpeY0XGQi+lV9sqB8l7dq9wUAnBaqgA7xJcKxL0gAAIgAAIgAAIg4C0BGC7ektLhvrJ6e8az+5f/tNVSc6yDVlr4xfZOKGNhfiZLCAzNdSi6KJGi6GiUoyb3y2jxK5EogJADAiAAAiAAAiAAAu2FAPa4BKmmyhrr0t8u2PTJdrP92AYzqwaMX/0w0+joTSGXr4aLyMoSKUsIDAgBARAAARAAARAAgVAkAMMlCLVSUF/T/e38jZ8ucRad20A1wPazYGnFr4oQNej3VQ759KmXeq5OG+frtF48X/P2CxQSgQAIgAAIgAAIgEB7JwBXsQDXYGVjfdIbBRveWdFYdC5zBaNgxxTumD4B1iMMsmNGt5sBoalEvhoPLZ4bX5M301VTYk2lRmIQAAEQAAEQAAEQaEcEYLgEuLI+y9v86lKp9DynycyNFvni5kuANQnJ7HwZxDOjJRzaryjjKyQrFEqBAAiAAAiAAAiAgCgC4TDwE8VCdzlzyg/+86PSrdc1EnV5373b7nthdos89ueSSaZkoG0g6i9KuDIT/cHM8lN2iLDovkcaTuwGX+wIlqu/acgCIWVpCcV7CpJkskmS0+o0+j3wV7X11V+SXPvsFqdkYKGqGUu1Nj1q7wGhU0ljdjoYNDyDuj95yAAEQAAEQAAEQCAcCPg6Mg2HMgelDLvtFSOezl/5Z7GxMdFBI2V+FIhKnxkYzMrQfKlGi2KYkLxGo9NgJdmxdc4SU7Stvos17lDPxqhNvSMT10RarZVssE1fU0J2Frx6HaGLW6wzl13UQlv39OpXRzQvVbBytCb/lW5ymlgGw6LTfk+xRh/yBkNZbW3GRnvRmQ1myUZJ2XmdrWaqWFQtxRpJY4rlJkldzDHbB8SkLPEmX3ZPTkN13+01xWMoU3biDjP/mJiWhXX9rpxP464hr3yr0VjXyxK3rlt0wjZv88Z9IAACIAACIAACINBRCcBwCVDNv1zw14wFdTkT2Gw7X92gIa9rqMuH8SIMF7kwTK6l0WmIchjtGeaIg6dGZU4dmJA575jIlMUBKi6yAQEQAAEQAAHdCXz65feP/Tpn/i0GyWSltyqthbPLzZuhaSW/xcQZXy03x8VHF9943eX/OumkUb/oriwyAAEQ0EwAhotmhG0LWFaRc/FLZZumV9PkPHPR4uezkOHiPiUvwnAxkfHD5HczRO06I7brZ8Pj03/tZ01Y17aGuAMEQAAEQAAE2g+B+oYG6wsvvvHZokXLrzKYLEaJ1r5ZhE4nPwjN26GN7CgcaTFXPPTgbbeMH3/Sd+2HADQFgY5JwNunu2PSEVDqUkdd2hOHli7ZZ7b3c3CPLLc+VcMii0SdM9/cLy/eGKz1TkNXU9TeM2K7f3hmQtZHCdaIIgHqQwQIgAAIgAAIhByB7AM5fW+46YGd7l7OfFJQecWqBzl7q3h0bFTeL7M+6eTt/bgPBEAgOASwMVhn7j9XZN+bbaztxzpX1+K1BoNFVZftiWHyLA7JkClFZF+Z3HfSCbGdZiZYYLDoXKUQDwIgAAIgEGQCJcUlmUwFtsrC3KPV16o/s7EsbU1NbWyQi4TsQQAEvCAAw8ULSP7eUkgHTd6Xt+z2Bgtt4SYDQzY1/L/c9vJTNCuTweZsNIyOTJ99e+qw2zMtUQf9l4yUIAACIAACINCeCPA3InutNnux+rrSopaYJgMFTCm2J37QFQTaJwEYLjrW2//Ks+8tNdQnU8wrNi+kMSfqnZX9MSzEcZLBXHNWRI+3r8wY8HyskaKD4QIBEAABEACBDkSALbYoAf95qf01WhTLB4ZLB2o7KGr7JaB1NN1+S66z5gfrq/rNKd93K1vCNtN/5PM+tFxyUF12fkgEddU3JfS/c2Lm0EdgtGhhirQgAAIgAALtlABfInEPRK/1LdtOOUBtEOhQBLDiolN1r6otmFBhM8ayXtWkHPyoLStyNaPppHijqey21BETT4vuMl2bPKQGARAAARAAgXZLgMXmPGKVpOWeF69LJxkxkes1LNwIAsEjgAdVJ/bzKw7ewE5Wb3bxMMhun6Pl7bpPNlhY7xzV4Gy4JWHgbTBadKo0iAUBEAABEOioBOAq1lFrHuVuVwRguOhQXatr8s850FjVj620tLRdlCPj287VdbY87T2kBXEbuYidG501ZUxs55ltJ8YdIAACIAACIAACIAACIBBeBGC46FCfv1Zk31FjoW0tkna8zPBhh0qOiEid88+MoY9Em611OqgMkSAAAiAAAiDQ3ggY/d2Qf2RBhfh0tzd+0BcE2h0B7HERXGV5DdXd7j+08CQjhUBmDl7sQCy1O/RnHZpFJEtxWAquS+z32CTBukKcfwTW2YtOm125/3aDiQxTHjHO20u5mdmz9CN7+M6I6Pz5sfGdZnsrAfeBAAiAAAjIBPg5zG4Xe8eqh1D6zgjhkH1nhhQgEHgCMFwEM8+vr+5ZaXAkGQ1mOTYj60nV03x9GuTKitkanIYLE3q82j8yaaNgVSHOTwJ5zto+S2vyLnOS4eIyRtnqGo973fIYNPfTd+QGwLcv0W0W+gwyxC+nX2G4+FkXSAYCINCxCbj3sGqEMeWEF9/AICSZb7xwNwgEiYB2X6YgKR6q2W63l55cb3aLCq+c6OvPagurnM6WmJ2nxXebFqrl7Yh6uR3SLKL4jSKEQAYIgAAIdEQCsDc6Yq2jzB2ZAAwXwbW/zV52kmRibmIGg4Po+mOwqLNG1kan87LE3k+n26IPCVYT4jQQMBrlI0UFXf40EUFZQwwIgAAItHMCLXpQvufFn161hdtZO6cC9UEgbAnAVUxw1R5qrBpAB7eQVHIWUztQX1xnyeWImT1G8jTLMkT/NT4h6xvBKkKcZgKq4cLsFyVutcuW8RRHTs1QnSdo9mbFhKHm+oAAEACBjkrAfU8LO8MFFwiAQHgTwIqLwPrNqa/pVeio6+QSqaETlRodhr/FdpkqUD2ICk0CMFxCs16gFQiAQDskgA61HVYaVAYBHwjAcPEBVlu37musHNpoMka5duO3laCV7yUKQ8ZWa4bHd/7dTxFIBgIgAAIgAALhTUD2yj7i8s948S9VeANG6UAg9AjAVUxgneyuLTnOobXvIwddk8NpyDLFbOtnjkUkMYH1A1EgAAIgAAJhRIC8qo+IKua3p4PfCcMIKIoCAqFPACsuAutob33VMQY1opjfcslwobRjItOn+y0CCUEABEAABEAg/Al4PMdFDXDjU/GNksigKz5ljZtBAAS8JwDDxXtWbd5ZKTWk+BXNpIXkCKdUOzAubV6bGeIGEAABEAABEOjIBJTj0jQjkIwYD2mGCAEgoD8BuIoJZFzSaM+UmOWiwV2MJTUbjbXHRaYtEKgaRIUuAfgnhG7dQDMQAIFQJ6AEdkRHGuoVBf1AQAwBzDCI4cil1NTb45o8bv0TzDrf+IjoAv9SIxUIgAAIgAAIdBwCrlMHOk6RUVIQ6NAEsOIisPpptUXIoeppDisOnBRYLzqI0rCmdoQ2ImXpUFSIBAEQAIHQJEBvXHZKWrM+1P+zXNAVh2YtQysQaE4AKy6CWoS9sSGadaAidvclmqxFgtSCGH0I4A2nD1dIBQEQAAGvCajbWxRvMS1e2pQnnM28Bo8bQSCIBGC4CIIfabHW0Am+Zo09J9fGZjbbBakFMfoQcD03fI3N7aNPdpAKAiAAAiDggQAPh0ynCLg+flNq5UwYv+UhIQiAgC4EYLgIxEpL1I2YtBEINHRFiXSxxOpN6NYzNAMBEAhRAmx9RF1pcVfR099CtAhQCwRAwA8CMFz8gKZ7EhH+Zror2XEzkCTJLKb03GaB4SIGJqSAAAh0IALUcRpppeWIdRK2+uLXJR+hhgsEQCDECYicOQ7xorYr9fztettVIdursiwIg5PejmbyEWNWR3M782hWpzwXyN61LPoc7NP22gKgNwiAQNAJSNxEURdeXOqQyzYuEACBMCYAw0Vg5SpbHeAtJpBpKIqyOJz2RLujwmQw10pGIwtiQ1XPJuvYbheT+2tT/dk9YidZOxI9d5LB4pCckRGG6lAsYzjoVFpWkbx3X/aQQzmFvfLyCnrkHMrrW1ZWkVZeXpFSU1MbW1dfH0k1Zxw4sP+qm2+8/Om+vbO2BLvctfa6KNI1a/uOvSPzCkq65+Tk9a6sqE4pLS1NLysrT7XX1kbX19dH1NntUcwCZg0sPiGhhOmdmJhYHB0dXZmYHJ/ftWunnenpqQc7d0rd17dvnw2pKQkIse5D5ZaWVqZk7z84cP/+wwNyqe2UlJR0Ki2rTK+oKE+pq6uPqq6ujquvb4hgj76R5v2pIiSr1VofExNTERsbV5aSHJeXmpp6qFef7ps6Z6RnDxjQd21UpK3WBxXa9a219vpI1o7z8vJ65OQW9ygoKulaVFTUtbq6NqGhwRFRUlTciTFjhZQkNg0kn4Bmi7DZY2Njy20WS310lK0yNja+LDk5MS8+Pr4oNia6LCExrighPrYkOTk5d3/2IZsybyRoBbx9IS8oLMvM3rdv8L79OYOKCoq6HsrJ7dPokKyFhYVdWF8hOQ2miorKJPbCYStTVpvFHh0VVR0dE1XJ+oqomOiK9PTEg4xl797dN3bv3m1H1y6Ze2xWS0P7IhE8bfMLSjvt2r37mMOHc/rm5BT0zi8o6l5TUxdXUV6dTOyTnU6nOS4munLMmOGzrr328kmxsTFVwdM2fHLG3ITAurx89+yisghTitblkrMt6R892GnULQJVgyiBBIrqqjMKpbruFIeTVbWTzBUT2Szys0TvCA9ZqU2C/yuv0xhMdNBoQ6pkO5wSGZ7n9lTX1Mb88MOcu77/buZDNfa6eL7MJI+1OQByuWvJyp0THxGOGDnk9wfvm3hHl84Z+7ypwuoae8yf85dfMn3GL/fs339gqMFoYtOyVFNsecxoYQooecsrX/ySDL16dV316QevHu9NHqLvoUFe1MpV68bP+W3h9atXrTubVLQ6JG4Ak/OKxCxi3r5ogCejY/+Xh3zNVCGe8u/8AHAT3WyUzCb6q9Tg7NOn5/rxp588dfSoEXN79+q6TXQZRMubPv23W7+eOuPx0rLyTKo5NonOhrkmt/C3zdoOnzSSq9jgdDisgwf1XfLkk3de37lzera3uu3NPjhg4aLVE5YtXXfhnn17hxNOmmAg9HxWQmIklTzdmymzHtVWpbQmp6teHDSv4aQewkp3OIYfM+SPa6+ZMGlA/17rY6Kjwm4As2fvoUFr1q4/47e58/+Rn1fSq7amNpE97nQgveRwUuAayWmSUbEOU0bp5MGM5XkdF1X6G79RfgDkNi8vbMs2ojxNRNVMUo0mC58vEnCR5JqFf0yNESBKNxHZBw73m79g2SW//br4+vz8gt7y6hJ/8ql/YBNiShegdrP0r+o6ZzQy+451hU1r/Yw6AaUWS9aj02CxRVgrjzt+xC8XnH3axyccP2KubgURJDj7wKF+b7z5yb/Xr9syno7ubmnAtvYu5u9t+S3c2HDl5Re8dust1z7jrUq79xwc9PPsP2+a+8eif1TXVCdRG7aYzWaCyvsIM68M3gfL2dMf6feGuuuuu/Rf1197xSve5oP7Wicg5okHYU7g0t2zS8ojTElacZxpSf/k4U6jbtYqB+lBIFgE6usbrY8/8dLMteu3nMt0IPuBvV/lvlwZaMgDbXl87nq7qgrzzl5O04lWD96a8uxJyUkJHsOEs5WV+fOXXbZixbpzN27eerLd3phELw56kcvCWD4mxQ5ozqOp+5NoaPXuOy+NHNi/51+BYMaMlUWLV160fMXa81euXHc2/Z5IWtJLTym3Mozj2FxM5J+ZjezxjawWmN+v3OGksR3fCMDtQOIg1Q0c2HfZ2JPHzBg6qN+KQYN7rwlEeX3JY8aPv97y1rtfvi45pSiXMaYIaG1SqIkHKyevdENElLngo/dfPZ5mkbNby7+AZkxnz/nzhtXr1p+5bevOE4wGC1tFMTqIG6PtPgDxHC5XNRbdcnBT0kQDGJp15ezl4aWjPiE+ruj000/+5qILzny/R1aXnb6wCbV7N27ceuLS5asvWLFywzn79+cOpQLSfIwylObNUC43f+S5YSk/6swwacLUigEu14CryOwZZizVNsG+4X2EoG2CpF71wj+mxYYa423bd49csnT1hcuWr71g3779g8l+jqCuQpkD4itWR6gsGyvMaGz6irVlTr3lQ8S4srbJ6on4srqhPqMhIz0te/SooX+cfNLomaNGDltgs1nrQ4kNrU5H3nn3E/P37D1Mz61qKLhPKrTU1r3XVN47/Bl3NF5+xUUv3X7LP/6vtfLt2p095I95i69avXbjmbTSN8jpNEXJbzOalyCzT26H6vtMNVzkOpBzdRo6ZaZumvrVG8NCiWF71QWuYgJrrrWXqsAsIAoE2gWBPXv3D92wcfs5sgud0qcrHXjzgYba4Te7SbmFXgj05j18OK/fqjXraUbNMM298HZyR/n++9n33HzzQ3eXlVV2cTgbaVJRfoG5D3iVyds2BjgmqbamJi4QcH/86beJl11567OVlfYMys/MBrdshMFd9rmhIvck8mRqcyNF/pts+7XW38gH8KlWmyJJGeA5ncaILVv2nLZl8+6xLMe77/3XonvunnhP3z7dNwei7N7kMW/+0isdBmcUd7xsUci2Z9rYjLJcenu9M3XpstUX0o9vtMw3N7eg+2dfTX/s8qtuu4msahvVgVFyssGgzE7OR2V/tJ5d0aiVW5oMUUUDyWwrK6vuPHPW3Adm/PjL7VPe+Pjd++65+UFvuITSPStXbzr9jTc+mPLgQ8/1bnAYIuVFEpmFbD83ceFGc4vxZHNcrdeq+zdkyLpqpIlF2y3Ce26h9QZfuHT1eV988d1Tt9/1xAg6aYE6CaNVjQvTNERuaqeeghLw5WZXX+HWryhQeO/LuUrceGF1yFu9ZLQWFJT1/WXOwr6//Tr/ph49um6ePeePN88754zPveep7505uYU99mUfOoYmG5r6O7kFulbxmrUTV/U2bzPE1PLtdzPvr6iufSWe3Ojctc4vKO78zrufvTTxnw9dITktdFIFLfBxOU3Goro66P5eax4xguVnMtRU2wPyftGXemhIh+EisB6OMpbwNZfQ6kF91R73d3gCtBcjlmaiBI0qJENdfUOkCrW4uDTjjz+XXX7djffdU1hQ0oe/RtjbpNn2Ip+rQNdnrqSsPOWn2X9MXLBoxaWvv/7JMfSSI7c1daAnJmt14NhsXlHplI7IgXyq2HBl85adp936zwdXP/vsf6Zff+MVz/Xo3jXoKwDVVTWJbOZXHgj434SYk1xNTRW5KDZdtB+g37RpMx++YeIjlzbUNySQ3ciHarInoexKI6+0qGnE1A2TptYPH1rxwaI5atas3+696eaHT3nwwVvuGDyo32qfW22AEyxZvvbsb7758ZHHH580xkCrU04eYJF5bCnoBOjjzkmAOK9F8J1KIXCtXL1+3NRvZz3y9L/+fSpjTB/XJIW8AtjkVqe2q6M+KV6USjZYXHY7pyBJjfwvDoMxYk/2oVGvvvr+JzdNfOCeiyec+8a4cWO/jYqMCOp5c9u37TiWOn2ac2CrcO7tT/3F/dnlJpqn2mUdDc2PKE6oyh07d+0bOmPm7LtvmnjfxVVVdSmsDuRVU4cixwuoLXJjLnkh0LzCQgUYLmFRjSgECIQaAeZyrQ4++WtQVrDVbS0eXgR8FYIN+JyNJpOJvUUNCxevP+/6mx74jDZApjr5i5UNnLhrg9uLyfeXip70NmzccSLNmn6cl1c0gFtXbEKQjxKUeVMFTUutj1oKJsMLpdsyHeW1BXPk/IWr/jF/4dKLvvjqh+euu+bSf3shWr9baO2DAfK8Xcy7bFmpyK2IOb5wulXV9tgvvprx2E03P/CQQbJE0PyyW3tRZbZYFvAuKx/uaj5Pzie2JZN5375Dox96+NlfV6z86/ITjh8+zweBAbv1UE5ezylvfvTaU//30rnkym91uX66u3lyH7GAqRR2GdXW1Ue+8MrbnzzyxIsTjA5LpMlopY0YajttztbVfXhD4Sh9hau6lHua9Sn8F7WPYh2xxbQ3+/DI/7724UfzFy2/bP+Bw/dnde+yyxsVdLlHNTR5IdwaHtfbgynnXrhmbrVkm9EZfCaTmVklhu+nz77j7vv+9WJdXUO83Fe7R8lWQHndzt36FHe/R12AdByhiFveceoaJQWBgBLghouR3gX0YQNF7utO/bj8b4tBIrc72Mu56eMyRShxfn5xj8mvvPvB08+8PLOqyp7K/IoNruN0VFlKWg+lVPNs7V89wDBXtnfe/XLy/Q8+O78gr3SgkTbcy/aVezmbcnY//Vu1w1rVV/FJV4DK/jmqn7rCl6d1e6V7kiW/75UQ3QZb7Gefff/Co48/P/PgwdzeejDxSabXgwPPUi0mS2N1VV3i519Of+z2255c+f0PPz9JSwNktKizpnI6mYvaPtU22gypJ8x+/s2tUNyqlI1z2peV/MSTz838be7CK3xipPPNLMrd19/Ouu/Gmx9av3bN9ouMBqu1yWJWBtWu9uy9Mm09j0f73vtc2s+dy1asPev2ux9fvGThqquMTiuLdsh2T1ABVMOl+cMg9w9Nzzzfn9LKx5v72D3N5n74gyH3U+7ZkNFKq9smy9o1m8979LHJv8yePe/6hobGoEyAcxOCl5np6TaUbfEeafleaWFc86UYcjezLF++4ZyJtz687L13P3+DIgcqK7WqAaTuoZHdetu6mteFq29pO2FbgvE9JxCUBheu7FmkE9WnVEsZmRwt6ZEWBIJPQO3wNY4+eUHMtq++ms42TlJ/pas7h7AXS2lpecqNN93/Z15B0RCaVW82QRQsV5ijtQlVJ1rqsK1as/miex74v+F/bdx+9fBhA5YHvC0JmZlkG7kNUTNmzLmH+WTRwEaJOCSiPYonwqNnGW2xr0358N3dew5t6tO761bxufgmkQWQeOLpV77fsHYrBdhgfphyM+YeL66BYmjy9K2k8t2eQ174I8m3NNN++OWuJ5966RWTwRpFkxtHJvb0N9+yEHy3HOgwP7+sz6uvfvTZ1m17WTTGOwRn4q04rQ2Q9fksaqNt0uQ3vqKwhZFO5jLqcSDHbRxv9fJwn67vLg16tb+kWHERWGfUnbNwnZovJkezEAgAgaASUOf6VQNGw4PBRZms9GH+CnqVSpjgHbv2Dn/40ck/5+eVDqP3nBr5VS+9xcplk7hOk6GstKbHo49P/nnOb4uvFJuBV9IE1AWbj2WrfU6rvDTXfJXFKy0CfRO9POrqnEn3P/TM3MO5Rd0Dnb17fnZ7Q+T9Dz39y/r1m86Sp5gZP+aaSf9qGbsFs1Bt5N1854j+itY3NFrfevvTVz766GsKkWulCHosT/c1Uva7gEdBeFHklSAeSpnmZH6ZM+/2p5/9z9TKqupm+8mEZ9umwJbs2kyg3kB9NLMOnVbumucpygGvF0/upd7koeiFLS7ewPLqHqy4eIXJ65vCtEv3uvy4EQTcCLBRcMeywbfv3jfsgYef+ammsqGb7BptlocerYw/Wob7DZXmwyJs2WsNya/8+53P58xb6jhn3Enfh4pu3uvBXV1k8vJpPu3gMhqqqqo7f/HVd0+RsrcGQ+Gi4rKMG25+5M/8/Dzak0UnAXGjRWnAimthO4HpG77moaB8S+vH3ZNffOPjP+evvpaHiFb7hxb73rxxS/Ija0FJuAMwbxuLFq+6yl5XG02//F2QcB/FsImKlm6YvohQN7KwfsJVGYoAN9m+zkw3879rFx2QL9CCdm/HGlUEDTMyBoGOSCAUZwv1rYfXXv/gjaqqhm5HC1esrwaCpPOZRz7DaHv5lSkfbtu1r/2dP+A+TvB1wCEIoz9i2JkUCxYsvZSFbPYnvdY0H3467RkyWvqzEMdK7FdZZLNxl7qSqjW3UEofuIHl3PlLLlm4aMWVJoqIpRotcu6eVg1Cn7WRPDFXrdl4/htvfxrcwB7+Nqcjqr7pAMmmxu/vio76Hgxc+/IXQ3tJB8OlvdQU9ASBdkUg9F+2InHSLHn8v555der2rdmnhuoqim/lZUaLPNNOB0MnPPf8f78uLilL900G7vadgLzJur6uMen5Sa9/XVtbH+W7DP9TvPPh18/N+e3Pm2kmveUp5C2EdrxJCf+pNk+5YNHyC1+cNOVzerbIjbHlANlTLqHP2umgduswmWfO/P2+r6f9dL8oVmEhx2WvNA9lFhZlC1IhYLgECTyyBYEOQKDDTDFN/eZ/Dy5evPYqvtOTu0O3HuXHPeJM6LYB1T2C5v+dRkNebuHgO+96fF5NjT0mdHUOH83omB3Dpq27Tv751z9vCFSpVqxYN/67b2c9anJarXLMbmXVjbl7HrFi5a+/f6BKE5r5VNPzM2XKJ286JVuMepgkX2UJC9Y8IIaFQqo/veGvbXTOj75X85cLcwtl7dS7qF9ta+Ye0Y3uVmX7uudIiRwor6SFvgHaNpfQuAN7XATWA/eoZm1coEyICj0C8ysPXv5F6faXGo1mM7mwKhHgeO17qnrawegKaUk30QndcogeySwZG66M7fH8WSk9vwi9UgrRqEP01itWrh///KTX7gyvlxNroeq7lv9gLMgvHUzRj2bQpuLzbVZLg5AWAiEeCbATaNj5EbN++u124v2R3rzZatqddz35JvVKNlkh9U2GwZaoJlpSUpZ21z2P/1xeXkUugOqcsb/uR6K0Ei+nvq4h4bkXXv1q+469Fw/o32uD+ByaSWw3DZQfcolLCAEYLkIwurp6ITYLwiELrBQdRNnNhrg8qa6ng2ZF+SFy6ou+1WiHaqQStvHPZDArk9n0r7PeYKCTkcP1Cs1+2tPrg1mTTn4ggG9XTm5B1h13PPFJdXUDna7sc3LvMuNi3TeNNuXkvpfGo9nsXQ5Hv4uPYfnJ8kaaSR3/44yfyEgzTBEhGjKOTmDfvoNDtmzZwcLNLtGT1eSX3/o4v6CsvzygVuZiXLPFeubsp2wPz4SfklzJ6MBTnR5gOYsXX3rjk/37co7joa8DeAV+MlUylJZW9nzu+Ve/pLOsjo2MtNkDWNzgZuUaDzSpoR6km5yUVBBc5cIn98A+QeHDzWNJeDhkAWVEOGQBEHUUQa4+FjZGpYVxGk6yfQDso+4JYCFDW37YuQfsw5SiY8VoBUY+EZmHGNX1ZakjBi9EB9OnV5nJdDvVkS2IsYOW5P81bYNlP/fq2XXdkEH9VnlRKNct7OC1//73g7fLymu60lktviT1/l5ujcgrdvyYSLWDUYzfpnKoe4pYw1TdvET0RixruYmycR25MBm//WHO/cXFpRneF6L93dl0hh07INLt09I4dbEWW0Z2rg77mM0W44L5Ky4TK725tCXL1569evWmc/mBsaq/gFCjReniqM9zy0P1xWEL1TRlwOajJckh0WG17Gd6k/IPJWW9LDuMUb5Hbo6uJ1igtS7oafFYVb//vvjKDRu2ninRKppsHrmvtKiFEvcqYINlecDcNJJ2/a7XBIur5CxfsyEnt3jIl1//+KiebTcUZLv3D7ROqvTUzd8vVA8NY04e/XMo6BsOOmDFRWAtsuGCIHGi5AhSB2KOIMCiJ7KPOjZnA1dXnHb3V6DbgLKFEPZqlr3GwvHiA276Txt7fHUpOkPKDAm2SqHUhVFiFqIba/kLo8HhSM9I3PXYY3fe7OvM4O9zF169et2Gsw0G5l2j1rPg4Q8ffMhGEfdEpMEdM4HdIxHJ5WIjFRUmGThssC1aFT6oNBhKyqu7T3nnsymU21W6VF/QhKoGHwdKsw9sEMIMRqKpEJfHnMyQ4QNtNprW/R26acvOsXoi+XLqj09QVCge9tjjAYiaMlefC/4wNlIuDX379P1r4MCBKxMSIopl0dwM4WgrKmuTGxsdtuLiks61tfZYiqzWMy83rxurARr0W+gm8rUl8nLoYsZfWAfj+3qr92Cmff/Tg/WNBpvJ1d23fDi1vgZcnN37CgaIjaVZb8D+VS7GTMlfrwkXnpnJMH3Gz3dX1dT+JzY6qsp7Wu3hzqaJKtYN0IPTyNqwgpgvj/NOma9UOxrPOvuMT6656uJ/33JTeyhb6Ouoe6cb+gjEadg0tyFOJiSBQPskwF9cWt/GrRRdFdt0ZJx7RkZDY6PT2WhMT089kNWjx/aU5Ljc7t27b4uPjy9KSowtiImOroymjy3CZrfZLHXJyQl5UZGRtb5y/t/Pf/yTzYnLWrDVM/EXHzbTAC06ylbeo1eXLb17dt3YuWvXXbHR0eVqbkVFRV2KCoq67jt4eNC+ffsH22vrEwyShQ/omGaiK4EZRIsXrbx467bdowYN7LNWfKn1ktg6DTa5T+ebOjLSU7N79uyyuUeP7puzsrpuTUqIL4yLjyul9lHDBs/V1dVx9fX1kUXFpZ3KSivSd+zeM2rzll0n5eYVZLHTtxltUbyZ8cnkHTp0qH9BYXHn9LSUHNFkFi9de+5TT//7BM/npKqDYcV1zKvMWRrXZAGLkNbYtWvmjjNOP2nacaOH/96rd9bmqMgIn5+1mlp7dFVlTWJZeXlacVFxp4rK6qSNG7efMvvX+bcSdyHLnQIXb5qR+m3e4stffPGtoWzPkl4XN7C5C4Ak9ejRbXPfft3WJScn5nXt2nmn02li50Q67XZ7DOsn9u7dP+zQoYJ++XkFPSmZawxIMTiEXqz91trrU95665NXSfBtQoUHURhzq3EYHFJURERlYmJ8QbeszO20Yr85PT1zf0x0ZGVSUkK+zWqti0+ILzZRn2GzWe1dumTse/ShoBzLFERS+mUNw0U/tpAcvgTYjErTC5qV0/XWa9n7t/Y2EDwdHr6slZI1N02azghT/k6LO0ajs7F37+4bxp9x0lejRo34o0+v7lv0wjJ/4Yq/P/f8lBNoDzXlq7YFUQMTGoHwKWWHo2+/rA2X/f2cKaf9bcwPkZHWNn3Fq6prY+f9uejKad/+7+HcvOK+6ky26metmQcXyA7VNNm+/+GnB0jePzTL1FuA8my2PBmdnHaYkeGwRVjKLjjvzI/HjTtl6oD+WX/5o87OPYcHv/Dia1/t359zjLxFRMDzzUVIhrr6hoi1a9aPo1++9Ee3o6X59POpzxgls5X1X55NLm/L4T7jz1akHIaExOgD11575eQLzz7ts4gIa50W3aOjImsoPfsw443X0br1Ww6R4RLSA2J7XX3ExZdPnEJ0IwTbBcqqKn8gpYTEmMMXTzjv7bFjjpvVu2eXbd6w3rsvt/9773386po1G8+ixX+KJKeuE3iT2rt7THS+y9zfF96w/8Dh/2Z177LTu1Re3yUaqStj+f0ii3c6HXQMK98F6Yi02aqOP370nFPGHjf9hBNGz4mJtrE2iSvABGC4BBg4smv/BGRvbDYMYiMU9YXt/oJvqz9tYfS0fyQBLEHTYjwbbEXSoHPI4H7Lx5ww6qcxJx77c6fM1IMfva+vOvX1DdZrb7x3stNJc/RC9/OqrkpSfa9eWZtuu/XaR084dti8T957yesCxcZwl4yPamvrvp43f+nlH3887dnS0oqspqO5vRbFbzzyTBrm+iC339Wr/jo7v6Ckc0Z6svCVAN+0bONu1SuGexVxjxmJ3ALLTj5p1KyTx4yeNXrUMX/GxcZUaMmzX+8uWyqrak759PPv/zXjx5/vIRdJm69BhDyf/8Pn0s1r1+8QbrjMnb/00smTp9DBosxucTc8VBLeGi1NgzyeklxjBgzotfyJR+++Katbp91auLb3tL//sfDqqqqaDImMfSEbYN2AMNe+xKT4nIsuOvvtv19w5ntJiXElvvDq1bPTDrr/gp079x7zxZffP7V02dqLaJVcjjij4XJvx2z6xWk0R/w489c7SOR9GsQGMKnshyhfkqNTp9Q9Y04c+fOwIQMWHzN8yJLkpISiACqDrDwQgOEisFmwaGDsna7VVxZRxQRWSkiKUgYJ8p4YbW+JkCyfqpTIopEzC3me8R0eRkMD2+pxyd/PfvPGG698NiYmsuo/AeSwZt3Wv1EEpr4S+V8Y2TYeQZe8Ibux5sILzvrgvntuuf+zD/0/hDoqirvjfF5dbZ/+8CPPz96+fc8pbE9WS219PyxTNbolAxlHyZ98+vVzlM9EQQh0EsPaIYvmRyaAyVBz+WUXvHbtPy5+KUY28oRdcbHRlSTs4Vf+83bsnDnz/+mUzFSlGlfhSHXWLlauXEV7qcRe30778RGKpBdBK5VyNySgKVP7rZ8w4aw377nzpofef2uyWIU9SdP6snWTKX5XmMEw59eFN5LdST2X/D8RlzxZIhkyM9O2vjT5ib9nde+860YNgvv14yGLL/1++uy73n3v05clgzVayP44viePqWoyLFiw8lL66T4NaraWVAxURTpt9aIVFjqMht4xqWlJ2TffeNW/zho/9pvvvtZBc4j0m4DGXtXvfMMyIXX/dDSH9qIhqph2hjpL0PSKZ4mZPzFzzuBvoLC9xBWNzfI7HY0NfftmrXjwvom3fvP1O73uuuuGh5nREmh8a9b8dRYf6bm/3TU+9+R6RbtljPZrr7ly8p233/iQqDIxPq+8/OT5o48d/j8iSNuaaYO95iYnR59i7Xfx4lUXl5ZVUChooZdGmrIuqhCjSWpMTIzJufyyc1/6Zuq7fW679R9PiTZa3Et/wflnfUjxsepowCoH8BBw0d6aZHbWigBRXMTO3XuH79l7YJSZHd7e0u3V70wkw0ljRs669eZrnvJbRBATinh3u6vPViN37do/Snat1Nqk1b5UljNwQK/Fb73xwt+Y0SIK2WWXnPfW40/ce0NEhKnSyCaJtApWQ8BR2SvKqzJm/TT3Zq0idUvPjEH6WM2mslEjBv/y3DMP/P3zT6YMZ0aLbnlCsN8ExPSqfmcfdgk1P+thRyTMC9QUNtWHlTZlwcUpuxlpfaOFKGE+My/seTAZTI3PPfPwpR+8+9KJ55837rOMjOC5Jy1bvuJ88jiiuTk5ZK368asi2PuSmwAO6fLLLnz1xusvnWS1WoTu9I+llYBXXnr8ov4Dei1tdDaQ+cL38HpwA/OtBKxya+x18ev/2nyKbyn1v1t+xJiGRunOO2+8++sv3ux3+23XPJ6elpSrd+4D+/dZd+rfTp0h75b2ZWN7K5pRJ2MiI6iANlaL0n3t+k2nsTVMtkeryd1Vi3R2YGZd+T1333yvr9H5NOQqLz2Iu0TKoohav97ZUN8Q1RSaWIOi3D2ThTg2GDplpmx7/rmHLk1JTizUINFj0vGnjf3+oYduv1mSGholFr5a89tJriJqZhYyXEJyP5IcaF4ydOqStu3TT/4z/D//fuq8k0869peoSJvPQSRE1wfkeSYAwwUtAwRAIOQJ0EDbccopx/4v2Iru2n1wSEF+SU9xerBXZqMhs1PS5muvuVhX35rrr7v8WavZXOcai2gelLC4cRbTju27jhPHQ6QkVkCnNHbsCTNiYiKqRUpuS9axo4b9QaNMYQaog/zOysrK09rK19vvt23bc5xryO9+iqm3AlrcR16T0oQJ536Unpaqu2HYImsBrdglUaQsw6IlKy8lV0FBMtkMBxmHZqnmsUfuuiklWb/DDM847eTvR48e9psw1eWIZ4bdu/cOy6NVKD+bmI7J2Fp0o6FTp5Q9nTulH9AxI4gWRACGiyCQihhBnZRYpSBNOAFt9axsExC9WVN4KTUJ5HPe2ji55x/o46ZbKfv8+csvN0hmeW+g5vipMp7o6IiiFyc/eaneM3wnHnfMHxeef967/PggfgkJEmFcsWrjOZqail6JZRd7ExtU65VFa3JHjxo+l47OELDcIufAVvUKCsu6iCrHxr92jGXrob7vcfKsQVx89OF/XHXxy6L0a+9y9u8/3D8vL6+vsHIoSx9/v+is94YN679CmNxWBN068ZonImwWoW64ZgpctmbNhvF66+6ffLbqIsrI9E8DpPKeAAwX71nhThBQxnvssZEHnW4Hs/sxjg33zfliGkwoGXh/LlhyJe1bUE+EbCqgHz4VLJIHOxX81FPG/pjVvavoUKEe4d9/zw33Z2SkUKSnpjaspZZo04whe3/uoKqauhgtckSn5SYZf0RZ9AQ/KkejQpkZKYcyM1KzWfAGbcYB9yWky2QqKSnppFEtnnz3noODSssrMykmHjeItF4smMyJxx87h1YBhLsuadUtWOm379g9Wp644TsaWWvUqArVlclUc8XlF7IzUXS/+vXpufHqKy+cTDZ/o4g2Iu/rNBrZnh/dlfcxA/YEUMw3MltcJ0j7KAG3B5oADBeBxFkvpf01IFAhiNKLgIBq1voi06tokNsagcM5+T3yCwp7sjCk2gci8rCGgg7YAzUYUct1ztmnfiaHNBZ2mRYtWjZBmDRhgviSC/nXmIStfPiiWkJCfKkv9x/tXqdDMtTU1MSJkLdj5y4aVAuofyUsNo1HneNOGzNNhG7hIoMOZz1e6GjA6HRedtn5r1Ho8YC54l1x6UVTEhMSc1mULUGXZcu2PWMEydJBjIDXug5aQeSRBGC4CGwV1OyFPOEIhyywUvQRpem54YvSLDSrgLGDPsUTJVXAdK4oVQTIOXjgUD8Sw8/wEXExMaeMHTOzR1bngKy2qDqfd+4ZH9Hm23ohg1cGxGg0r1yz4VwRTBQZ4kYQSug+gbp5LYrOe8jz+uY2bjRTKIiqiqokEfJWr918BnVAFvfAEv7PqlP4WKm+bshQ/d2XRJT9aDJoE72wdrdrz94RwvSlF0VEhKX0uqsnBNQVLyoyovaE40f/KmqvC9/nsmfPwOoae0itzsr1xKedhdW/sLqHII8ENA3AwLQ5AR4OWQAUhEMWAFFfESI7OJGy9C21z9LFjPCVZUwRj5bPJXBPsGvPoeHM3tQkRB2ZU2lMFN5rwkVnvylCni8yKLJW/qiRw/6UdyFpLY68T2b9uvVjfdGhI9wbEWmr0RRxzg0Sj+BWXy9kwLd9247jtfKXa52mYKj5HHPM0CVskKtVpp/phfULwgRRQXJzCnv4WZ7myfjBcJJh6JD+K+lwWXZOUECvsWNHzKBFywY6cllAvjx6l23H9j0jBQgTKqLJtVSoWAjTiQAMF4Fg5b2gQi5RcoQoAyFHEHB7blQfZrbY1vLD0nn6vtlLIEzrmpdbxNtOhFOLkCZ86NCh/myxTIQwVum0Gb905PABy0TI81XGcccO/437UWmtIsVdqLqyNq2gsDgEIwb5Skbc/fGxsT6dZH60nNmDVFVtT9SqHcmIyc/P7yFitU19uMecOGq2Vr1CIb0oP++i4uqUkpLyTDFlYlvGnY3Hjj6GntfAX3369NxAnoCNQtoLOzyYGs3uPfvErUYJRCJw/CZQK4jyREDISxhoZQKiXMXAM8QJ8OPS2Qnu6qZLef6x+YeVQX21e/qONRhu6NApdeF4saF5eEVpyckt7C3i/BPeVxCaAQN6rwtWzf/t1JO/o30uDdoWXJR5d4pS5nRYIgoKSoRFvQoWl3DPt7CwsDuFWRM0WSKfK9Knd+/14cBNyKICgdi+ffvxJhOdvS7oMpvNzp49um0WJM4nMelpyXn9+vUT1E+xYBAmM4WUP8YnJQJwM199FjLNFgBlkYVBDuuJCwRAwGsC8UZr4bDIlGWKIxTfYs36vaYPn7ujD4uHxX9WLBfeM5roLzY2dLU5pOp4g63U64w79o3CBgL+Yiwvr0jR7lol585WOrp367rDX120pmMHeF5x9Z378/KL+/gPlua9eJNm/uEGw+HDeb3pl9VadQub9BSSyb29aN0bRf2N5olGOgsmlemh9ST3pjYj1ffv3yuYhgtrgf43YR0a2+Gc3D5Kny9EusPhNGVlddsuRJgfQoYO7r+UoqSxs5qsfiTnSeQK4q3OuOGvTSIPrBVmbsi9GK72QACGi9haCqkOVGzRIE0lMDa687f0M/tovnQ9cVCzdhDgTqC4uDhDFBHabO3s3r37NlHy/JHTq3f3zflkuPiTtimNMiShIXVVdU2iNlnhldpms9lFlqi+vi5Sq7yiouIuTopLy0eQWoVRtKmo6MgKOocooId7alVb7/QHcvL60vY1s2a+XFHJQO2oOikpIWihpjMzU7LpTCIKpWjy23BhJVFXNCqrKhP0rgPID28CmmdwwhuPb6UjmA4Ry42IKuYbd9wdqgTEvLpDoXRV1bWxdrs9VpQuNOttpNPcK0TJ80dOt66ddtCKgJBZRhoKSwUFRd380SNc08RGR5fTaI3FzhZyVVZWJ2sVZK9rjCJ3HebnqlUUD+yQkZaeo1mQ/wKEtF01e7Z1XMR18MDhAcoqvAhxhpTk5Dyb1dIgRJgfQnr27LnJZBJkh1H+9pq6BNprJawv9aNIRyYRU/VCVIGQtgnAcGmbkdd3UNs3CXgfsN0TqBevqePG0CUgJqpYKJSvtrY+hty7NM04upeDZBkjI63BisTEVYmKiKimw921j2BJFp31YCTDTkjUq1Co73DVoabGHs/DgQm6jLS9SZAof8UIKwu58AoZvlZVVSaJ9DpKSU0WFlbbH8iJiQmFkuQUNiahgx6Nos4k8qc8HtOovmzCBEKQngSENUY9lWwvstUt2O1FX+gJAvoREPc0sJ1Cwb6Ki0vp1HKzkEAKbI2DXt6NCfHBc/9gPBPj44tMRpOGmVxWMXIkPbPZItXUVAk5IDHYdS0wf7ILnXR0oJMi2mprxOxFbSYxWnVTBoxs941WUdz+SUxLzNcsKMwEVFfWJYpZyGS7LsxsZUtzvWtBHJ8QVyQZG+u0716Xi8FW6qqra+K16KRHWgGPhB5qQaYHAtjjgmYBAiAAAm0QqK21x9IwgoWT0zzZw16QdC6CI3t/7qD1G7axGKEsugMdcSAPJikPOVyT58vDF80GoWz3gltQCNfr2JVO3eS9ft2WTAfbqK0ttJisM60gNdY3RqAhNScgbybRbiQI5CpMIV6qkCqaQEoaRJFxSG5QomIGmAyVVbUp6zZsHWtUgr3QI6tFeFs1pvYTctgNWoVavWZTN8lgoVB0bSVtA5qrWzIYyspKU+luEcFJNCrVpHNQrUMN7a0jJoXh0hFrHWUGAd0JsPeJsHeKMp7XXelWM2B7UuRZczFlcjidEa+/9eHrNJnKVnHYh+bTm0a4TsqNnzzXFGNb1c3D+9UV3lYZlDI5PFS3KoOlVV16zPRXmsY1OMwmcyOFZbZqn8dnOUmGhkYnRcsLuUtMhflbLJZ7CI2Iaqr4TLdm41vFEdy1AH8rRd901dXVceJ6CpNh796DQx986Nl5bHO8Wzh2tW9o2b7dDY9mRkiLUruna9lZu5bL2WoPxXJwSEZzJGs0Ih4mcpM1iTrIV2RNhsLKvsjyhLMsGC7hXLsoGwiEAQG2CyNEXirChqC0QZrVjI3sIbWGmg0mjW5GjO9VqA6bPA8z+F/JeKFt4365vnlye2LFqG1oiPJd13BOIWb/EK8uWusT0fjq6+tpcz6TSFPpGt3XwrnmtJRNHFdW43JsB0lSI3qxs1Bca12eHnARtkWz4lPfa+U9ih8NsBkLLsRB+rM1I+FqaqkypG1nBGC4CKwwehRdh3YIFAtRIAACoUEAb9vQqAdoAQIhTECkb6Af1oIOZPwxWlpXQ1iZ0B/rUNftQSQMF4G1pPhnaJaIcMiaEUJASBDAeyUkqqFjKyFslBQ+GIUiESosmIy1rXK6ac5WS9H1Ha0qw6bNBLO9duS8YbgIrH0WxljEE4lwyAIrBaKCSECcp3cQC4GsQUALAZFDWJGytJQpLNOKeHeHJRhhhVJ8UiS2xyr0mjLVf+gpJYx9eAkStkkvvLD4VxqBDR8PkH9VgFQhQ4ANAygOrLgLz4Q4lnpJwthPL7IhKJfv4A6jpzKcyhKCzUVRqWUcgNDQNNzacmhQ1U8LrLgIZCvKVYy9DwSqBVGCCWTXlg/ZVFUwjo3M6cN2T7bojT0tvKkbdSkCFB1TSmdX87BP/SISlveNT10nWMUQEMeQmMJpYgTLRyHQqqBC6BDgnV4YvanCqSyh00rcNVGCldHJRqE2xAm3thya9S9OKxgu4lhCUgchsNVZccq79t1THMy+pP8fGTvI0zRk8ze8mX61SSbDLYa+dxG2MDRceGMIo2FNB2ncKGZIEsBqQEhWC5QKIwJhtHgYRrXiuSgwXMK+ilFA0QRoscTMDxGk/3jf2TXdqYSjZcN6turivQjRBYE8EOgYBNq9AS2wACwWLYtSS/0Oup6O0fxRShAILwLh5MoR9Jph0cBELDcjqljQq/KoCrBDudgNmk8cZ05jYX2JDAsa1qDCpXAYCYd+TYqrI4HWVChgo5NtxKjBXaFEbu8To1bQpbDXppF7SAddlSMUCEGVQg9S6GgU5gOnwILmm/MFvBYQVSyw9eZrblTJdByciIt14oJEiVBHuIywO+FOwNMtHHIICYShGkKVob8qYfY00AK6mG4dS1lHaXuhuTlfxLhN/wcOOagE4ComsC1QryckHLJAlSBKHwJ+vuCUzYlMJ9Z/y1L8lKVPwcRJVcuqfXQTUg8VnzFULr7xQHv5xDEPniQjTYFFWs21gjQAVEEg9RaDvTceCYdpny6gNREZs8nksEVY6wRIEyoCbVkoTl2FYcVFV7x+C0fH5ze6gCQUUj98U78pXA2XgNRDoDMRO6AW4VcaaAIt8mPukkZyizEaGur69MlaH2R1kL1XBNjKmPamLKQT9ErfDn5TGPQTvAaZ0cIXZRsr+vTuuUlQrWpvyOo8lCCFIEZ/Alhx0Z8xcghDAlpe2iwtn7cP6ykevhoh7KUSIk2IVZ2QMjEyToPkIGlmVjZlbOK2JOcqsXt+bTW7o33fVtrWEB89nSQ5LRZT3ahRg38/95xxn4VIPUGNoxEQ2O9QuxXyPIRIhYVoWVgsBe6GLu+tpOgK4sfaqlvvEQjcn/8WX7rStMVN1pv6u9S0lH3333vzPZGRNnuI1LlLjZBa2Q81OCGmDwwXsRXS1gMsNjdICxIBFpeHmR6+HgDc0rWI+nPs4WyzDtnKVPBfKpKRhg9Mkzb1PeoNzEKhMNgkpvGlSU+d07t3t40tjKGjDBS0Za0xdUsDhvd19B8pLjqqMjIyovalyf/SmAWS600gOTk5j/KgJTJqhBoNmBB52YWIGk01ZzaZHU4nO95L48X7CqPh0ksv/Pfll5//qjLT1bK8vk5IeOZFvZv8NPtgiPLZFm5GtVUHquFiTEtOyv922tsawSB5RycAw0VgC2CPPXuCfe1JBKoAUQEgIKR++TtCtn1wdTwCZkkyZ6YmHUpPTizoeKVHiYNIgNnfNHsvpBcLgQmFIJJsJevomJiq8sqKOBGasfFETKS1Kj05oVCEPMgAgXAggGGTwFpUx6JaRVKlCJiu0aoF0h+VgJb3vquhsMDXwV9L0K+m25qI0y9n0ZITEhKKjCb3nfl+5qCc/eNwOGjwGD58/KQRiGThBFlzWRqdTgsP465xtUWtuMKiosxAVGIg8jAyg07AFRERSRvPhYjiCxrlFbXpAtSCCBAIGwIwXARWJQtjrGU8q6pCcrjfO66QJSCimkO2cOIUCx9McXGxJWRlanTsk10FZSpGQ2lJadgM+sS1GUjSk0B6euoBSXI0aF1xUVeLGxqckXrqG0jZonqr5OTYXCF68/jMkqGgoCBLiDwIOSoBUfUPzPoTgOEikLHAhi9QlMACQhQIeE2ANWGtA32vM9P9xvS0hHzysRG2EspmvQuKirvqrjgyAAE3Alarsd5lO2sk46RtEVXVNfEaxYRMcmUxVLM+mZ3S9mkW4hIgGfLz87uLkwdJngiwt5WgRUgADgABGC4CIYtyFROoEkSFIgG2DVL5hKJ6YnRiqwumsOpf0tJSD2tnowZooBWX0ooM7fIgAQS8J5CUGF9oEugqVl5ekWK310V5r0Ho3ukWrUuTkmnJKTkmFoBDyGU05OYU9KqptUcLEQchHgnwXhnTxe2mdYh6utpNgXVWFE1fZ8AhIl6QA3PYx3EQ+TyIlOVXM0pLTxFguPC5PRYK2bB9x57j/FIk/BOJer7Cn5SPJYyLiytxSk4z284haIbZfCinsIePaoT17d27d9nOH3JBV3VNbey+fQcHCRIHMa0QQKfTfpoGDBexdaXRB16sMpCmGwFRfZywl5tuJYVgF4G01CSNhotstMgfoyH74GEMRtC+AkogLS3tIHVeTrUVastc3umyaeOWU7TJCa/Uffv2XUt2obCxgMlokXbuzB4VXpRCsjR4H4dktRypFAwXgRXFYkSJWG4kOXiABNaLDqI0GS7ciYoPXcO9nsVE6dGh/vwSmZmRznzXhQ1I9u3LHrB3/8EBfikT3onQ/+lUv2mpifkxMTFl7DRDQZdxw1/b/iZIVlDFqGEztCoxcEDWhsjI6Eqtcnh6cjlzOp2mTZu2hgVjIUyaCxHTV4iRokPxINITARguAtsFtX0LD3HK/Fs9fTzl1fI++R5EFRNYL6JFiTI4yMhlm72FjSBEl1O7PPVkZe2SQkFC9+7dt4na2MzLQzv0Fy9ZcXEolA06dBwC6Rlph8TY33LXtWbNmnFBoie07+RBvARd8QlxFIVQzMWGFFu2bD9ejDRI8UhAaEsCY70JwHARSdhotJloEd7i8eM0WBz0XctPi3utdLyDhc41FqkWZAkm4HAaIpzOejNNvpslp8FKHxvNw3v80Njdxr5XPpTOYKG/8c2AjQ4HbV8P00NgxTijsJoTEmNcQBPo3i1zp4md3idoeGOSzOYfZ865o6SsPFWAehABAl4ROPGEY36mMbqmE6T4qjELw0UTb7W19oTde7KHeJV5B7lpwMCuK0Xt9mb7kXILS7ouXrr2vA6CLyjFFLTnKyi6d7RMw3TQFJxqvCt58G0NJpONcm85tKHfnaoxon7H4kqx4SszHtkKC0tnpU9jZ0vk1uCUALl6Q2B4RMrcB5KG3dxINiYLtC+vwLDDCV32pvoDcyd3/yOrezYOt0lGk9kiGWv6WONWeZMn7gk+gT69szZTVdfRQkmUENuFDNiy0srOc+cuuoZKNyX4JYQGHYFA/36915DhokyfaCmxEhqR5mFWr9k0niTR84GLERjYf8DKBQtWX8H6e61EWOh0Ml6s77z7yat2e/28yEibXatMpD+SgDIgA5p2QACGi8BKOjUp6xuB4iAqRAl0scXtJtXYB1erBNSwv+GDKCoqsuaJJ1/9ZdmyNZcYTKIWRU3Gn2fPnVhrr3s/KjKiNnxooSShSuDY0cP/sFhM1Q0NBg1nsChGCy+kyfrH3PnM+H4tVMscaL169ejGJjnIaKF+gi3R8pkObX1Gfn5x73l/LmXG0OeBLk8I5ydkDom3YnbaJ652QUDzbEC7KCWUBAEQaLcEmtasgl+Ec87526cmk9Ehj0G0vufk/XA5hwsHvPHGl68Hv3TQIMQJaG1wvHhRURG1ffr03KStrE17OdnCc/a+nGELF628SJvM8Ek9dGj/ZfGxUflNy+3aqo6dC+N0Gq0fffL181XVtXHhQwolAQHfCcBw8Z0ZUoAACHRQAqNHD50XnxCdq91oaQLocBjMv8+dd/306b/d3kGxotgBJjBkcP9lGhcAXBo7yIBvlCTLa69/8GZJabver6XNunCrw0haPR03buw0SaL4K3zzhLbVFjWYAh342e2e+5+cfzi3ICvATaYjZCes/jsCrGCWEYZLMOkjbxAIawLhFQ6Zz1ZHRtiHDx+0UNmfJqb2aEzjcBpt77z71evz5q+aIEYopIBA6wSGDB64RB5KKwNqreNqijJSWW3v9OXUmY8HkLvQgaaR7YIXeJ17zrhPzGYT7UehLazMa8zfi7ma8Y+TDuAxGvbsOzTquclTplbV2GP9FRlG6YS2gTDiEtZF0fA0hTUXFA4EQEAzgfAKh6ziOPXUE6YbJAcVTuQ7k2JjO53WSZNem/r+h9Oes9vrojTjhwBGQGQlhQ3RUSMHz09KjKcDVVvGjPGviExKY4PT8vPPf9w266d5N/knJbipRDeUvn16bBo4sN9qHr1Fi0mkBmhUBTlNhh3b9o255/6nF23bnn1McKmFT+7YnN9+6hKGS/upK2gKAu2IAHvb8gO6w+468YTRczp3SttqEjtBKwemMxgjp0398f9uvuWBVes2bBkbdvBQoJAgEBsbU3nGGSd9ReaGGH2UUZ+jwRE95bX3Pnj62f9+XVNrjxYjPDBSNBkXrag4duzxP9B6qkbrWXU1k//lh4eSsnt3Hxhx252Prvjky+lP1trrMdGhoZlw21DgOT4aVEFSLwggqpgXkHALCICArwTYS5b8R8LwYu5ic+cufW7Si29MNRjNzA9EiRykZVpVBuVk6zgUIf3w4cIhjz76wu/33v/U8jFjjv3puONGzumZ1W273jjr6hts9XXOiIrKipSKcvpUVSaVlJZlVlXWJVRVVSSXlZWlVVRUpVgslobhwwYuPP+8Mz7VW6d2Lp+NibQ3DBmC0ImASyac98bvv8+/rqyitpMoxnwV0mwxL1q04uqiosLuK1aue27kyGELbFZLg6g83ORQIGapkR4YIeMYUeczuZdz/Bknf/3Nt7MeLi2t6ipqdaupv2HdqyXi88+mP//LnPkT337/6+9GjBg0b0C/XuuSExOKdODdTCRzVauuqo2vrq5OLCsvSy0vq0ijwAEJRUUVnctKSjLs9fVRdrs9JjMzeT9zm8vq3nWn3jr5K5+bhEKfLn81QTpvCAh54L3JCPeAAAh0OAJh+yoYP/6k726c+PDD+/bljHaNKdnbT0CJ2bkN7PiHhkYp8q+Nu0/buGX3qe998NXL5190XcnJJ5/4v6GDByzJzMjIzurRY7PBSCfWenJEoYMya2pr4woLirox/WpqauMrKyuT2eEdBQWFWTX2uhgyUiKr+UCjpEtZWXlaUVFxp7POvYZC5LrOluIHSLD0Rv4nGpaSAIqqxn4yzPtj8fUzZv4WcfHfz3pPcMsWQFGwRmEoLiMjJWf6jDnPv/3uF2+Sm6KZz+SLuKj2qJUYtmzdc/LjT740Z/Cgvkv/2rjjseHD+i8XIZ7JoEFzDB3IyNo27X4Xdoiv8HaXnJRQPGPm3Odff+MTekboyXat0mrISq0mPtLmfQU90yU9pk+f8/C33896KDLSWnXPQ8+uGjF80PyeWd23ZKSn709LTzsg0ZmjzfnLa0y0cuwsLCrqVlNdw559KS8vv5fTKZnI6IitrKpKKiir6NRQVx+Zl1+cVVVZnVRdVZVQWFjU+byLrqekNDlFlS2xzTeki8lIR/RS38Pk8pOClL05GzfuPJn+xD4iLw0Qj1RDUOsXWT7IaoUADBc0DRAAAb0IhPW74KorLnp18ktvTWOvfg5Qp9coBSaiAYfFVFXVkPHbr4tu+W3OohvYeIMNDWjMwYeJLS/XX9gIkgYjRqOZD5mcbCThlOjs09aq3PMiGQ16XAnknUs0zKWJ7nXrNp9Jv4g2XPRqj4GWK7RF6KH8ueee/umPM3+589DhwsEi5DftamMNzEwt1GDesmXvKQ888Mz8K66663Cvnt029erZfVPnzp13xcREVCp5uuIEsLFuVXUdDaCdRntVTXyNvSaupKQs015TE19aXpVWTqt9BQXFPS+68IYkMrbobrbiKezSpb8695y/fT5nzp8Td+7ad6x81rTGfUVuD6/R4ORPP3tqnQ4HTS+YjXW1zvi/Nmw9Y9Nf2/7GeiW6zEb2ALOlXFYjcochWz1GpyyA2RzygdjURVjMDkcjTVCYmfMqGSeyDxUzROQnXzZM1Xka1YGNfUfZuBgqUx50n8Wwc/t+KnvIXyH/vIY8wQApCMMlQKCRDQh0PAKiN4GEFsEzx5/87YMPT7pu9dq/zqWZRjaf6nq566WpYjNYZflsQMG68KOMt+S5T/4/dbZXpC9/TXVtol5lhVz9CTC3x++//+n9d9+f+oZuO9LouXAajBEFhWW9CorKei1fvfFCapNspUReWlQacJOxzTzA5NbNniu5BbvPDchDdT7ZLzD+B+XXZJ0LRB8ZYa1bsWrDk48/OflXmmogpcV60LZ8+l1mEYWolovB3E8JmETdxhH+UFRkJYHMn/2XqobW35wMB1vPVVi49+auRR+lHzpK9AG+AsP+IxCpuygxxqZe2ulU6I4uVuwT1NFpovwgAAJuBML/bXD7bdc/FB8fV8DHBbq9m4/SqNicKJ2HefSPMiRh+2fE6xj+lRzmz/S4cadMi46JLpBtCNklUPzFjBc6RJEG7cwmoY+FPmblZ9eqAZ1eroytmdlipjRs7YU5Q7IFA7WdszavfAQqKtKgb6kW7QdbPGz4wHnqQoc+jFuDIa+JyME/WnwUVy4XT76MwhZmlLag/nzUfz3aDqwRqZmpFpHA2hIsSoz5I1gpiGuNAFZcBLaN/+Su/bzGYohinqRHWITqXA594T6tY/IwxzPckrD8wqQ+r3mr2vr6ojN/rtw/Ub3flRX7waVIU0bsBdLy4tv8Gp2GM6K6fH5sfOfZ3uY9rXjbi3udNb2dNPtFUeabCudi4HkSq6UOjMPVCX1f6G2L3+hN3vl1Nd2/KNnxqt3mQX6zP3mwzVtAH25KWEy83/QmX3bPurqiM+dU7ZvYPGe3fJpVMEvRUkfWCJx8rnx8RNdPR8d3muNt3u3nviZvBK06s8FMqF59enfdRhuQr/m/Z/7zY0O9FBNwPfUcbXlRGLEhob3I0Pdbgt16ROYvUpaLZHJyQhEFm7h78otvfkX9Ml/NE79Wynp8RX0egMJDRSpfH7EPRFlm9LyyqAsS31tZGynYylZeQfENjz314k/Ze3JGCs+gpUCPqzoeWAk5HNNjaVRPMjXTkK+oIHelujeJcMoAhovA2lxRnXtBuc2cxAwXeUW25bOqLHe7LdfKP7pcfHmaaIvBpwgsOY01g5fW5l3mVJfV+QkT5LHKn0Q2aHZNY/HScrd319XkoRrlcBoGmRJX0FdeGy6b60rOWttQOsJhIn9m1etVcU+RS+XJcGGzae6LzUaDmfwUzovv8YG31VHVWJ+2tDr3kmpyxfWc5mhTKM3rhXjXepsvuy+vsbr/kpr8y/i2aJ6QTwm2YOpW/3ymq+li3sHsbjMZioMMicvoxzA0XFQwvpBtn/eecPzIuW++88VbM2b8+qgOKxrtEwq0blcEWLCJl155//Rff13wT9lPy81HSFhJmvrdjhjBKTM9JedwTv4ld9zz5JLysuouuixsCasrIYLc3s0hb7fwUZKQUkOI7gTgKiYQMQ3GW4zSlSVaedNbi4Gt+3fyV/IcNb/PV19bq7y8qw6g3Z1WlXzU71wDbLf8m081+GQ0yeGGVDdlthytFlPVQdHJPf+WM2hN+fvauykZtuTcVv/T/H5fYVMhLfIWR7VsrMxH1meT87AnBi7jzdcyC2yxeoriPNqqCF8UCGlON1x36aSTTz6eNurjAoH2SeDGGy59rmvXzC3NNja0z6L4q7XufUyXzhnZ99498S4yDuv4zjORPaS/pdY3nTLG1K2kwgjSyr7u9a8v6o4jHYaL2LrmC7RtzSbxCa3miyAtOzDfHiByAGYDaf6RHYJlHVyKsGdb9V+m+X7le1kHZirR0J2t0lBak8FU7yMSPu53dUuKAcWz5n9syre5Dk0MuPezXGJfbAi2udOX+z0Wi+I4qlaHD8XmDtbK/WoZW0t+JAOOhoWVJZuP6Ag6Ac4H9QN3q5CXSlOcmsAp7mtOcbHRlc8/c+/VAwb1WSgxV0QWo4fstrY+vuYTgvcLqWMdy+VbXypWkWDm7XNJMmhF4KUXH70gKTH+kLwmLGZ4wPo6vT4+FzIEEpx+6gkzn3zq/quMZkcNd5IIx76iae+MOp8b6v1ECLQMqOAtATE9k7e5hf99FkE2OxuU+3I1eprv90WAfK9fqz2+6uq7Wp5TsHyDNTAQYGy4+nHNxpcooJCjncC/nrz7uuOPO2am7G3TId7VwXoGtVcWJBxBoGuXzH333zfx9ohIY5mJGeC6TZR3bPjjTz3+x3vvv+0O6ifs7tNgYUxFr85QL7lhXBXtv2gwXMTWoaY9Qxr2yVG8QXlPi2rA+Fcsv/qAplebaykpYLkLar8+b//WaGw0qyWNsvxjHZhUfrWn1lRrFwPkzpnpB16Z9PiEY48dMYuFE8W4LzAt7Si5tIt24yWlgJTllLHH/fzcs49NiLSZS+QTPDrG1ZanhGgKE84Z9/lzkx6/gA6MLBcf7E+0tpAHAqFDQNDAL3QKFGRNhI7UAlsWeYcNXb6WQblfTe+S44/6vuStzUZrpl3LE4XbVF3Q25y7YwiS1abOQbghjIvWBs0Xnr3/siuvuuh5m81c5Xn/UxCqQ48sQ7+Kg6khd9jVA7veMo8bPXTBpBcevygxMfaA3nmFgny5JzYHfDw09rhhf0x64eELevbqvJYdIyOR5zCdENu2v3koQDuaDk17Wsn21e0REPpss0XyUMcK/WQCAX9Qwx28oGfU1wdI0AOs1XBhiwdKFDP/KtqXcosxXOQcfcnXv5J5TBWkbAWWoHVRrC0JXUwS1MYDUniDzWZpuO3mK//13L8evDg2JoLOeXHf6xRW9a5HvbDdeoGpqPaVS0ChjBgxeMlXX745uE+fbsvpnCBlr0JAVQho7URH24oCmqGS2cgRQxa/+fqkU44/YehMOpRAOUclHPqIZg7sQl8GbvUkpEHy6dZwQB6MBhyEPGG4CITOLHZ/nyLXZn3/BPiXynPZfXx8+ZFhAikGWJRMLpgFCGbeAYatKTuRbVyTIr4kPuH4Y+Z+/ul/h5x7zinvGqT6BolOpWYzqkeuS4Z68Y7Uj/0lJiaq3Bce3t3L3F41rdy6Z6PXgMm7ogi7iw8CA95XxMREVk35z9Nn33jtJU8mJ8buV09SD/XWKmP3Xkun02m/9rorXhZWXT4KiomOqHnumUcvf+TBW67v1jVts0TnfLGABizqTvvrK44svGRkZ43qcYl6JtSJJT10hEzRBDTtyRCtTLuXJ84hWKeHXC/C6syKptUWvZTTQ66g+hEkRo8SapZJO66MZs1SmgQEfMwmTPfk5MRCEnbHzl3Z70399n+P/Llg2ZU0qDKzVRj5tasMTUJ1yk8OEdg0FHRzDu3cJX2PMFCKIBNvN9rn1CQesolZQH7PJ2ksGncDFfCQM28bgi5bcwG/YmNjKijTF2tq615//c2PX/v1j4U3UPO1sYCM/JWn4g2V9qvow08z83C+lho0gwwDUl5yxMZF5t579633jh934o8Bh+uWoc1qYUcRfGG313/37fc/3T/tm1mP1zU4Yh1OB6nMegu1+pV/Q4U3a+S8eaqFkdeX1YtFhUxNSzwkmq3JSGENjJQry9etj2qeD2XuxVPDTnWgx6v9vmREww1xeTBcBFYQ6wUFifNVjq/3C1KzaSwjUqCXsoJZZi9VbOs2VoT2EOy3rXIc+X1UdGSVRCMbfsyP75f7gI+9UQxmi6nOdzGhlaJf3x4bSaNrtmzb89rs2XNvXbpszd8rKirT+dlNHk+6DhH9+ZPGjAl18YL0NTkdaWlJuydMOPfNO24Tq6fNatZc13ID4gMoZ4TF4muIdyEFIndBVg6N1rs6XHUa0jKSDgpRzE8h0VERNZT0n1u27fzwxx9/v2vxklUT6urr4uVzX0JozMdexDTQ5wctNxvQ0jIGtYf09JQDWd27bh05YvgffXpnbRgypN/KqEib3U8swpNFyrq8eOBgzg/zFyy/bMHCFZdn7zs4mP5mkc95U/vU0HgFunfWciuQ9WI/0yHNTsnoqL3o7+Pe/2HaW0JZde6SuYdWpixsguzoB/960TZJ5fiYqDKhCkKYbgRguIhF65fNztcrmvdBvvZIvt4vrNTKgZmK/urKi3/i2dydDynV/tKXNB7E80D6vrqTaOQtSHUfYAX61qzuXXZ0ykzanptXOoBVq4+hgdWGxCdF2Tk/I0cOWTD3t0CXQp/8Bg/svZYNAEtKy5786X+/3zrnt/k3FuSX9WLHKElOKq8o7weN6svsabRksjooQhpNSDqcMTERRf379/vrmOGDFpx/3hkfK6tJGnNqnvykk0bO2rlrxwmSMYKvl/hzyY5VkqHfwP5r42OjKEBC4K+TTzr+fx99+M0k0iSS6cP3K/ukRtNKttnsqD3xxGN/8im5TjcPHthvDYm+obq69q6pU2c8/NMvcydWlNdmGowmfoZf8/l2nZQ4ilg2WUKrdg4jtddGY0Mj7V0pGXPiib/369Nj/d9OOfmHjPSk3MBr5XuO3bt13kWpJrPPug1bT/76yx+eWr9h6zia5LAY6ewXNjHEHpBgT32x7oq1a6YSWwOhXqyBdRY9evTc1rd/rzVnnT32sxHDBi7zncDRU4wYPnDZhEtuzqa215MZqtR1tnK1/dTR81V37OghYfKGEU069OTBcBFbJ20/IR7y48PY5sNvn+XQsII6MJ+TaS49O/s3iJNtfJFYWyH4qoc2EUh9BIGoqIjawzkF5/zzjseXVVRVZbDhOLtJiaHWss5aNlylUniDtpCrSs7VV1/60ssvPhVWpJOTEtlm4Mm19vr/rlq54axZs+fdtn7dxvH0TPFzbF2FpQdMHfR6mOQQyUStBzYicsbGRpd169p199DB/ZcMGNBrZVaPrtv79O62ZbbOw+fzzhv/0S9zfr82r6CCjF6Xu1VzJp5LrT7MvF8wGhyVd9x67UMfvPGcSEZey8rq3nn39Bl/3PvOux9PkRwGGyVkZ0+pJ/IqclQr9QgTTX4tsHNqjZLzmBFD/zh7/CnTvM48ADfS/iZmED5dVVX777nzll01e86f/9yze+9wpf3yx52rEZgXBA2ZJTpfS2rs16//hgH9+q0eOrTXkuEjhy5IS4ormjNragCI6JfFyGMGLSHpZ2/bvmfkvHnLr577+4LrqqurU2gnDK1Iy5aDO2b1xajrkIDapVK7DZ3S0w8NHTJ4af9+3dYMHTpgSTcyumKiI6sZkcce0Y/LXXfe/PCkSW9+yx4TeuTZ+WqszbEIB26ZNnu9qL+4/sgmioYNG/TnuNPHfqefppAskgAMF5E0fZ1Qaz1v30bSR/h3ahrL+2T9sDcr32zMfUT5vKIWor4kVpYt3FH545bEs/Ql32bla/lO9uNF4XfeWkAHIm2XzunZ9rqGnmvX/nVaQ0OjjQrK/DfcG6f7z804qJPTVqutjgbN61JSEgsCoXMw8lDcVGZR3rPyCko6HzhwsP+efQeG7d2z75jDuXm9i4rKOxcVl2Y2NjZa+UuZP2ampsYuTzYqLNk6g0Pe/c9g80lw7rPH/sZHx/HxscUpScmFNClqSE9LPRwTG1Gempp6mD6HUpMTc7t0ztyTmBhf1LlTWlBC4dIqTlGt3T5608btJ9bU2OOaysZrpw2jVzYArBZrfd++vf7KyEjOCUadqnlecvEZH2TvP7Qge9+hQaxClEbuVgb+I2vuHts/+y4lNTln6JB+q1576f+CWZRW846VV7Q+ZJ/DuYVZO3fuGZFXUNidtd+cnLzeBQWl3QoKCrsaeJNlG5gkapT0vmghUSZATgsmtied/6IuVDVaLJa6mNjYioSE2OLU1MSc+OiYstT01EPR0dEVnTLSsztlpmWn0+8pyYl5iqtVSLLSqtTAAb3XkYx19Q2Nj+/Zkz10x849I3NzC3rtyz48pLCwqOvhvPwe9XX1kcTPQitfJvqf0elgsJt2yKjc5fU8Z6NyBBy7iXGnxQsjrVYZJGuEtSY2Lr4iOiamKjEhoSA5KbogPja2NDExuYBY709PTziUnpaSk56edoAZKd9qLZwf6cedPmb6/v05A/dl7x/ENHeJcH8Ru//dQx6JiQkFA/r3XhcZYdPsoupHEZDEDwIwXPyA1loSemp8MzjcBPHNbU2/+zyYVcOm897e59TNSuRbatbDKaNMTeaS8vb2oTqYnmwGU5sPuay0b2X2QcmOfmtkhJW9DH7t6By8LX9mOh9os8989zS0KhNZU9sQtT87e3BVdXViVWVVEp9lpbd1i4G9ITo6igZ4CUVsrMK8vVKZcUIDPArLXNVeBnVRkZG1VP4/veUWyvf1yOq6k/Rjn7C/unRK20+FZJ9mV1W1Paa0tDKtsLCwa25uTi82yCwsLOju/rZibTk9Pf0A2TeOxMTEwsjIyGoypnOioqIq01LjWYALXAoBZSM/N2JaQimvqE4oLCzuUl5enpqXl9eDjyzYfIaHq1NmRrb6BfUZxfQpNJnNjSmJMaXtBXZWFnepYx9cHYQADBeRFc1PjtJwNXUtPg2km0YuWk0HrruveXMPNX/WOjyQ8ilvSq+Nd1Npfc1XCGhfWWtoWUjazgkoqzJs0y5zGcEFAu2KQGwMdxtin2y0YX2rLiE+ppxyYB92LdI3N0gHgcATgOEikDlbcWEj2pab5fgot4WPAPvVPYSgts358rIHXyhVXES4mwi5v6orMe7yWVRNPk+r6NCEwI+1GslEqx5sRodN/8qSeJhXxYdKdiWT83PfDMN+5t8pbm5+uEErxoM2k0mpKx8NF1FrTL4ZiQKbKkSBAAiAAAiAAAiAQLsjoG3U1+6Kq6/C3NvLxyFwS438HI37kOtRb2UrGD61CbrZ46qHp2OzBNM3kWuBNjcxxczitlbwLp94B09N5AwCIAACIAACIAACwSWAFReB/Gn0S3HuJeabrUbAkfe/yWsR7OM+QHb/jg3+2YY42hcnsTrxdTBLKZmII7Y7eiid4hHftLjCE/KURoedcvaxTbDy8r3BFK9dMrFjB7nR0qyknowl2hnM96g4WX7qDh+vy01Gi9VsMpHrgRQny+F6e0jvySaRo6HwfEnn1oyv1poG7XWmJBIdFmZk+zdYBBOWiRot6Gjua0xPbhyyiiY5ZtqwKsD4EtiIIQoEQAAEQAAEQAAEQAAEQAAEQAAEQAAEQAAEQAAEQAAEQAAEQAAEQAAEQAAEQAAEQAAEQAAEQAAEQAAEQAAEQAAEQAAEQAAEQAAEQAAEQAAEQAAEQAAEQAAEQAAEQAAEQAAEQAAEQAAEQAAEQAAEQAAEQAAEQAAEQAAEQAAEQAAEQAAEQAAEQAAEQAAEQAAEQAAEQAAEQAAEQAAEQAAEQAAEQAAEQAAEQAAEQAAEQAAEQAAEQAAEQAAEQAAEQAAEQAAEQAAEQAAEQAAEQAAEQAAEQAAEQAAEQAAEQAAEQAAEQAAEQAAEQAAEQAAEQAAEQAAEQAAEQAAEQAAEQAAEQAAEQAAEQAAEQAAEQAAEQAAEQAAEQAAEQAAEQAAEQAAEQAAEQAAEQAAEQAAEQAAEQAAEQAAEQAAEQAAEQAAEQAAEQAAEQAAEQAAEQAAEQAAEQAAEQAAEQAAEQAAEQAAEQAAEQAAEQAAEQAAEQAAEQAAEQAAEQAAEQAAEQAAEQAAEQAAEQAAEQAAEQAAEQAAEQAAEQAAEQAAEQAAEQAAEQAAEQAAEQAAEQAAEQAAEQAAEQAAEQAAEQAAEQAAEQAAEQAAEQAAEQAAEQAAEQAAEQAAEQAAEQAAEQAAEQAAEQAAEQAAEQAAEQAAEQAAEQAAEQAAEQAAEQAAEQAAEQAAEQAAEQAAEQAAEQAAEQAAEQAAEQAAEQAAEQAAEQAAEQAAEQAAEQAAEQAAEQAAEQAAEQAAEQAAEQAAEQAAEQAAEQAAEQAAEQAAEQAAEQAAEQAAEQAAEQAAEQAAEQAAEQAAEQAAEQAAEQAAEQAAEQAAEQAAEQAAEQAAEQAAEQAAEQAAEQAAEQAAEQAAEQAAEQAAEQAAEQAAEQAAEQAAEQAAEQAAEQAAEQAAEQAAEQAAEQAAEQAAEQAAEQAAEQAAEQAAEQAAEQAAEQAAEQAAEQAAEQAAEQAAEQAAEQAAEQAAEQAAEQAAEQAAEQAAEQAAEQAAEQAAEQAAEQAAEQAAEQAAEQAAEQAAEQAAEQAAEQAAEQAAEQAAEQAAEQAAEQAAEQAAEQAAEQAAEQAAEQAAEQAAEQAAEQAAEQAAEQAAEQAAEQAAEQAAEQAAEQAAEQAAEQAAEQAAEQAAEQAAEQAAEQAAEQAAEQAAEQAAEQAAEQAAEQAAEQAAEQAAEQAAEQAAEQAAEQAAEQAAEQAAEQAAEQAAEQAAEQAAEQAAEQAAEQAAEQAAEQAAEQAAEQAAEQAAEQAAEQAAEQAAEQAAEQAAEQAAEQAAEQAAEQAAEQAAEQAAEQAAEQAAEQAAEQAAEQAAEQAAEQAAEQAAEQAAEQAAEQAAEQAAEQAAEQAAEQAAEQAAEQAAEQAAEQAAEQAAEQAAEQAAEQAAEQAAEQAAEQAAEQAAEQAAEQAAEQAAEQAAEQAAEQAAEQAAEQAAEQAAEQAAEQAAEQAAEQAAEQAAEQAAEQAAEQAAEQAAEQAAEQAAEQAAEQAAEQAAEQAAEQAAEQAAEQAAEQAAEQAAEQAAEQAAEQAAEQAAEQAAEQAAEQAAEQAAEQAAEQAAEQAAEQAAEQAAEQAAEQAAEQAAEQAAEQAAEQAAEQAAEQAAEQAAEQAAEQAAEQAAEQAAEQAAEQAAEQAAEQAAEQAAEQAAEQAAEQAAEQAAEQAAEQAAEQAAEQAAEQAAEQAAEQAAEQAAEQAAEQAAEQAAEQAAEQAAEQAAEQAAEQAAEQAAEQAAEQAAEQAAEQAAEQAAEQAAEQAAEQAAEQAAEQAAEQAAEQAAEQAAEQAAEQAAEQAAEQAAEQAAEQAAEQAAEQAAEQAAEQAAEQAAEQAAEQAAEQAAEQAAEQAAEQAAEQAAEQAAEQAAEQAAEQAAEQAAEQAAEQAAEQAAEQAAEQAAEQAAEQAAEQAAEQAAEQAAEQAAEQAAEQAAEQAAEQAAEQAAEQAAEQAAEQAAEQAAEQAAEQAAEQAAEQAAEQAAEQAAEQAAEQAAEQAAEQAAEQAAEQAAEQAAEQAAEQAAEQAAEQAAEQAAEQAAEQAAEQAAEQAAEQAAEQAAEQAAEQAAEQAAEQAAEQAAEQAAEQAAEQAAEQAAEQCAMCPw/NsjYdJrTBkUAAAAASUVORK5CYII=;" parent="4rNJ4vwEb-hpk1fD-wyn-2" vertex="1">
          <mxGeometry x="75" y="414.5" width="259.36" height="97.5" as="geometry" />
        </mxCell>
        <mxCell id="acgDZ-SoyNHMQ0wOxpw4-34" value="" style="endArrow=classic;html=1;rounded=0;entryX=0.492;entryY=0.094;entryDx=0;entryDy=0;entryPerimeter=0;strokeWidth=8;" parent="4rNJ4vwEb-hpk1fD-wyn-2" edge="1">
          <mxGeometry width="50" height="50" relative="1" as="geometry">
            <mxPoint x="179.17000000000007" y="512" as="sourcePoint" />
            <mxPoint x="179.17000000000007" y="607" as="targetPoint" />
          </mxGeometry>
        </mxCell>
        <mxCell id="acgDZ-SoyNHMQ0wOxpw4-44" value="" style="endArrow=classic;html=1;rounded=0;entryX=0.492;entryY=0.094;entryDx=0;entryDy=0;entryPerimeter=0;strokeWidth=8;" parent="4rNJ4vwEb-hpk1fD-wyn-2" edge="1">
          <mxGeometry width="50" height="50" relative="1" as="geometry">
            <mxPoint x="179.17000000000007" y="319.5" as="sourcePoint" />
            <mxPoint x="179.17000000000007" y="414.5" as="targetPoint" />
          </mxGeometry>
        </mxCell>
        <mxCell id="acgDZ-SoyNHMQ0wOxpw4-45" value="" style="shape=image;verticalLabelPosition=bottom;labelBackgroundColor=#ffffff;verticalAlign=top;aspect=fixed;imageAspect=0;image=data:image/svg+xml,PHN2ZyB4bWxuczpjYz0iaHR0cDovL2NyZWF0aXZlY29tbW9ucy5vcmcvbnMjIiB4bWxuczpkYz0iaHR0cDovL3B1cmwub3JnL2RjL2VsZW1lbnRzLzEuMS8iIHhtbG5zOmlua3NjYXBlPSJodHRwOi8vd3d3Lmlua3NjYXBlLm9yZy9uYW1lc3BhY2VzL2lua3NjYXBlIiB4bWxuczpyZGY9Imh0dHA6Ly93d3cudzMub3JnLzE5OTkvMDIvMjItcmRmLXN5bnRheC1ucyMiIHhtbG5zOnNvZGlwb2RpPSJodHRwOi8vc29kaXBvZGkuc291cmNlZm9yZ2UubmV0L0RURC9zb2RpcG9kaS0wLmR0ZCIgeG1sbnM6c3ZnPSJodHRwOi8vd3d3LnczLm9yZy8yMDAwL3N2ZyIgeG1sbnM9Imh0dHA6Ly93d3cudzMub3JnLzIwMDAvc3ZnIiB4bWxuczp4bGluaz0iaHR0cDovL3d3dy53My5vcmcvMTk5OS94bGluayIgdmVyc2lvbj0iMS4xIiBpZD0ic3ZnMTc1NjcxIiBpbmtzY2FwZTp2ZXJzaW9uPSIwLjkyLjMgKDI0MDU1NDYsIDIwMTgtMDMtMTEpIiBzb2RpcG9kaTpkb2NuYW1lPSJnaXRodWIuc3ZnIiB4PSIwcHgiIHk9IjBweCIgdmlld0JveD0iMCAwIDQ1LjI3IDQ1LjI5IiBzdHlsZT0iZW5hYmxlLWJhY2tncm91bmQ6bmV3IDAgMCA0NS4yNyA0NS4yOTsiIHhtbDpzcGFjZT0icHJlc2VydmUiPiYjeGE7PHNvZGlwb2RpOm5hbWVkdmlldyBib3JkZXJjb2xvcj0iIzY2NjY2NiIgYm9yZGVyb3BhY2l0eT0iMSIgZml0LW1hcmdpbi1ib3R0b209IjAiIGZpdC1tYXJnaW4tbGVmdD0iMCIgZml0LW1hcmdpbi1yaWdodD0iMCIgZml0LW1hcmdpbi10b3A9IjAiIGdyaWR0b2xlcmFuY2U9IjEwIiBndWlkZXRvbGVyYW5jZT0iMTAiIGlkPSJuYW1lZHZpZXcxNzU2NzMiIGlua3NjYXBlOmN1cnJlbnQtbGF5ZXI9InN2ZzE3NTY3MSIgaW5rc2NhcGU6Y3g9IjMwLjE3ODAyNSIgaW5rc2NhcGU6Y3k9IjMwLjE5NDMxOSIgaW5rc2NhcGU6cGFnZW9wYWNpdHk9IjAiIGlua3NjYXBlOnBhZ2VzaGFkb3c9IjIiIGlua3NjYXBlOndpbmRvdy1oZWlnaHQ9IjEwMTciIGlua3NjYXBlOndpbmRvdy1tYXhpbWl6ZWQ9IjEiIGlua3NjYXBlOndpbmRvdy13aWR0aD0iMTkyMCIgaW5rc2NhcGU6d2luZG93LXg9Ii04IiBpbmtzY2FwZTp3aW5kb3cteT0iLTgiIGlua3NjYXBlOnpvb209IjEwLjA5NTE1OCIgb2JqZWN0dG9sZXJhbmNlPSIxMCIgcGFnZWNvbG9yPSIjZmZmZmZmIiBzaG93Z3JpZD0iZmFsc2UiPiYjeGE7CTwvc29kaXBvZGk6bmFtZWR2aWV3PiYjeGE7PGcgaWQ9ImcxNzU2NjkiIHRyYW5zZm9ybT0idHJhbnNsYXRlKC05LjU2MjU0MTcsLTkuNTYxMzEpIj4mI3hhOwk8dGl0bGUgaWQ9InRpdGxlMTc1NjU5Ij5QYWdlLTE8L3RpdGxlPiYjeGE7CTxnIGlkPSJncm91cDIyNTAtMSIgdHJhbnNmb3JtPSJ0cmFuc2xhdGUoOS41NjMwOCwtOS4zNzg2OSkiPiYjeGE7CQk8dGl0bGUgaWQ9InRpdGxlMTc1NjYxIj5HaXRIdWI8L3RpdGxlPiYjeGE7CQk8ZyBpZD0ic2hhcGUyMjUxLTIiPiYjeGE7CQkJPHRpdGxlIGlkPSJ0aXRsZTE3NTY2MyI+U2hlZXQuMjI1MTwvdGl0bGU+JiN4YTsJCQk8cGF0aCBpZD0icGF0aDE3NTY2NSIgaW5rc2NhcGU6Y29ubmVjdG9yLWN1cnZhdHVyZT0iMCIgZD0iTTIyLjYzLDE4Ljk0QzEwLjE0LDE4Ljk0LDAsMjkuMzMsMCw0Mi4xNSAgICAgYy0wLjA3LDkuODksNi4xNSwxOC43MywxNS40OCwyMi4wMWMxLjEzLDAuMjIsMS41NC0wLjUsMS41NC0xLjExYzAtMC42MiwwLTIuMDEsMC0zLjk1Yy02LjI5LDEuNDEtNy42Mi0zLjExLTcuNjItMy4xMSAgICAgYy0xLjAzLTIuNjgtMi41MS0zLjQtMi41MS0zLjRjLTIuMDYtMS40MSwwLjE1LTEuNDEsMC4xNS0xLjQxYzIuMjcsMC4xNiwzLjQ3LDIuMzksMy40NywyLjM5YzIuMDIsMy41NCw1LjMsMi41Miw2LjU4LDEuOTMgICAgIGMwLjEtMS4xNywwLjYtMi4yNiwxLjQyLTMuMUMxMy40OCw1MS44MSw4LjIsNDkuODIsOC4yLDQwLjkyYy0wLjA0LTIuMjksMC43OS00LjUxLDIuMzItNi4yMmMtMC42OS0yLTAuNjEtNC4xOSwwLjIyLTYuMTQgICAgIGMwLDAsMS45MS0wLjYyLDYuMjMsMi40YzMuNy0xLjA0LDcuNjItMS4wNCwxMS4zMiwwYzQuMzItMyw2LjIyLTIuMzcsNi4yMi0yLjM3YzAuODMsMS45NSwwLjkxLDQuMTQsMC4yMiw2LjE0ICAgICBjMS41MywxLjcsMi4zNywzLjkzLDIuMzMsNi4yMmMwLDguOTEtNS4yOSwxMC44OC0xMC4zMywxMS40NWMwLjgxLDAuNzEsMS41MywyLjEyLDEuNTMsNC4zYzAsMy4xMSwwLDUuNjEsMCw2LjM3ICAgICBjMCwwLjYyLDAuNDEsMS4zNCwxLjU2LDEuMTJjOS4zMy0zLjMsMTUuNTMtMTIuMTUsMTUuNDUtMjIuMDRDNDUuMjcsMjkuMzMsMzUuMTMsMTguOTQsMjIuNjMsMTguOTR6Ii8+JiN4YTsJCTwvZz4mI3hhOwk8L2c+JiN4YTs8L2c+JiN4YTs8L3N2Zz4=;" parent="4rNJ4vwEb-hpk1fD-wyn-2" vertex="1">
          <mxGeometry x="140" y="222.5" width="80" height="80" as="geometry" />
        </mxCell>
        <mxCell id="acgDZ-SoyNHMQ0wOxpw4-50" value="&lt;font style=&quot;font-size: 30px;&quot;&gt;Backend&lt;/font&gt;" style="text;html=1;strokeColor=none;fillColor=none;align=center;verticalAlign=middle;whiteSpace=wrap;rounded=0;" parent="4rNJ4vwEb-hpk1fD-wyn-2" vertex="1">
          <mxGeometry x="102.68000000000006" y="10" width="154.63" height="70" as="geometry" />
        </mxCell>
        <mxCell id="4rNJ4vwEb-hpk1fD-wyn-28" value="" style="group" vertex="1" connectable="0" parent="4rNJ4vwEb-hpk1fD-wyn-2">
          <mxGeometry x="35" y="612" width="290" height="210" as="geometry" />
        </mxCell>
        <mxCell id="acgDZ-SoyNHMQ0wOxpw4-35" value="" style="rounded=0;whiteSpace=wrap;html=1;" parent="4rNJ4vwEb-hpk1fD-wyn-28" vertex="1">
          <mxGeometry width="290" height="210" as="geometry" />
        </mxCell>
        <mxCell id="acgDZ-SoyNHMQ0wOxpw4-36" value="&lt;font style=&quot;font-size: 26px;&quot;&gt;Express, Typescript&lt;br&gt;&lt;/font&gt;" style="text;html=1;strokeColor=none;fillColor=none;align=center;verticalAlign=middle;whiteSpace=wrap;rounded=0;" parent="4rNJ4vwEb-hpk1fD-wyn-28" vertex="1">
          <mxGeometry x="12.5" y="138" width="265" height="48" as="geometry" />
        </mxCell>
        <mxCell id="4rNJ4vwEb-hpk1fD-wyn-26" value="" style="shape=image;verticalLabelPosition=bottom;labelBackgroundColor=#ffffff;verticalAlign=top;aspect=fixed;imageAspect=0;image=data:image/svg+xml,PHN2ZyB4bWxuczpjYz0iaHR0cDovL2NyZWF0aXZlY29tbW9ucy5vcmcvbnMjIiB4bWxuczpkYz0iaHR0cDovL3B1cmwub3JnL2RjL2VsZW1lbnRzLzEuMS8iIHhtbG5zOmlua3NjYXBlPSJodHRwOi8vd3d3Lmlua3NjYXBlLm9yZy9uYW1lc3BhY2VzL2lua3NjYXBlIiB4bWxuczpyZGY9Imh0dHA6Ly93d3cudzMub3JnLzE5OTkvMDIvMjItcmRmLXN5bnRheC1ucyMiIHhtbG5zOnNvZGlwb2RpPSJodHRwOi8vc29kaXBvZGkuc291cmNlZm9yZ2UubmV0L0RURC9zb2RpcG9kaS0wLmR0ZCIgeG1sbnM6c3ZnPSJodHRwOi8vd3d3LnczLm9yZy8yMDAwL3N2ZyIgeG1sbnM9Imh0dHA6Ly93d3cudzMub3JnLzIwMDAvc3ZnIiB4bWxuczp4bGluaz0iaHR0cDovL3d3dy53My5vcmcvMTk5OS94bGluayIgdmVyc2lvbj0iMS4xIiBpZD0ic3ZnMTg1NTk3IiBpbmtzY2FwZTp2ZXJzaW9uPSIwLjkyLjMgKDI0MDU1NDYsIDIwMTgtMDMtMTEpIiBzb2RpcG9kaTpkb2NuYW1lPSJub2RlanNfc2RrLnN2ZyIgeD0iMHB4IiB5PSIwcHgiIHZpZXdCb3g9IjAgMCA5MC40MyA1NS4zOCIgc3R5bGU9ImVuYWJsZS1iYWNrZ3JvdW5kOm5ldyAwIDAgOTAuNDMgNTUuMzg7IiB4bWw6c3BhY2U9InByZXNlcnZlIj4mI3hhOzxzb2RpcG9kaTpuYW1lZHZpZXcgYm9yZGVyY29sb3I9IiM2NjY2NjYiIGJvcmRlcm9wYWNpdHk9IjEiIGZpdC1tYXJnaW4tYm90dG9tPSIwIiBmaXQtbWFyZ2luLWxlZnQ9IjAiIGZpdC1tYXJnaW4tcmlnaHQ9IjAiIGZpdC1tYXJnaW4tdG9wPSIwIiBncmlkdG9sZXJhbmNlPSIxMCIgZ3VpZGV0b2xlcmFuY2U9IjEwIiBpZD0ibmFtZWR2aWV3MTg1NTk5IiBpbmtzY2FwZTpjdXJyZW50LWxheWVyPSJzdmcxODU1OTciIGlua3NjYXBlOmN4PSI2MC4yODMzNTkiIGlua3NjYXBlOmN5PSIzNi45MTk2ODQiIGlua3NjYXBlOnBhZ2VvcGFjaXR5PSIwIiBpbmtzY2FwZTpwYWdlc2hhZG93PSIyIiBpbmtzY2FwZTp3aW5kb3ctaGVpZ2h0PSIxMDE3IiBpbmtzY2FwZTp3aW5kb3ctbWF4aW1pemVkPSIxIiBpbmtzY2FwZTp3aW5kb3ctd2lkdGg9IjE5MjAiIGlua3NjYXBlOndpbmRvdy14PSItOCIgaW5rc2NhcGU6d2luZG93LXk9Ii04IiBpbmtzY2FwZTp6b29tPSI5LjE5OTg0NjIiIG9iamVjdHRvbGVyYW5jZT0iMTAiIHBhZ2Vjb2xvcj0iI2ZmZmZmZiIgc2hvd2dyaWQ9ImZhbHNlIj4mI3hhOwk8L3NvZGlwb2RpOm5hbWVkdmlldz4mI3hhOzxnIGlkPSJnMTg1NTk1IiB0cmFuc2Zvcm09InRyYW5zbGF0ZSgtNy42NTAyMzc3LC03LjY0NzUwMDYpIj4mI3hhOwk8dGl0bGUgaWQ9InRpdGxlMTg1NTIwIj5QYWdlLTE8L3RpdGxlPiYjeGE7CTxnIGlkPSJncm91cDEyOTQtMSIgdHJhbnNmb3JtPSJ0cmFuc2xhdGUoNy42NSwtNy42NSkiPiYjeGE7CQk8dGl0bGUgaWQ9InRpdGxlMTg1NTIyIj5Ob2RlLmpzIFNESzwvdGl0bGU+JiN4YTsJCTxnIGlkPSJncm91cDEyOTUtMiIgdHJhbnNmb3JtPSJ0cmFuc2xhdGUoMzQuODEyNikiPiYjeGE7CQkJPHRpdGxlIGlkPSJ0aXRsZTE4NTUyNCI+U2hlZXQuMTI5NTwvdGl0bGU+JiN4YTsJCQk8ZyBpZD0ic2hhcGUxMjk2LTMiPiYjeGE7CQkJCTx0aXRsZSBpZD0idGl0bGUxODU1MjYiPlNoZWV0LjEyOTY8L3RpdGxlPiYjeGE7CQkJCTxwYXRoIGlkPSJwYXRoMTg1NTI4IiBpbmtzY2FwZTpjb25uZWN0b3ItY3VydmF0dXJlPSIwIiBzdHlsZT0iZmlsbDojNjk5RjYzOyIgZD0iTTkuODgsNzAuNjhjLTAuMywwLTAuNTktMC4wOC0wLjg2LTAuMjMgICAgICBMNi4zLDY4Ljg0Yy0wLjQxLTAuMjMtMC4yMS0wLjMxLTAuMDgtMC4zNmMwLjU1LTAuMTksMC42Ni0wLjIzLDEuMjQtMC41NmMwLjA2LTAuMDMsMC4xNC0wLjAyLDAuMiwwLjAybDIuMDksMS4yNCAgICAgIGMwLjA4LDAuMDQsMC4xOSwwLjA0LDAuMjYsMGw4LjE2LTQuNzFjMC4wOC0wLjA0LDAuMTMtMC4xMywwLjEzLTAuMjJ2LTkuNDNjMC0wLjA5LTAuMDUtMC4xOC0wLjEzLTAuMjJsLTguMTYtNC43MSAgICAgIGMtMC4wOC0wLjA1LTAuMTgtMC4wNS0wLjI1LDBMMS42LDU0LjZjLTAuMDgsMC4wNC0wLjEzLDAuMTMtMC4xMywwLjIydjkuNDNjMCwwLjA5LDAuMDUsMC4xNywwLjEyLDAuMjJsMi4yNCwxLjI5ICAgICAgYzEuMjIsMC42LDEuOTYtMC4xMSwxLjk2LTAuODN2LTkuM2MwLTAuMTMsMC4xLTAuMjQsMC4yNC0wLjI0aDEuMDNjMC4xMywwLDAuMjQsMC4xMSwwLjI0LDAuMjR2OS4zYzAsMS42Mi0wLjg4LDIuNTUtMi40MiwyLjU1ICAgICAgYy0wLjQ3LDAtMC44NCwwLTEuODgtMC41MWwtMi4xNC0xLjIzQzAuMzMsNjUuNDMsMCw2NC44NiwwLDY0LjI1di05LjQzYzAtMC42MSwwLjMzLTEuMTgsMC44Ni0xLjQ5bDguMTYtNC43MiAgICAgIGMwLjUyLTAuMjksMS4yMS0wLjI5LDEuNzIsMGw4LjE2LDQuNzJjMC41MywwLjMxLDAuODYsMC44OCwwLjg2LDEuNDl2OS40M2MwLDAuNjEtMC4zMywxLjE4LTAuODYsMS40OWwtOC4xNiw0LjcxICAgICAgQzEwLjQ4LDcwLjYsMTAuMTgsNzAuNjgsOS44OCw3MC42OHoiLz4mI3hhOwkJCTwvZz4mI3hhOwkJCTxnIGlkPSJzaGFwZTEyOTctNSIgdHJhbnNmb3JtPSJ0cmFuc2xhdGUoOC4wODE3NSwtNi40OTI1MykiPiYjeGE7CQkJCTx0aXRsZSBpZD0idGl0bGUxODU1MzEiPlNoZWV0LjEyOTc8L3RpdGxlPiYjeGE7CQkJCTxwYXRoIGlkPSJwYXRoMTg1NTMzIiBpbmtzY2FwZTpjb25uZWN0b3ItY3VydmF0dXJlPSIwIiBzdHlsZT0iZmlsbDojNjk5RjYzOyIgZD0iTTQuMzIsNzAuNjhDMC43NSw3MC42OCwwLDY5LjA0LDAsNjcuNjYgICAgICBjMC0wLjEzLDAuMTEtMC4yMywwLjI0LTAuMjNoMS4wNWMwLjEyLDAsMC4yMiwwLjA4LDAuMjQsMC4yYzAuMTYsMS4wNywwLjYzLDEuNjIsMi43OSwxLjYyYzEuNzIsMCwyLjQ2LTAuMzksMi40Ni0xLjMgICAgICBjMC0wLjUzLTAuMjEtMC45Mi0yLjg5LTEuMThjLTIuMjMtMC4yMy0zLjYxLTAuNzItMy42MS0yLjUxYzAtMS42NCwxLjM5LTIuNjMsMy43Mi0yLjYzYzIuNjEsMCwzLjkxLDAuOTEsNC4wNywyLjg2ICAgICAgYzAuMDEsMC4wNy0wLjAyLDAuMTMtMC4wNiwwLjE4Yy0wLjA1LDAuMDUtMC4xMSwwLjA4LTAuMTcsMC4wOEg2Ljc4Yy0wLjExLDAtMC4yMS0wLjA4LTAuMjMtMC4xOSAgICAgIEM2LjI5LDYzLjQzLDUuNjcsNjMuMDcsNCw2My4wN2MtMS44OCwwLTIuMSwwLjY2LTIuMSwxLjE1YzAsMC41OSwwLjI2LDAuNzYsMi43OSwxLjFjMi41MSwwLjMzLDMuNywwLjgsMy43LDIuNTYgICAgICBDOC4zOSw2OS42Niw2LjkxLDcwLjY4LDQuMzIsNzAuNjh6Ii8+JiN4YTsJCQk8L2c+JiN4YTsJCTwvZz4mI3hhOwkJPGcgaWQ9InNoYXBlMTI5OC03IiB0cmFuc2Zvcm09InRyYW5zbGF0ZSg1NS44NDQzLC0xNC44MDI2KSI+JiN4YTsJCQk8dGl0bGUgaWQ9InRpdGxlMTg1NTM3Ij5TaGVldC4xMjk4PC90aXRsZT4mI3hhOwkJCTxwYXRoIGlkPSJwYXRoMTg1NTM5IiBpbmtzY2FwZTpjb25uZWN0b3ItY3VydmF0dXJlPSIwIiBzdHlsZT0iZmlsbDojNjk5RjYzOyIgZD0iTTMuMTUsNjkuMTFjMCwwLjg2LTAuNzEsMS41Ny0xLjU4LDEuNTcgICAgIGMtMC44NSwwLTEuNTctMC43LTEuNTctMS41N2MwLTAuODksMC43My0xLjU4LDEuNTctMS41OEMyLjQyLDY3LjUzLDMuMTUsNjguMjIsMy4xNSw2OS4xMXogTTAuMjUsNjkuMSAgICAgYzAsMC43NCwwLjU5LDEuMzMsMS4zMiwxLjMzczEuMzItMC42MSwxLjMyLTEuMzNjMC0wLjczLTAuNi0xLjMxLTEuMzItMS4zMVMwLjI1LDY4LjM2LDAuMjUsNjkuMXogTTAuOTgsNjguMjJoMC42MSAgICAgYzAuMjEsMCwwLjYyLDAsMC42MiwwLjQ3YzAsMC4zMy0wLjIxLDAuMzktMC4zNCwwLjQzYzAuMjQsMC4wMiwwLjI2LDAuMTgsMC4yOSwwLjRjMC4wMiwwLjE1LDAuMDUsMC4zOSwwLjEsMC40N0gxLjg4ICAgICBjLTAuMDEtMC4wOC0wLjA2LTAuNTMtMC4wNi0wLjU2Yy0wLjAzLTAuMS0wLjA2LTAuMTUtMC4xOS0wLjE1SDEuMzJ2MC43MUgwLjk4VjY4LjIyeiBNMS4zMiw2OWgwLjI3YzAuMjMsMCwwLjI3LTAuMTYsMC4yNy0wLjI1ICAgICBjMC0wLjI0LTAuMTctMC4yNC0wLjI2LTAuMjRIMS4zMlY2OXoiLz4mI3hhOwkJPC9nPiYjeGE7CQk8ZyBpZD0ic2hhcGUxMjk5LTkiIHRyYW5zZm9ybT0idHJhbnNsYXRlKDAsLTIyLjkwNTgpIj4mI3hhOwkJCTx0aXRsZSBpZD0idGl0bGUxODU1NDIiPlNoZWV0LjEyOTk8L3RpdGxlPiYjeGE7CQkJPHBhdGggaWQ9InBhdGgxODU1NDQiIGlua3NjYXBlOmNvbm5lY3Rvci1jdXJ2YXR1cmU9IjAiIHN0eWxlPSJmaWxsOiMzRjU3NjU7IiBkPSJNMTkuNDEsNTYuNzJjMC0wLjM4LTAuMi0wLjczLTAuNTMtMC45MSAgICAgbC04LjY2LTQuOTljLTAuMTQtMC4wOC0wLjMxLTAuMTMtMC40Ny0wLjEzYy0wLjAyLDAtMC4wOCwwLTAuMDksMGMtMC4xNywwLTAuMzMsMC4wNS0wLjQ4LDAuMTNsLTguNjYsNC45OSAgICAgQzAuMiw1NS45OSwwLDU2LjM0LDAsNTYuNzJsMC4wMiwxMy40MWMwLDAuMTksMC4xLDAuMzYsMC4yNiwwLjQ1YzAuMTYsMC4xLDAuMzYsMC4xLDAuNTIsMGw1LjE0LTIuOTQgICAgIGMwLjMzLTAuMiwwLjUzLTAuNTQsMC41My0wLjkxdi02LjI3YzAtMC4zNywwLjItMC43MiwwLjUyLTAuOWwyLjE5LTEuMjdjMC4xNi0wLjA5LDAuMzQtMC4xNCwwLjUyLTAuMTQgICAgIGMwLjE4LDAsMC4zNywwLjA1LDAuNTIsMC4xNGwyLjIsMS4yN2MwLjMyLDAuMTgsMC41MiwwLjUzLDAuNTIsMC45djYuMjdjMCwwLjM3LDAuMiwwLjcyLDAuNTIsMC45MWw1LjE1LDIuOTQgICAgIGMwLjE2LDAuMSwwLjM2LDAuMSwwLjUyLDBjMC4xNi0wLjA5LDAuMjYtMC4yNiwwLjI2LTAuNDVMMTkuNDEsNTYuNzJ6Ii8+JiN4YTsJCTwvZz4mI3hhOwkJPGcgaWQ9InNoYXBlMTMwMC0xMSIgdHJhbnNmb3JtPSJ0cmFuc2xhdGUoNDcuMzM5OCwtMjAuNTA2MikiPiYjeGE7CQkJPHRpdGxlIGlkPSJ0aXRsZTE4NTU0NyI+U2hlZXQuMTMwMDwvdGl0bGU+JiN4YTsJCQk8cGF0aCBpZD0icGF0aDE4NTU0OSIgaW5rc2NhcGU6Y29ubmVjdG9yLWN1cnZhdHVyZT0iMCIgc3R5bGU9ImZpbGw6IzNGNTc2NTsiIGQ9Ik0xMy43MiwzNS44N2MtMC4xNi0wLjA5LTAuMzYtMC4wOS0wLjUyLDAuMDEgICAgIGMtMC4xNiwwLjA5LTAuMjUsMC4yNi0wLjI1LDAuNDV2MTMuMjljMCwwLjEzLTAuMDcsMC4yNS0wLjE5LDAuMzFjLTAuMTEsMC4wNy0wLjI1LDAuMDctMC4zNiwwbC0yLjE3LTEuMjUgICAgIGMtMC4zMi0wLjE4LTAuNzItMC4xOC0xLjA1LDBsLTguNjYsNUMwLjIsNTMuODcsMCw1NC4yMSwwLDU0LjU5djEwYzAsMC4zNywwLjIsMC43MSwwLjUyLDAuOWw4LjY2LDVjMC4zMywwLjE5LDAuNzMsMC4xOSwxLjA1LDAgICAgIGw4LjY2LTVjMC4zMy0wLjE5LDAuNTMtMC41MywwLjUzLTAuOVYzOS42NmMwLTAuMzgtMC4yMS0wLjczLTAuNTQtMC45MUwxMy43MiwzNS44N3ogTTEyLjkyLDYxLjNjMCwwLjA5LTAuMDUsMC4xOC0wLjEzLDAuMjMgICAgIGwtMi45NywxLjcxYy0wLjA4LDAuMDUtMC4xOSwwLjA1LTAuMjcsMGwtMi45Ny0xLjcxYy0wLjA4LTAuMDUtMC4xMy0wLjE0LTAuMTMtMC4yM3YtMy40M2MwLTAuMSwwLjA1LTAuMTgsMC4xMy0wLjIzbDIuOTctMS43MiAgICAgYzAuMDgtMC4wNCwwLjE4LTAuMDQsMC4yNywwbDIuOTcsMS43MmMwLjA4LDAuMDUsMC4xMywwLjEzLDAuMTMsMC4yM0wxMi45Miw2MS4zeiIvPiYjeGE7CQk8L2c+JiN4YTsJCTxnIGlkPSJncm91cDEzMDEtMTMiIHRyYW5zZm9ybT0idHJhbnNsYXRlKDcxLjA2OTcsLTIwLjc0MjQpIj4mI3hhOwkJCTx0aXRsZSBpZD0idGl0bGUxODU1NTIiPlNoZWV0LjEzMDE8L3RpdGxlPiYjeGE7CQkJPGcgaWQ9InNoYXBlMTMwMi0xNCI+JiN4YTsJCQkJPHRpdGxlIGlkPSJ0aXRsZTE4NTU1NCI+U2hlZXQuMTMwMjwvdGl0bGU+JiN4YTsJCQkJPHBhdGggaWQ9InBhdGgxODU1NTYiIGlua3NjYXBlOmNvbm5lY3Rvci1jdXJ2YXR1cmU9IjAiIHN0eWxlPSJmaWxsOiMzRjU3NjU7IiBkPSJNMTguODQsNTguMDFjMC4zMi0wLjE4LDAuNTItMC41MywwLjUyLTAuOSAgICAgIHYtMi40MmMwLTAuMzgtMC4yLTAuNzItMC41My0wLjkxbC04LjYtNC45OWMtMC4zMi0wLjE5LTAuNzItMC4xOS0xLjA1LDBsLTguNjYsNC45OUMwLjIsNTMuOTcsMCw1NC4zMiwwLDU0LjY5djEwICAgICAgYzAsMC4zNywwLjIsMC43MiwwLjUzLDAuOWw4LjYsNC45MWMwLjMyLDAuMTgsMC43MSwwLjE4LDEuMDMsMGw1LjItMi44OWMwLjE3LTAuMDksMC4yNy0wLjI3LDAuMjctMC40NSAgICAgIGMwLTAuMTktMC4xLTAuMzctMC4yNi0wLjQ2bC04LjcxLTVjLTAuMTctMC4xLTAuMjctMC4yNy0wLjI3LTAuNDZ2LTMuMTNjMC0wLjE5LDAuMS0wLjM2LDAuMjctMC40NWwyLjcxLTEuNTcgICAgICBjMC4xNi0wLjA5LDAuMzYtMC4wOSwwLjUyLDBsMi43MSwxLjU3YzAuMTYsMC4wOSwwLjI3LDAuMjYsMC4yNywwLjQ1djIuNDdjMCwwLjE4LDAuMSwwLjM2LDAuMjYsMC40NXMwLjM2LDAuMDksMC41MiwwICAgICAgTDE4Ljg0LDU4LjAxeiIvPiYjeGE7CQkJPC9nPiYjeGE7CQkJPGcgaWQ9InNoYXBlMTMwMy0xNiIgdHJhbnNmb3JtPSJ0cmFuc2xhdGUoNy44MTYxMywtOC45MTM2NikiPiYjeGE7CQkJCTx0aXRsZSBpZD0idGl0bGUxODU1NTkiPlNoZWV0LjEzMDM8L3RpdGxlPiYjeGE7CQkJCTxwYXRoIGlkPSJwYXRoMTg1NTYxIiBpbmtzY2FwZTpjb25uZWN0b3ItY3VydmF0dXJlPSIwIiBzdHlsZT0iZmlsbDojNjk5RjYzOyIgZD0iTTEuNzYsNjYuNDZjMC4wNi0wLjA0LDAuMTQtMC4wNCwwLjIsMCAgICAgIGwxLjY2LDAuOTZjMC4wNywwLjAzLDAuMSwwLjEsMC4xLDAuMTd2MS45MmMwLDAuMDctMC4wMywwLjE0LTAuMSwwLjE4bC0xLjY2LDAuOTVjLTAuMDYsMC4wNC0wLjE0LDAuMDQtMC4yLDBMMC4xLDY5LjY4ICAgICAgQzAuMDQsNjkuNjUsMCw2OS41OCwwLDY5LjUxdi0xLjkyYzAtMC4wNywwLjA0LTAuMTQsMC4xLTAuMTdMMS43Niw2Ni40NnoiLz4mI3hhOwkJCTwvZz4mI3hhOwkJPC9nPiYjeGE7CQk8ZyBpZD0iZ3JvdXAxMzA0LTE4IiB0cmFuc2Zvcm09InRyYW5zbGF0ZSgyMy43MjA4LC0yMC43MDc0KSI+JiN4YTsJCQk8dGl0bGUgaWQ9InRpdGxlMTg1NTY1Ij5TaGVldC4xMzA0PC90aXRsZT4mI3hhOwkJCTxnIGlkPSJzaGFwZTEzMDUtMTkiPiYjeGE7CQkJCTx0aXRsZSBpZD0idGl0bGUxODU1NjciPlhNTElEXzE0M188L3RpdGxlPiYjeGE7CQkJCSYjeGE7CQkJCQk8bGluZWFyR3JhZGllbnQgaWQ9InBhdGgxODU1NjlfMV8iIGdyYWRpZW50VW5pdHM9InVzZXJTcGFjZU9uVXNlIiB4MT0iLTYuMzE4NSIgeTE9IjYxLjExOTciIHgyPSIxNC4yNzMzIiB5Mj0iNjEuMTE5NyIgZ3JhZGllbnRUcmFuc2Zvcm09Im1hdHJpeCgwLjkzNzMgMCAwIC0xLjA2NjkgNS45MjIzIDEyNC44NjA1KSI+JiN4YTsJCQkJCTxzdG9wIG9mZnNldD0iMCIgc3R5bGU9InN0b3AtY29sb3I6IzQxODczRiIvPiYjeGE7CQkJCQk8c3RvcCBvZmZzZXQ9IjAuMzMiIHN0eWxlPSJzdG9wLWNvbG9yOiM0MThCM0QiLz4mI3hhOwkJCQkJPHN0b3Agb2Zmc2V0PSIwLjYzNSIgc3R5bGU9InN0b3AtY29sb3I6IzQxOTYzNyIvPiYjeGE7CQkJCQk8c3RvcCBvZmZzZXQ9IjAuOTMiIHN0eWxlPSJzdG9wLWNvbG9yOiMzRkE5MkQiLz4mI3hhOwkJCQkJPHN0b3Agb2Zmc2V0PSIxIiBzdHlsZT0ic3RvcC1jb2xvcjojM0ZBRTJBIi8+JiN4YTsJCQkJPC9saW5lYXJHcmFkaWVudD4mI3hhOwkJCQk8cGF0aCBpZD0icGF0aDE4NTU2OSIgaW5rc2NhcGU6Y29ubmVjdG9yLWN1cnZhdHVyZT0iMCIgc3R5bGU9ImZpbGw6dXJsKCNwYXRoMTg1NTY5XzFfKTsiIGQ9Ik0xMC4xNyw0OC44ICAgICAgYy0wLjMyLTAuMTgtMC43MS0wLjE4LTEuMDQsMGwtOC42MSw0Ljk3QzAuMiw1My45NiwwLDU0LjMsMCw1NC42N3Y5Ljk1YzAsMC4zNywwLjIsMC43MSwwLjUyLDAuOWw4LjYxLDQuOTggICAgICBjMC4zMywwLjE4LDAuNzIsMC4xOCwxLjA0LDBsOC42MS00Ljk4YzAuMzMtMC4xOSwwLjUyLTAuNTMsMC41Mi0wLjl2LTkuOTVjMC0wLjM3LTAuMTktMC43MS0wLjUyLTAuOUwxMC4xNyw0OC44eiIvPiYjeGE7CQkJPC9nPiYjeGE7CQkJPGcgaWQ9Imdyb3VwMTMwNi0yMyIgdHJhbnNmb3JtPSJ0cmFuc2xhdGUoMC4wMTU4MjQ0LC0wLjAxMTMwMzEpIj4mI3hhOwkJCQk8dGl0bGUgaWQ9InRpdGxlMTg1NTcyIj5TaGVldC4xMzA2PC90aXRsZT4mI3hhOwkJCQk8ZyBpZD0ic2hhcGUxMzA3LTI0IiB0cmFuc2Zvcm09InRyYW5zbGF0ZSgwLC01LjM4NzA4KSI+JiN4YTsJCQkJCTx0aXRsZSBpZD0idGl0bGUxODU1NzQiPlNoZWV0LjEzMDc8L3RpdGxlPiYjeGE7CQkJCQk8cGF0aCBpZD0icGF0aDE4NTU3NiIgaW5rc2NhcGU6Y29ubmVjdG9yLWN1cnZhdHVyZT0iMCIgc3R5bGU9ImZpbGw6bm9uZTsiIGQ9Ik05LjEsNTQuMmwtOC41OSw0Ljk3QzAuMTksNTkuMzYsMCw1OS43LDAsNjAuMDcgICAgICAgdjkuOTVjMCwwLjI0LDAuMDYsMC40OCwwLjIyLDAuNjZMOS45LDU0LjA5QzkuNjQsNTQuMDMsOS4zNCw1NC4wNiw5LjEsNTQuMnoiLz4mI3hhOwkJCQk8L2c+JiN4YTsJCQkJPGcgaWQ9InNoYXBlMTMwOC0yNiIgdHJhbnNmb3JtPSJ0cmFuc2xhdGUoOS45MjY0MiwtMC4wNzM0NzA1KSI+JiN4YTsJCQkJCTx0aXRsZSBpZD0idGl0bGUxODU1NzkiPlNoZWV0LjEzMDg8L3RpdGxlPiYjeGE7CQkJCQk8cGF0aCBpZD0icGF0aDE4NTU4MSIgaW5rc2NhcGU6Y29ubmVjdG9yLWN1cnZhdHVyZT0iMCIgc3R5bGU9ImZpbGw6bm9uZTsiIGQ9Ik0wLDcwLjY4YzAuMDgtMC4wMiwwLjE3LTAuMDYsMC4yNC0wLjEgICAgICAgbDkuMTMtNC45N2MwLjMyLTAuMTksMS4wNS0wLjUzLDEuMDUtMC45MXYtOS45NGMwLTAuMjgtMC42My0wLjUzLTAuODItMC43M0wwLDcwLjY4eiIvPiYjeGE7CQkJCTwvZz4mI3hhOwkJCQk8ZyBpZD0ic2hhcGUxMzA5LTI4IiB0cmFuc2Zvcm09InRyYW5zbGF0ZSgwLjE4MDg1KSI+JiN4YTsJCQkJCTx0aXRsZSBpZD0idGl0bGUxODU1ODQiPlNoZWV0LjEzMDk8L3RpdGxlPiYjeGE7CQkJCQkmI3hhOwkJCQkJCTxsaW5lYXJHcmFkaWVudCBpZD0icGF0aDE4NTU4Nl8xXyIgZ3JhZGllbnRVbml0cz0idXNlclNwYWNlT25Vc2UiIHgxPSItMy4zMDAzIiB5MT0iNjUuNjkwNyIgeDI9IjE3LjAzMzYiIHkyPSI2NS42OTA3IiBncmFkaWVudFRyYW5zZm9ybT0ibWF0cml4KDAuOTI2NSAwIDAgLTEuMDc5MyAzLjA1OCAxMzAuNTcyOSkiPiYjeGE7CQkJCQkJPHN0b3Agb2Zmc2V0PSIwLjE0IiBzdHlsZT0ic3RvcC1jb2xvcjojNDE4NzNGIi8+JiN4YTsJCQkJCQk8c3RvcCBvZmZzZXQ9IjAuNDA1IiBzdHlsZT0ic3RvcC1jb2xvcjojNTRBMDQ0Ii8+JiN4YTsJCQkJCQk8c3RvcCBvZmZzZXQ9IjAuNzE1IiBzdHlsZT0ic3RvcC1jb2xvcjojNjZCODQ4Ii8+JiN4YTsJCQkJCQk8c3RvcCBvZmZzZXQ9IjAuOTEiIHN0eWxlPSJzdG9wLWNvbG9yOiM2Q0MwNEEiLz4mI3hhOwkJCQkJPC9saW5lYXJHcmFkaWVudD4mI3hhOwkJCQkJPHBhdGggaWQ9InBhdGgxODU1ODYiIGlua3NjYXBlOmNvbm5lY3Rvci1jdXJ2YXR1cmU9IjAiIHN0eWxlPSJmaWxsOnVybCgjcGF0aDE4NTU4Nl8xXyk7IiBkPSJNMTguNiw1My43OGwtOC42My00Ljk3ICAgICAgIGMtMC4wOS0wLjA1LTAuMTgtMC4wOC0wLjI3LTAuMTFMMCw2NS4yOWMwLjA4LDAuMSwwLjE4LDAuMTgsMC4yOSwwLjI0bDguNjUsNC45OGMwLjI1LDAuMTQsMC41NCwwLjE3LDAuODEsMC4xbDkuMDktMTYuNjUgICAgICAgQzE4Ljc3LDUzLjg5LDE4LjY5LDUzLjgzLDE4LjYsNTMuNzh6Ii8+JiN4YTsJCQkJPC9nPiYjeGE7CQkJPC9nPiYjeGE7CQkJPGcgaWQ9Imdyb3VwMTMxMC0zMiI+JiN4YTsJCQkJPHRpdGxlIGlkPSJ0aXRsZTE4NTU5MCI+U2hlZXQuMTMxMDwvdGl0bGU+JiN4YTsJCQk8L2c+JiN4YTsJCTwvZz4mI3hhOwk8L2c+JiN4YTs8L2c+JiN4YTs8L3N2Zz4=;" vertex="1" parent="4rNJ4vwEb-hpk1fD-wyn-28">
          <mxGeometry x="50.91000000000008" y="8" width="188.18" height="115" as="geometry" />
        </mxCell>
        <mxCell id="acgDZ-SoyNHMQ0wOxpw4-3" value="" style="endArrow=classic;html=1;rounded=0;exitX=1;exitY=0.5;exitDx=0;exitDy=0;endSize=21;startSize=19;strokeWidth=7;entryX=0.04;entryY=0.5;entryDx=0;entryDy=0;entryPerimeter=0;" parent="1" source="acgDZ-SoyNHMQ0wOxpw4-48" edge="1" target="acgDZ-SoyNHMQ0wOxpw4-22">
          <mxGeometry width="50" height="50" relative="1" as="geometry">
            <mxPoint x="840" y="570" as="sourcePoint" />
            <mxPoint x="450" y="485" as="targetPoint" />
          </mxGeometry>
        </mxCell>
        <mxCell id="acgDZ-SoyNHMQ0wOxpw4-33" value="" style="endArrow=classic;html=1;rounded=0;endSize=21;startSize=19;strokeWidth=7;entryX=0;entryY=0.5;entryDx=0;entryDy=0;exitX=0.97;exitY=0.5;exitDx=0;exitDy=0;exitPerimeter=0;" parent="1" edge="1" target="acgDZ-SoyNHMQ0wOxpw4-46" source="acgDZ-SoyNHMQ0wOxpw4-30">
          <mxGeometry width="50" height="50" relative="1" as="geometry">
            <mxPoint x="1270" y="520" as="sourcePoint" />
            <mxPoint x="1170" y="485" as="targetPoint" />
          </mxGeometry>
        </mxCell>
        <mxCell id="acgDZ-SoyNHMQ0wOxpw4-38" value="" style="endArrow=classic;html=1;rounded=0;endSize=21;startSize=19;strokeWidth=7;entryX=0;entryY=0.5;entryDx=0;entryDy=0;exitX=1;exitY=0.5;exitDx=0;exitDy=0;" parent="1" edge="1" target="acgDZ-SoyNHMQ0wOxpw4-47" source="acgDZ-SoyNHMQ0wOxpw4-46">
          <mxGeometry width="50" height="50" relative="1" as="geometry">
            <mxPoint x="1810" y="458.33000000000004" as="sourcePoint" />
            <mxPoint x="1910" y="458.33000000000004" as="targetPoint" />
          </mxGeometry>
        </mxCell>
        <mxCell id="W28Hg_RXF8OLAKR3yMh1-30" value="" style="endArrow=classic;html=1;rounded=0;exitX=1;exitY=0.5;exitDx=0;exitDy=0;endSize=21;startSize=19;strokeWidth=7;entryX=0.04;entryY=0.5;entryDx=0;entryDy=0;entryPerimeter=0;" parent="1" source="W28Hg_RXF8OLAKR3yMh1-27" edge="1" target="W28Hg_RXF8OLAKR3yMh1-43">
          <mxGeometry width="50" height="50" relative="1" as="geometry">
            <mxPoint x="840" y="1720" as="sourcePoint" />
            <mxPoint x="450" y="1635" as="targetPoint" />
          </mxGeometry>
        </mxCell>
        <mxCell id="W28Hg_RXF8OLAKR3yMh1-45" value="" style="endArrow=classic;html=1;rounded=0;endSize=21;startSize=19;strokeWidth=7;entryX=0;entryY=0.5;entryDx=0;entryDy=0;exitX=0.97;exitY=0.5;exitDx=0;exitDy=0;exitPerimeter=0;" parent="1" edge="1" target="W28Hg_RXF8OLAKR3yMh1-1" source="W28Hg_RXF8OLAKR3yMh1-43">
          <mxGeometry width="50" height="50" relative="1" as="geometry">
            <mxPoint x="570" y="1635" as="sourcePoint" />
            <mxPoint x="670" y="1635" as="targetPoint" />
          </mxGeometry>
        </mxCell>
        <mxCell id="4rNJ4vwEb-hpk1fD-wyn-1" value="" style="group" vertex="1" connectable="0" parent="1">
          <mxGeometry x="1870" y="210" width="280" height="1060" as="geometry" />
        </mxCell>
        <mxCell id="acgDZ-SoyNHMQ0wOxpw4-47" value="" style="rounded=0;whiteSpace=wrap;html=1;fillColor=#d5e8d4;strokeColor=#82b366;" parent="4rNJ4vwEb-hpk1fD-wyn-1" vertex="1">
          <mxGeometry width="280" height="1060" as="geometry" />
        </mxCell>
        <mxCell id="acgDZ-SoyNHMQ0wOxpw4-37" value="" style="shape=image;verticalLabelPosition=bottom;labelBackgroundColor=#ffffff;verticalAlign=top;aspect=fixed;imageAspect=0;image=data:image/svg+xml,PHN2ZyB4bWxuczpjYz0iaHR0cDovL2NyZWF0aXZlY29tbW9ucy5vcmcvbnMjIiB4bWxuczpkYz0iaHR0cDovL3B1cmwub3JnL2RjL2VsZW1lbnRzLzEuMS8iIHhtbG5zOmlua3NjYXBlPSJodHRwOi8vd3d3Lmlua3NjYXBlLm9yZy9uYW1lc3BhY2VzL2lua3NjYXBlIiB4bWxuczpyZGY9Imh0dHA6Ly93d3cudzMub3JnLzE5OTkvMDIvMjItcmRmLXN5bnRheC1ucyMiIHhtbG5zOnNvZGlwb2RpPSJodHRwOi8vc29kaXBvZGkuc291cmNlZm9yZ2UubmV0L0RURC9zb2RpcG9kaS0wLmR0ZCIgeG1sbnM6c3ZnPSJodHRwOi8vd3d3LnczLm9yZy8yMDAwL3N2ZyIgeG1sbnM9Imh0dHA6Ly93d3cudzMub3JnLzIwMDAvc3ZnIiB4bWxuczp4bGluaz0iaHR0cDovL3d3dy53My5vcmcvMTk5OS94bGluayIgdmVyc2lvbj0iMS4xIiBpZD0ic3ZnMTAxMjg5IiBpbmtzY2FwZTp2ZXJzaW9uPSIwLjkyLjMgKDI0MDU1NDYsIDIwMTgtMDMtMTEpIiBzb2RpcG9kaTpkb2NuYW1lPSJtb25nb2RiLnN2ZyIgeD0iMHB4IiB5PSIwcHgiIHZpZXdCb3g9IjAgMCAxMDEuMjggNjQuNDYiIHN0eWxlPSJlbmFibGUtYmFja2dyb3VuZDpuZXcgMCAwIDEwMS4yOCA2NC40NjsiIHhtbDpzcGFjZT0icHJlc2VydmUiPiYjeGE7PHNvZGlwb2RpOm5hbWVkdmlldyBib3JkZXJjb2xvcj0iIzY2NjY2NiIgYm9yZGVyb3BhY2l0eT0iMSIgZml0LW1hcmdpbi1ib3R0b209IjAiIGZpdC1tYXJnaW4tbGVmdD0iMCIgZml0LW1hcmdpbi1yaWdodD0iMCIgZml0LW1hcmdpbi10b3A9IjAiIGdyaWR0b2xlcmFuY2U9IjEwIiBndWlkZXRvbGVyYW5jZT0iMTAiIGlkPSJuYW1lZHZpZXcxMDEyOTEiIGlua3NjYXBlOmN1cnJlbnQtbGF5ZXI9InN2ZzEwMTI4OSIgaW5rc2NhcGU6Y3g9IjY3LjUyMzY1MyIgaW5rc2NhcGU6Y3k9IjQzLjE3NTI0NCIgaW5rc2NhcGU6cGFnZW9wYWNpdHk9IjAiIGlua3NjYXBlOnBhZ2VzaGFkb3c9IjIiIGlua3NjYXBlOndpbmRvdy1oZWlnaHQ9IjEwMTciIGlua3NjYXBlOndpbmRvdy1tYXhpbWl6ZWQ9IjEiIGlua3NjYXBlOndpbmRvdy13aWR0aD0iMTkyMCIgaW5rc2NhcGU6d2luZG93LXg9Ii04IiBpbmtzY2FwZTp3aW5kb3cteT0iLTgiIGlua3NjYXBlOnpvb209IjkuODQ1NDgxNCIgb2JqZWN0dG9sZXJhbmNlPSIxMCIgcGFnZWNvbG9yPSIjZmZmZmZmIiBzaG93Z3JpZD0iZmFsc2UiPiYjeGE7CTwvc29kaXBvZGk6bmFtZWR2aWV3PiYjeGE7PGcgaWQ9ImcxMDEyODciIHRyYW5zZm9ybT0idHJhbnNsYXRlKC0wLjY0NTM3OTIxLC0wLjk0MzY1ODU5KSI+JiN4YTsJPHRpdGxlIGlkPSJ0aXRsZTEwMTIxNyI+UGFnZS0xPC90aXRsZT4mI3hhOwk8ZyBpZD0iZ3JvdXAzOTM5LTEiIHRyYW5zZm9ybT0idHJhbnNsYXRlKDAuNTc1NTk0LC0wLjU4MDQ2NikiPiYjeGE7CQk8dGl0bGUgaWQ9InRpdGxlMTAxMjE5Ij5Nb25nb0RCPC90aXRsZT4mI3hhOwkJPGcgaWQ9Imdyb3VwMzk0MC0yIj4mI3hhOwkJCTx0aXRsZSBpZD0idGl0bGUxMDEyMjEiPkxheWVyIDE8L3RpdGxlPiYjeGE7CQkJPGcgaWQ9Imdyb3VwMzk0MS0zIj4mI3hhOwkJCQk8dGl0bGUgaWQ9InRpdGxlMTAxMjIzIj5zdmdfMTwvdGl0bGU+JiN4YTsJCQkJPGcgaWQ9Imdyb3VwMzk0Mi00IiB0cmFuc2Zvcm09InRyYW5zbGF0ZSgzOS4zOTksLTIwLjUxMTUpIj4mI3hhOwkJCQkJPHRpdGxlIGlkPSJ0aXRsZTEwMTIyNSI+Zzg2MjwvdGl0bGU+JiN4YTsJCQkJCTxnIGlkPSJzaGFwZTM5NDMtNSIgdHJhbnNmb3JtPSJ0cmFuc2xhdGUoOS43MDgzNywtNS44MDEwNykiPiYjeGE7CQkJCQkJPHRpdGxlIGlkPSJ0aXRsZTEwMTIyNyI+cGF0aDI8L3RpdGxlPiYjeGE7CQkJCQkJPHBhdGggaWQ9InBhdGgxMDEyMjkiIGlua3NjYXBlOmNvbm5lY3Rvci1jdXJ2YXR1cmU9IjAiIHN0eWxlPSJmaWxsOiM1OTk2MzY7IiBkPSJNMC4xNCwyNy45NmMwLjM0LDAuNjIsMC43OSwxLjYsMS4xOCwyLjIgICAgICAgIGMwLjI2LDAuNDEsMC41NSwwLjc3LDAuODksMS4xYzAuOTgsMC45OSwxLjkxLDIuMDIsMi43NSwzLjEyYzEuOTksMi42MSwzLjMzLDUuNTEsNC4yOSw4LjY1YzAuNTgsMS45MiwwLjg5LDMuODksMC45MSw1Ljg4ICAgICAgICBjMC4xLDUuOTQtMS45NCwxMS4wNS02LjA2LDE1LjI5Yy0wLjY3LDAuNjctMS4zOSwxLjI5LTIuMTYsMS44NWMtMC40MSwwLTAuNi0wLjMyLTAuNzctMC42Yy0wLjMxLTAuNTMtMC41LTEuMTMtMC41OS0xLjczICAgICAgICBjLTAuMTUtMC43Mi0wLjI0LTEuNDQtMC4yLTIuMThjMC0wLjEyLDAtMC4yMiwwLTAuMzRDMC4zNiw2MS4xMywwLDI4LjEyLDAuMTQsMjcuOTZ6Ii8+JiN4YTsJCQkJCTwvZz4mI3hhOwkJCQkJPGcgaWQ9InNoYXBlMzk0NC03IiB0cmFuc2Zvcm09InRyYW5zbGF0ZSgwLC01LjM5MzU3KSI+JiN4YTsJCQkJCQk8dGl0bGUgaWQ9InRpdGxlMTAxMjMyIj5wYXRoODwvdGl0bGU+JiN4YTsJCQkJCQk8cGF0aCBpZD0icGF0aDEwMTIzNCIgaW5rc2NhcGU6Y29ubmVjdG9yLWN1cnZhdHVyZT0iMCIgc3R5bGU9ImZpbGw6IzZDQUM0ODsiIGQ9Ik05Ljg1LDI3LjQ4Yy0wLjA1LTAuMS0wLjA5LTAuMDMtMC4xNCwwLjAyICAgICAgICBjMC4wMiwwLjQ4LTAuMTUsMC45MS0wLjQxLDEuMzJjLTAuMjksMC40MS0wLjY3LDAuNzItMS4wNSwxLjA1Yy0yLjE0LDEuODUtMy44Miw0LjA4LTUuMTYsNi41NyAgICAgICAgYy0xLjc3LDMuMzYtMi43MSw2Ljk1LTIuOTcsMTAuNzRDMCw0OC41NSwwLjU1LDUzLjM2LDAuOTgsNTQuNzZjMS4xOCwzLjY5LDMuMjksNi43OCw2LjAyLDkuNDYgICAgICAgIGMwLjY3LDAuNjUsMS4zOSwxLjI1LDIuMTMsMS44M2MwLjIyLDAsMC4yNC0wLjIsMC4yOS0wLjM0YzAuMS0wLjMxLDAuMTctMC42MiwwLjIyLTAuOTNjMC4yMS0xLjIsMC4zMy0yLjQsMC40OC0zLjYgICAgICAgIEMxMC4xMiw2MS4wNCw5LjkyLDI3LjYsOS44NSwyNy40OHoiLz4mI3hhOwkJCQkJPC9nPiYjeGE7CQkJCQk8ZyBpZD0ic2hhcGUzOTQ1LTkiIHRyYW5zZm9ybT0idHJhbnNsYXRlKDkuMTMzMDcpIj4mI3hhOwkJCQkJCTx0aXRsZSBpZD0idGl0bGUxMDEyMzciPnBhdGgxMDwvdGl0bGU+JiN4YTsJCQkJCQk8cGF0aCBpZD0icGF0aDEwMTIzOSIgaW5rc2NhcGU6Y29ubmVjdG9yLWN1cnZhdHVyZT0iMCIgc3R5bGU9ImZpbGw6I0MyQkZCRjsiIGQ9Ik0xLjg5LDYxLjcxYzAuMDUtMC41NSwwLjMyLTEuMDEsMC42LTEuNDcgICAgICAgIGMtMC4yOC0wLjEyLTAuNS0wLjM2LTAuNjctMC42MmMtMC4xNC0wLjI0LTAuMjYtMC41My0wLjM2LTAuNzljLTAuMzMtMS4wMS0wLjQxLTIuMDYtMC41LTMuMDlsMCwwYzAtMC4xLDAtMC4yMiwwLTAuMzFsMCwwICAgICAgICBjMC0wLjEsMC0wLjIyLDAtMC4zMmMtMC4xMiwwLjEtMC4xNCwwLjkyLTAuMTQsMS4wNGMtMC4wOCwxLjEtMC4yMiwyLjE4LTAuNDQsMy4yM0MwLjMxLDU5LjgxLDAuMjYsNjAuMjQsMCw2MC42MyAgICAgICAgYzAsMC4wNSwwLDAuMDksMC4wMiwwLjE3YzAuNDQsMS4yNywwLjU2LDIuNTYsMC42MywzLjg4YzAsMC4xNywwLDAuMzEsMCwwLjQ4YzAsMC41Ny0wLjAzLDAuNDUsMC40NSwwLjY1ICAgICAgICBjMC4xOSwwLjA3LDAuNDEsMC4wOSwwLjYsMC4yNGMwLjE1LDAsMC4xNy0wLjEyLDAuMTctMC4yMkMxLjg1LDY1LjU3LDEuOCw2NS4zLDEuOCw2NS4wNGMwLTAuNzQtMC4wMy0xLjQ2LDAtMi4yMSAgICAgICAgQzEuNzcsNjIuNDUsMS44NSw2Mi4wNywxLjg5LDYxLjcxeiIvPiYjeGE7CQkJCQk8L2c+JiN4YTsJCQkJPC9nPiYjeGE7CQkJCTxnIGlkPSJncm91cDM5NDYtMTEiPiYjeGE7CQkJCQk8dGl0bGUgaWQ9InRpdGxlMTAxMjQzIj5nODgwPC90aXRsZT4mI3hhOwkJCQkJPGcgaWQ9InNoYXBlMzk0Ny0xMiIgdHJhbnNmb3JtPSJ0cmFuc2xhdGUoMCwtNi4xMTU1NikiPiYjeGE7CQkJCQkJPHRpdGxlIGlkPSJ0aXRsZTEwMTI0NSI+cGF0aDQ8L3RpdGxlPiYjeGE7CQkJCQkJPHBhdGggaWQ9InBhdGgxMDEyNDciIGlua3NjYXBlOmNvbm5lY3Rvci1jdXJ2YXR1cmU9IjAiIHN0eWxlPSJmaWxsOiM0NzQ3NEE7IiBkPSJNMy44NSw2MS40N2MwLDAuODgsMCwxLjc2LDAsMi42MiAgICAgICAgYzAsMC4xMSwwLDAuMjEsMC4wMiwwLjMxYzAuMDMsMC4zMiwwLjIyLDAuNTEsMC41MiwwLjU5YzAuMjYsMC4wNywwLjUzLDAuMTIsMC43OSwwLjE2YzAuMTYsMC4wMSwwLjIxLDAuMDgsMC4yMywwLjI0ICAgICAgICBjMC4wMSwwLjU5LTAuMDQsMC42Ni0wLjYxLDAuNjJjLTEuMzMtMC4wNy0yLjY2LTAuMDktMy45OSwwYy0wLjA1LDAtMC4xLDAtMC4xNCwwYy0wLjQxLDAuMDItMC40NS0wLjAyLTAuNDUtMC40MyAgICAgICAgYzAtMC4wNywwLjAyLTAuMTYsMC4wMi0wLjIzYzAtMC4xMywwLjA5LTAuMTksMC4yMS0wLjE5YzAuMjgtMC4wMywwLjUzLTAuMSwwLjc5LTAuMTVjMC4zNy0wLjA5LDAuNTctMC4zMSwwLjYxLTAuNjcgICAgICAgIGMwLjA1LTAuNCwwLjA1LTAuODIsMC4wNS0xLjIxYzAuMDUtMS41NCwwLjAzLTMuMSwwLjAyLTQuNjNjMC0wLjMtMC4xMi0wLjUyLTAuMzgtMC42NmMtMC4zMS0wLjE3LTAuNjQtMC4zMS0wLjk5LTAuNDIgICAgICAgIGMtMC4xLTAuMDMtMC4yLTAuMDUtMC4yOS0wLjFDMC4wMiw1Ny4yLDAsNTYuOTgsMC4yNCw1Ni44NGMwLjA5LTAuMDUsMC4xOS0wLjA5LDAuMy0wLjExYzEuMDUtMC4xNSwyLjA3LTAuNDEsMy4wNy0wLjc3ICAgICAgICBjMC4yMS0wLjA3LDAuMjYtMC4wNiwwLjI4LDAuMTVjMC4wMSwwLjE0LDAsMC4yOC0wLjAyLDAuNGMtMC4wMywwLjIyLTAuMDMsMC40NS0wLjAzLDAuNjZjMCwwLjA4LDAuMDEsMC4xNywwLjEsMC4yMiAgICAgICAgYzAuMDksMC4wNSwwLjE3LDAsMC4yNC0wLjA1YzAuMzYtMC4yOCwwLjczLTAuNTQsMS4xMi0wLjc2YzAuNTctMC4zMSwxLjE4LTAuNTksMS44My0wLjY4YzAuOC0wLjEsMS40OSwwLjExLDIuMSwwLjYzICAgICAgICBjMC4yNSwwLjIyLDAuNDYsMC40OCwwLjY1LDAuNzZjMC4xNywwLjI0LDAuMTksMC4yNiwwLjQyLDAuMDhjMC42NS0wLjQ4LDEuMzQtMC45MSwyLjA5LTEuMjJjMC43Ny0wLjMzLDEuNTctMC4zOCwyLjM2LTAuMTEgICAgICAgIGMwLjgyLDAuMywxLjM3LDAuODcsMS43LDEuNjRjMC4yNywwLjYzLDAuMzksMS4yOCwwLjM5LDEuOTRjMCwxLjAyLDAsMi4wNCwwLDMuMDdjMCwwLjUyLDAsMS4wNCwwLDEuNTYgICAgICAgIGMwLDAuMzEsMC4xNCwwLjUyLDAuNDQsMC42NmMwLjMyLDAuMTMsMC42OSwwLjE5LDEuMDMsMC4yNWMwLjIzLDAuMDYsMC4yMywwLjA2LDAuMjMsMC4yOGMtMC4wNCwwLjU3LTAuMDksMC42MS0wLjY0LDAuNTcgICAgICAgIGMtMS4zOC0wLjA5LTIuNzgtMC4wNy00LjE3LDBjLTAuMjcsMC4wMi0wLjI3LDAuMDItMC4yOS0wLjI2YzAtMC4wMywwLTAuMDUsMC0wLjA4Yy0wLjAyLTAuNDctMC4wMi0wLjQ3LDAuNDMtMC41NyAgICAgICAgYzAuMTYtMC4wNCwwLjMtMC4wNywwLjQ1LTAuMTNjMC4zNS0wLjEsMC41Mi0wLjMyLDAuNTQtMC42N2MwLjAxLTAuNDMsMC4wMy0wLjg2LDAuMDUtMS4yOWMwLTEuMTMsMC4wMy0yLjI3LTAuMDQtMy4zOSAgICAgICAgYy0wLjAxLTAuMjktMC4wNi0wLjU5LTAuMTktMC44OGMtMC40My0xLjA2LTEuMzgtMS40NC0yLjI5LTEuMzNjLTAuNjksMC4wNy0xLjMsMC4zNC0xLjg3LDAuNzQgICAgICAgIGMtMC4xMiwwLjA5LTAuMjEsMC4xOS0wLjE5LDAuMzZjMC4xNiwxLjExLDAuMDUsMi4yMSwwLjA3LDMuMzJjMC4wMiwwLjc5LDAsMS42MSwwLDIuNGMwLDAuNDMsMC4xNywwLjY0LDAuNTksMC43NCAgICAgICAgYzAuMjYsMC4wNywwLjUyLDAuMTMsMC43OSwwLjE4YzAuMTIsMC4wMSwwLjE5LDAuMDcsMC4xOSwwLjJjMCwwLjA2LDAsMC4xMSwwLDAuMTRjLTAuMDIsMC40OS0wLjA1LDAuNTItMC41MywwLjUgICAgICAgIGMtMS4zOS0wLjA3LTIuNzctMC4wNS00LjEzLDBjLTAuNDcsMC4wMi0wLjUyLTAuMDMtMC40OS0wLjUxYzAuMDItMC4yOCwwLjA2LTAuMywwLjMxLTAuMzVjMC4xOS0wLjAzLDAuMzgtMC4wNywwLjU3LTAuMSAgICAgICAgYzAuNTItMC4xMSwwLjctMC4zLDAuNzMtMC44M2MwLjAyLTAuMzgsMC4wNS0wLjc4LDAuMDUtMS4xNmMwLjAyLTEuMTYsMC4wNS0yLjMyLTAuMDMtMy40N2MtMC4wNC0wLjQzLTAuMTQtMC44NS0wLjM3LTEuMjUgICAgICAgIGMtMC4zNC0wLjY0LTAuODktMC45Ni0xLjYyLTFjLTAuNzQtMC4wNS0xLjQsMC4yMy0yLjAyLDAuNTdjLTAuNDMsMC4yNC0wLjYyLDAuNTUtMC41OSwxLjA2ICAgICAgICBDMy44Nyw1OS44MSwzLjg0LDYwLjY0LDMuODUsNjEuNDdDMy44NCw2MS40NywzLjg1LDYxLjQ3LDMuODUsNjEuNDdDMy44NSw2MS40NywzLjg1LDYxLjQ3LDMuODUsNjEuNDd6Ii8+JiN4YTsJCQkJCTwvZz4mI3hhOwkJCQkJPGcgaWQ9Imdyb3VwMzk0OC0xNCIgdHJhbnNmb3JtPSJ0cmFuc2xhdGUoMjAuMzY3OSkiPiYjeGE7CQkJCQkJPHRpdGxlIGlkPSJ0aXRsZTEwMTI1MCI+Zzg3MDwvdGl0bGU+JiN4YTsJCQkJCQk8ZyBpZD0ic2hhcGUzOTQ5LTE1IiB0cmFuc2Zvcm09InRyYW5zbGF0ZSgxMS45NzIsLTUuOTYwMDYpIj4mI3hhOwkJCQkJCQk8dGl0bGUgaWQ9InRpdGxlMTAxMjUyIj5wYXRoNjwvdGl0bGU+JiN4YTsJCQkJCQkJPHBhdGggaWQ9InBhdGgxMDEyNTQiIGlua3NjYXBlOmNvbm5lY3Rvci1jdXJ2YXR1cmU9IjAiIHN0eWxlPSJmaWxsOiM0NzQ3NEE7IiBkPSJNNC4wNiw2MS40MmMwLDAuODEsMCwxLjYyLDAsMi40MyAgICAgICAgIGMwLDAuMTcsMC4wMiwwLjM1LDAuMDMsMC41MmMwLjA0LDAuMjYsMC4xOCwwLjQxLDAuNDIsMC40OGMwLjI5LDAuMDksMC42LDAuMTQsMC45MSwwLjE2YzAuMTgsMC4wMiwwLjIxLDAuMDksMC4yMywwLjIyICAgICAgICAgYzAsMC4wNCwwLDAuMDcsMCwwLjEyYy0wLjAyLDAuNjEtMC4wOSwwLjY4LTAuNjcsMC42NGMtMS4zMi0wLjA4LTIuNjMtMC4wNy0zLjk0LDBjLTAuMTgsMC0wLjM1LDAuMDItMC41MiwwLjAyICAgICAgICAgYy0wLjExLDAtMC4xNC0wLjA1LTAuMTYtMC4xMmMtMC4wNS0wLjI0LTAuMDUtMC40OCwwLTAuNzNjMC4wMi0wLjEsMC4wOS0wLjEzLDAuMTktMC4xNWMwLjI0LTAuMDQsMC40Ny0wLjA5LDAuNzEtMC4xNCAgICAgICAgIGMwLjQzLTAuMSwwLjU5LTAuMjgsMC42MS0wLjcyYzAuMDMtMC40OSwwLjA1LTAuOTcsMC4wNS0xLjQ2YzAtMS40MSwwLTIuODMsMC00LjI1YzAtMC4zMS0wLjEyLTAuNS0wLjQtMC42NCAgICAgICAgIGMtMC4zMS0wLjE3LTAuNjQtMC4yOS0wLjk4LTAuNDFjLTAuMTEtMC4wMy0wLjIxLTAuMDctMC4zLTAuMTJDMC4wMiw1Ny4xMSwwLDU2Ljg5LDAuMjEsNTYuNzJjMC4xLTAuMDksMC4yLTAuMTIsMC4zNC0wLjE0ICAgICAgICAgYzEuMTEtMC4xNywyLjE4LTAuNDIsMy4yMi0wLjgzYzAuMTItMC4wNSwwLjE3LTAuMDIsMC4yMiwwLjA5YzAuMDUsMC4xLDAuMDcsMC4yMiwwLjA1LDAuMzRjLTAuMDEsMC4yOC0wLjAzLDAuNTQtMC4wNSwwLjgxICAgICAgICAgYzAsMC4xMS0wLjA1LDAuMjQsMC4wNCwwLjNjMC4xLDAuMDcsMC4xNy0wLjA5LDAuMjUtMC4xNGMwLjUyLTAuNDIsMS4wOC0wLjgsMS42OC0xLjA3YzAuNTQtMC4yNCwxLjA5LTAuNDIsMS43MS0wLjM4ICAgICAgICAgYzEuMTYsMC4wNywxLjk5LDAuNjUsMi41MiwxLjY3YzAuMjgsMC41NCwwLjQsMS4xMywwLjQ1LDEuNzNjMC4wNCwwLjQyLDAuMDUsMC44NSwwLjA1LDEuMjhjMCwxLjE5LDAuMDIsMi4zNywwLjAyLDMuNTYgICAgICAgICBjMCwwLjA4LDAsMC4xNywwLDAuMjZjMC4wMiwwLjI5LDAuMTIsMC40OCwwLjQyLDAuNThjMC4zMSwwLjExLDAuNiwwLjE4LDAuOTMsMC4yM2MwLjI3LDAuMDMsMC4yOSwwLjA5LDAuMzEsMC4zNCAgICAgICAgIGMwLDAuMDQsMCwwLjA2LDAsMC4wOWMtMC4wNCwwLjU5LTAuMDcsMC42MS0wLjY2LDAuNTdjLTEuMjktMC4wNy0yLjU5LTAuMDctMy44NywwYy0wLjE3LDAuMDItMC4zNCwwLTAuNTIsMC4wMiAgICAgICAgIGMtMC4xLDAtMC4xNy0wLjAyLTAuMTktMC4xMmMtMC4wMy0wLjIzLTAuMDYtMC40NS0wLjAxLTAuNjljMC4wMS0wLjExLDAuMDctMC4xNiwwLjE5LTAuMThjMC4yNi0wLjAzLDAuNTMtMC4wNywwLjc5LTAuMTMgICAgICAgICBjMC4yOC0wLjA3LDAuNDMtMC4yNSwwLjQ3LTAuNTJjMC4wMi0wLjE2LDAuMDMtMC4zMywwLjAzLTAuNDljMC0xLjIxLDAtMi40Mi0wLjAxLTMuNjFjMC0wLjQxLTAuMDItMC44My0wLjExLTEuMjQgICAgICAgICBjLTAuMi0wLjktMC44OC0xLjUtMS43OS0xLjYxYy0wLjgtMC4wOC0xLjUxLDAuMTItMi4xOCwwLjU2Yy0wLjMzLDAuMi0wLjQ3LDAuNS0wLjQ3LDAuODZjMCwwLjYsMCwxLjIxLDAsMS44MyAgICAgICAgIGMwLDAuMjYsMCwwLjUyLDAsMC43OEM0LjA0LDYxLjQyLDQuMDQsNjEuNDIsNC4wNiw2MS40MkM0LjA2LDYxLjQyLDQuMDYsNjEuNDIsNC4wNiw2MS40MnoiLz4mI3hhOwkJCQkJCTwvZz4mI3hhOwkJCQkJCTxnIGlkPSJzaGFwZTM5NTAtMTciIHRyYW5zZm9ybT0idHJhbnNsYXRlKDUwLjgwNzYsLTYuMTE1NTIpIj4mI3hhOwkJCQkJCQk8dGl0bGUgaWQ9InRpdGxlMTAxMjU3Ij5wYXRoMTI8L3RpdGxlPiYjeGE7CQkJCQkJCTxwYXRoIGlkPSJwYXRoMTAxMjU5IiBpbmtzY2FwZTpjb25uZWN0b3ItY3VydmF0dXJlPSIwIiBzdHlsZT0iZmlsbDojQzJCRkJGOyIgZD0iTTE1LjgyLDU2LjY4ICAgICAgICAgYy0wLjE5LTEuMjYtMC42NS0yLjM4LTEuNDYtMy4zN2MtMC43My0wLjg4LTEuNjEtMS41My0yLjY2LTEuOTdjLTEuMDktMC40NS0yLjI1LTAuNTgtMy40Mi0wLjYyICAgICAgICAgYy0wLjQ5LTAuMDItNy4wOSwwLjA5LTcuNTcsMGMtMC4xMi0wLjAyLTAuMjEsMC4wMi0wLjI4LDAuMTJjLTAuMDgsMC4xNC0wLjE3LDAuMjYtMC4yMiwwLjRDMCw1MS43MSwwLDUxLjY3LDAuNSw1MS43NCAgICAgICAgIGMwLjQyLDAuMDcsMC44MSwwLjEsMS4yMSwwLjIzYzAuMzYsMC4xMiwwLjYyLDAuMzIsMC43MSwwLjcyYzAuMDMsMC4xOSwwLjA3LDYuMjcsMC4wNyw5LjExYzAsMC42Ny0wLjAyLDEuMzQtMC4wNywyLjAyICAgICAgICAgYy0wLjAyLDAuMTUtMC4wNCwwLjMxLTAuMDksMC40NWMtMC4wNywwLjItMC4xOSwwLjM4LTAuNCwwLjQ2Yy0wLjIyLDAuMTEtMC40NiwwLjE4LTAuNzIsMC4xOSAgICAgICAgIGMtMC40NywwLjA1LTAuNTQsMC4wNy0wLjY5LDAuNTljLTAuMDIsMC4wNy0wLjA0LDAuMTQtMC4wNSwwLjE5Yy0wLjA0LDAuMjItMC4wMiwwLjI2LDAuMiwwLjI2ICAgICAgICAgYzEuMDQsMC4wMiw0LjMxLDAuMDUsNS4xNywwLjA1YzAuNDgtMC4wMiwxLjI2LDAuMDQsMi4wMi0wLjAzYzAuNDctMC4wNiwwLjkzLTAuMDksMS40LTAuMThjMS41OS0wLjI5LDMuMDEtMC45NSw0LjIyLTIgICAgICAgICBjMC43LTAuNjIsMS4yNC0xLjM1LDEuNjUtMi4xOGMwLjQ5LTAuOTYsMC42OS0yLjAyLDAuNzUtMy4wOUMxNS45Niw1Ny45MywxNS45Myw1Ny4zLDE1LjgyLDU2LjY4TDE1LjgyLDU2LjY4eiBNMTMuMzIsNTkuMTQgICAgICAgICBjLTAuMDcsMS4xLTAuMjksMi4xNy0wLjg2LDMuMTRjLTAuNzMsMS4yNi0xLjc3LDIuMTQtMy4yLDIuNDVjLTAuNjIsMC4xNC0xLjI0LDAuMTktMS44OCwwLjExICAgICAgICAgYy0wLjQ3LTAuMDYtMC45Mi0wLjExLTEuMzUtMC4yNmMtMC43OC0wLjI4LTEuMDUtMC43Ni0xLjA3LTEuNTFjLTAuMDQtMS4wOCwwLTguNy0wLjAyLTEwLjQxYzAtMC42MywwLjI4LTAuNzYsMC43My0wLjc4ICAgICAgICAgYzAuNjctMC4wNSwxLjM2LTAuMDQsMi4wMywwLjAzYzAuNzMsMC4wNywxLjQyLDAuMjUsMi4xLDAuNTJjMC41LDAuMjEsMC45NiwwLjUsMS4zNiwwLjg1YzAuOTMsMC43OSwxLjU1LDEuOCwxLjg4LDIuOTcgICAgICAgICBDMTMuMzIsNTcuMiwxMy4zNyw1OC4xNywxMy4zMiw1OS4xNHoiLz4mI3hhOwkJCQkJCTwvZz4mI3hhOwkJCQkJCTxnIGlkPSJzaGFwZTM5NTEtMTkiIHRyYW5zZm9ybT0idHJhbnNsYXRlKDY3Ljg5MzIsLTYuMDExOSkiPiYjeGE7CQkJCQkJCTx0aXRsZSBpZD0idGl0bGUxMDEyNjIiPnBhdGgxNDwvdGl0bGU+JiN4YTsJCQkJCQkJPHBhdGggaWQ9InBhdGgxMDEyNjQiIGlua3NjYXBlOmNvbm5lY3Rvci1jdXJ2YXR1cmU9IjAiIHN0eWxlPSJmaWxsOiNDMkJGQkY7IiBkPSJNMTMuMDksNjAuNzJjMC0wLjEsMC0wLjE5LTAuMDEtMC4yOSAgICAgICAgIGMtMC4xNi0wLjk1LTAuNjYtMS42Ny0xLjQ0LTIuMjNjLTAuNS0wLjM2LTEuMDctMC42LTEuNjUtMC43OGMtMC4xMS0wLjAzLTAuMTktMC4wNi0wLjMtMC4wOGMwLjAyLTAuMDksMC4wNy0wLjExLDAuMTItMC4xMiAgICAgICAgIGMwLjM1LTAuMTgsMC42OC0wLjM3LDAuOTctMC42MmMwLjU0LTAuNDUsMC45LTEuMDEsMS4wNy0xLjY4YzAuMS0wLjM2LDAuMS0wLjczLDAuMDctMS4xMWMtMC4wOS0wLjk1LTAuNS0xLjY5LTEuMjYtMi4yNCAgICAgICAgIGMtMC44LTAuNTktMS43My0wLjgzLTIuNy0wLjg1Yy0xLjg2LTAuMDMtMy43NCwwLTUuNjEsMGMtMC41NCwwLTEuMDcsMC4wNC0xLjYyLTAuMDVjLTAuMTEtMC4wMi0wLjI1LTAuMDUtMC4zMywwLjA3ICAgICAgICAgYy0wLjE0LDAuMjItMC4yOCwwLjQ1LTAuMzMsMC43MWMtMC4wMiwwLjEyLDAuMDIsMC4xOSwwLjE1LDAuMmMwLjQsMC4wNiwwLjgsMC4xMywxLjIsMC4xOGMwLjQ2LDAuMDcsMC43OSwwLjMzLDAuODMsMC43NCAgICAgICAgIGMwLjAzLDAuMjksMC4wNSwwLjU3LDAuMDUsMC44NmMwLDEuMDgtMC4wMiwyLjE2LTAuMDQsMy4yM2MtMC4wMywyLjEzLTAuMDEsNC4yNy0wLjAxLDYuNGMwLDAuMzgtMC4wNiwwLjc0LTAuMTMsMS4xMiAgICAgICAgIGMtMC4wNSwwLjI2LTAuMTksMC40My0wLjQ0LDAuNTJDMS4zMyw2NC44LDEsNjQuOTEsMC42NCw2NC45MWMtMC4yMywwLTAuMzYsMC4wOC0wLjQ1LDAuMjljLTAuMDcsMC4xNS0wLjE0LDAuMzMtMC4xNiwwLjQ4ICAgICAgICAgQzAsNjUuODksMC4wNSw2NS45NiwwLjI2LDY1LjkyYzAuMTUtMC4wMSw1Ljg2LDAuMTMsNi45MywwLjAyYzAuNjQtMC4wNywxLjI4LTAuMTUsMS45LTAuMzRjMS4wOS0wLjM1LDIuMDktMC44NSwyLjg4LTEuNyAgICAgICAgIGMwLjY2LTAuNjksMS4wNC0xLjUyLDEuMDctMi40OEMxMy4wOSw2MS4xOSwxMy4wOSw2MC45NywxMy4wOSw2MC43MnogTTQuNzIsNTMuNjZjMC4wMy0wLjQ3LDAuMDMtMC45MiwwLjA1LTEuMzggICAgICAgICBjMC0wLjI2LDAuMS0wLjM4LDAuMzYtMC40NGMwLjQyLTAuMDgsMC44My0wLjA1LDEuMjQtMC4wM2MwLjQyLDAuMDMsMC44MiwwLjA5LDEuMjMsMC4yMWMwLjc2LDAuMjIsMS4zNSwwLjY1LDEuNjksMS4zOCAgICAgICAgIGMwLjE2LDAuMzMsMC4yNSwwLjY5LDAuMjUsMS4wNWMwLjAxLDAuNDktMC4wMiwwLjk1LTAuMjEsMS40MmMtMC4yOSwwLjY0LTAuNzYsMS4wNS0xLjQ0LDEuMTcgICAgICAgICBjLTAuNjcsMC4xMy0yLjU5LDAuMDctMi44OCwwLjA3Yy0wLjI2LDAtMC4yOC0wLjAzLTAuMjgtMC4yOWMwLTAuNTUsMC0xLjExLDAtMS42NGwwLDBDNC43LDU0LjcsNC42OCw1NC4xOCw0LjcyLDUzLjY2eiAgICAgICAgICBNMTAuMzMsNjIuOTVjLTAuMjksMC43OC0wLjgzLDEuMzItMS41OSwxLjYxYy0wLjQxLDAuMTYtMC44MywwLjI0LTEuMjgsMC4yMmMtMC41My0wLjAxLTEuMDcsMC0xLjYtMC4xICAgICAgICAgYy0wLjczLTAuMTUtMS4wNi0wLjg1LTEuMTEtMS4zNWMtMC4wOS0wLjg4LTAuMDMtMS43OC0wLjA1LTIuNDNjMC0wLjkyLDAtMS41OSwwLTIuMjhjMC0wLjI4LDAuMDMtMC4zNywwLjMzLTAuMzcgICAgICAgICBjMC41My0wLjAxLDEuMDctMC4wMywxLjYyLDAuMDJjMC4zOCwwLjA0LDAuNzQsMC4wNywxLjExLDAuMTRjMC43NywwLjE3LDEuNDgsMC40NywyLjA0LDEuMDdjMC40NCwwLjQ4LDAuNjksMS4wNywwLjc0LDEuNzEgICAgICAgICBDMTAuNTksNjEuOCwxMC41Niw2Mi4zOCwxMC4zMyw2Mi45NUMxMC4zMyw2Mi45NSwxMC4zMyw2Mi45NSwxMC4zMyw2Mi45NXoiLz4mI3hhOwkJCQkJCTwvZz4mI3hhOwkJCQkJCTxnIGlkPSJzaGFwZTM5NTItMjEiIHRyYW5zZm9ybT0idHJhbnNsYXRlKDI1LjU4NTIpIj4mI3hhOwkJCQkJCQk8dGl0bGUgaWQ9InRpdGxlMTAxMjY3Ij5wYXRoMTY8L3RpdGxlPiYjeGE7CQkJCQkJCTxwYXRoIGlkPSJwYXRoMTAxMjY5IiBpbmtzY2FwZTpjb25uZWN0b3ItY3VydmF0dXJlPSIwIiBzdHlsZT0iZmlsbDojNDc0NzRBOyIgZD0iTTguNzQsNTEuNzJjMC4xNiwwLjAyLDAuMzEsMC4wNiwwLjQ1LDAuMDcgICAgICAgICBjMC40OCwwLjAyLDEuMDUtMC4xNSwxLjIzLTAuODNjMC4wOC0wLjMyLDAuMS0wLjY0LDAtMC45OGMtMC4xMSwwLTAuMTYsMC4wOS0wLjIxLDAuMTJjLTAuMjYsMC4yMS0wLjU1LDAuMzMtMC44NiwwLjM2ICAgICAgICAgQzguNzIsNTAuNTMsOC4xLDUwLjUsNy41LDUwLjI3Yy0wLjI4LTAuMS0wLjU2LTAuMi0wLjg1LTAuMjljLTAuNTktMC4xOS0xLjIxLTAuMjgtMS44My0wLjI0ICAgICAgICAgYy0wLjg4LDAuMDctMS43MSwwLjM2LTIuNDksMC43N2MtMC44MywwLjQ1LTEuNDEsMS4xMy0xLjY5LDIuMDRjLTAuMTYsMC41NC0wLjE3LDEuMDktMC4xLDEuNjRjMC4xNywxLjI3LDAuODIsMi4xNSwyLDIuNjEgICAgICAgICBjMC4wNywwLjAyLDAuMTIsMC4wNSwwLjE5LDAuMDdjMC4xNiwwLjA5LDAuMTcsMC4xNywwLjAzLDAuM2MtMC4xMywwLjEtMC4yNywwLjItMC40MywwLjI5Yy0wLjM0LDAuMjEtMC42OSwwLjQxLTEuMDMsMC42NCAgICAgICAgIGMtMC4yNiwwLjE1LTAuMywwLjI4LTAuMjEsMC41NWMwLjEsMC4zMywwLjI5LDAuNjEsMC41NSwwLjgzYzAuMjQsMC4yMSwwLjUsMC4zNiwwLjgsMC40OGMwLjE5LDAuMDksMC4xOSwwLjE0LDAuMDEsMC4yOCAgICAgICAgIGMtMC4zMywwLjI0LTAuNjUsMC40Ny0wLjk4LDAuNzFjLTAuMzMsMC4yNC0wLjY2LDAuNTItMC45MywwLjgzYy0wLjQsMC40NS0wLjU0LDAuOTctMC40MiwxLjU1ICAgICAgICAgYzAuMTQsMC42MywwLjQzLDEuMTMsMC45LDEuNTZDMS40Nyw2NS4zLDIsNjUuNiwyLjYxLDY1Ljc1YzAuOTcsMC4yOCwxLjk3LDAuMywyLjk1LDAuMTFjMS40Mi0wLjI2LDIuNjUtMC45LDMuNjMtMS45NiAgICAgICAgIGMwLjY3LTAuNywxLjA3LTEuNTMsMS4xMS0yLjU0YzAuMDUtMS4yMS0wLjY5LTIuMjItMS44Ny0yLjUyYy0wLjMxLTAuMDctMC42Mi0wLjEyLTAuOTMtMC4xN2MtMC45NS0wLjEyLTEuOS0wLjE3LTIuODUtMC4yNCAgICAgICAgIGMtMC4zMS0wLjAyLTAuNjItMC4wNy0wLjg4LTAuMjNjLTAuMzMtMC4yLTAuNDItMC42LTAuMjEtMC44NmMwLjE1LTAuMTksMC4zNC0wLjMxLDAuNTktMC4zM2MwLjE5LTAuMDIsMC4zNi0wLjAzLDAuNTUtMC4wNSAgICAgICAgIGMxLjEyLTAuMTIsMi4wOS0wLjU3LDIuOTItMS4zM2MwLjQzLTAuNCwwLjcyLTAuOSwwLjg4LTEuNDdjMC4yMS0wLjc0LDAuMjEtMS41LDAuMDMtMi4yNkM4LjQ4LDUxLjcxLDguNSw1MS42OSw4Ljc0LDUxLjcyeiAgICAgICAgICBNNC41MSw2MC4zM2MwLjEsMC4wMSwwLjIxLDAsMC4zMSwwQzUuNTUsNjAuMzYsNi4yOSw2MC40MSw3LDYwLjZjMC4yNCwwLjA3LDAuNDUsMC4xNiwwLjY3LDAuMjYgICAgICAgICBjMC42OSwwLjM4LDAuOTUsMS4wNCwwLjg2LDEuNzVDOC40Myw2My4zOSw4LDYzLjk0LDcuMzIsNjQuM2MtMC40NCwwLjI0LTAuOTUsMC4zNi0xLjQ2LDAuNDJjLTAuMTksMC4wMS0wLjM3LDAtMC41NiwwICAgICAgICAgYy0wLjYsMC4wMS0xLjE5LTAuMDYtMS43Ni0wLjNjLTAuNC0wLjE1LTAuNzItMC4zOC0xLjAyLTAuNjljLTAuNi0wLjYtMC45LTEuNzEsMC4wMi0yLjYxQzMuMDksNjAuNiwzLjcxLDYwLjI2LDQuNTEsNjAuMzN6ICAgICAgICAgIE02LjQ4LDU0Ljk0Yy0wLjM2LDAuOTEtMS4xNiwxLjE5LTEuOTUsMS4wN2MtMC43My0wLjExLTEuMjYtMC41LTEuNjEtMS4xNmMtMC40NS0wLjg4LTAuNTctMS44LTAuMzEtMi43NSAgICAgICAgIGMwLjE5LTAuNywwLjYyLTEuMjQsMS4zOC0xLjM2YzAuOTctMC4xNywxLjg4LDAuMTcsMi4zOCwxLjE0YzAuMjUsMC40NywwLjM3LDEuMDQsMC4zNywxLjg1ICAgICAgICAgQzYuNzIsNTQuMDYsNi42NSw1NC41MSw2LjQ4LDU0Ljk0eiIvPiYjeGE7CQkJCQkJPC9nPiYjeGE7CQkJCQkJPGcgaWQ9InNoYXBlMzk1My0yMyIgdHJhbnNmb3JtPSJ0cmFuc2xhdGUoMCwtNS43NTI3NykiPiYjeGE7CQkJCQkJCTx0aXRsZSBpZD0idGl0bGUxMDEyNzIiPnBhdGgxODwvdGl0bGU+JiN4YTsJCQkJCQkJPHBhdGggaWQ9InBhdGgxMDEyNzQiIGlua3NjYXBlOmNvbm5lY3Rvci1jdXJ2YXR1cmU9IjAiIHN0eWxlPSJmaWxsOiM0NzQ3NEE7IiBkPSJNMTAuMyw1OS41MmMtMC4xNi0wLjk0LTAuNS0xLjc4LTEuMTQtMi40OSAgICAgICAgIEM4LjIxLDU1Ljk3LDcsNTUuNTIsNS42Myw1NS41MWMtMS4xOS0wLjAyLTIuMzEsMC4zMy0zLjMyLDAuOTVjLTEsMC42Mi0xLjY5LDEuNS0yLjAyLDIuNjRjLTAuMjksMS0wLjI3LDIuMDItMC4wNSwzLjA0ICAgICAgICAgYzAuNjEsMi43MywyLjcxLDMuOTEsNS4yNCwzLjczYzAuNzQtMC4wNSwxLjQ1LTAuMjksMi4xMi0wLjYyYzEtMC40NywxLjczLTEuMjEsMi4yMy0yLjE5YzAuNC0wLjgyLDAuNTctMS42OCwwLjU1LTIuNjYgICAgICAgICBDMTAuMzcsNjAuMTUsMTAuMzUsNTkuODMsMTAuMyw1OS41MnogTTcuODQsNjMuMzVjLTAuMzEsMC44My0wLjksMS4zMy0xLjc4LDEuNDVjLTAuNzYsMC4xMS0xLjQ2LTAuMDgtMi4xLTAuNTMgICAgICAgICBjLTAuNDctMC4zNS0wLjgzLTAuNzgtMS4wOS0xLjNDMi4xNiw2MS41MiwyLjA0LDYwLDIuNCw1OC40NGMwLjEyLTAuNDgsMC4zNi0wLjkxLDAuNzMtMS4yNmMwLjY0LTAuNTgsMS4zOC0wLjcyLDIuMjEtMC41NSAgICAgICAgIGMwLjc5LDAuMTcsMS40LDAuNiwxLjg4LDEuMjZzMC43MywxLjQyLDAuODYsMi4yMWMwLjA3LDAuNCwwLjA3LDAuODEsMC4wOSwxLjA3QzguMTcsNjIsOC4xLDYyLjY4LDcuODQsNjMuMzV6Ii8+JiN4YTsJCQkJCQk8L2c+JiN4YTsJCQkJCQk8ZyBpZD0ic2hhcGUzOTU0LTI1IiB0cmFuc2Zvcm09InRyYW5zbGF0ZSgzNy42MjYzLC01LjczNTUpIj4mI3hhOwkJCQkJCQk8dGl0bGUgaWQ9InRpdGxlMTAxMjc3Ij5wYXRoMjA8L3RpdGxlPiYjeGE7CQkJCQkJCTxwYXRoIGlkPSJwYXRoMTAxMjc5IiBpbmtzY2FwZTpjb25uZWN0b3ItY3VydmF0dXJlPSIwIiBzdHlsZT0iZmlsbDojNDc0NzRBOyIgZD0iTTEwLjQyLDU5LjY0ICAgICAgICAgYy0wLjE0LTEuMDEtMC41LTEuOTItMS4yMS0yLjY4Yy0wLjkzLTEuMDItMi4xNC0xLjQ1LTMuNDktMS40N2MtMS4xNi0wLjAyLTIuMjMsMC4zMS0zLjIyLDAuODggICAgICAgICBjLTEuMSwwLjY2LTEuODYsMS41OS0yLjE1LDIuODVjLTAuMzUsMS40Mi0wLjIxLDIuOCwwLjQxLDQuMTFjMC41NywxLjIxLDEuNTQsMS45OSwyLjgyLDIuMzRjMS40MSwwLjM4LDIuNzYsMC4yLDQuMDctMC40NCAgICAgICAgIGMxLjE0LTAuNTUsMS45Ni0xLjQxLDIuNDItMi41OWMwLjI4LTAuNjksMC4zOC0xLjQzLDAuNC0yLjNDMTAuNDksNjAuMTksMTAuNDUsNTkuOTEsMTAuNDIsNTkuNjR6IE04LjAzLDYzLjExICAgICAgICAgYy0wLjI3LDAuOTMtMC44NiwxLjU0LTEuODUsMS42N2MtMC43MiwwLjExLTEuNDEtMC4wNi0yLjAzLTAuNDhjLTAuNTQtMC4zNi0wLjkyLTAuODUtMS4yLTEuNDIgICAgICAgICBjLTAuMzEtMC42LTAuNDgtMS4yNC0wLjU1LTEuOWMtMC4xLTAuODEtMC4xLTEuNiwwLjA5LTIuNDFjMC4wMy0wLjE2LDAuMDgtMC4zMiwwLjE1LTAuNDdjMC40OS0xLjIxLDEuNTYtMS43NiwyLjgyLTEuNDkgICAgICAgICBjMC44NSwwLjE5LDEuNDgsMC42NiwxLjk3LDEuMzdjMC40NiwwLjY5LDAuNjksMS40NSwwLjc5LDIuMjZjMC4wNiwwLjMzLDAuMDcsMC42NywwLjA2LDAuOTcgICAgICAgICBDOC4yOCw2MS44OCw4LjIyLDYyLjUsOC4wMyw2My4xMXoiLz4mI3hhOwkJCQkJCTwvZz4mI3hhOwkJCQkJPC9nPiYjeGE7CQkJCTwvZz4mI3hhOwkJCTwvZz4mI3hhOwkJPC9nPiYjeGE7CTwvZz4mI3hhOzwvZz4mI3hhOzwvc3ZnPg==;" parent="4rNJ4vwEb-hpk1fD-wyn-1" vertex="1">
          <mxGeometry x="32.680000000000064" y="370" width="214.63" height="136" as="geometry" />
        </mxCell>
        <mxCell id="acgDZ-SoyNHMQ0wOxpw4-39" value="&lt;span style=&quot;font-size: 26px;&quot;&gt;Atlas&lt;/span&gt;" style="text;html=1;strokeColor=none;fillColor=none;align=center;verticalAlign=middle;whiteSpace=wrap;rounded=0;" parent="4rNJ4vwEb-hpk1fD-wyn-1" vertex="1">
          <mxGeometry x="60.00000000000023" y="508.5" width="160" height="60" as="geometry" />
        </mxCell>
        <mxCell id="acgDZ-SoyNHMQ0wOxpw4-51" value="&lt;font style=&quot;font-size: 30px;&quot;&gt;Base de datos&lt;/font&gt;" style="text;html=1;strokeColor=none;fillColor=none;align=center;verticalAlign=middle;whiteSpace=wrap;rounded=0;" parent="4rNJ4vwEb-hpk1fD-wyn-1" vertex="1">
          <mxGeometry x="27.309999999999945" y="10" width="220" height="70" as="geometry" />
        </mxCell>
        <mxCell id="4rNJ4vwEb-hpk1fD-wyn-3" value="" style="group;fillColor=#f8cecc;strokeColor=#b85450;" vertex="1" connectable="0" parent="1">
          <mxGeometry x="710" y="211.5" width="360" height="1060" as="geometry" />
        </mxCell>
        <mxCell id="4rNJ4vwEb-hpk1fD-wyn-18" value="" style="group" vertex="1" connectable="0" parent="4rNJ4vwEb-hpk1fD-wyn-3">
          <mxGeometry width="360" height="1060" as="geometry" />
        </mxCell>
        <mxCell id="4rNJ4vwEb-hpk1fD-wyn-29" value="" style="group" vertex="1" connectable="0" parent="4rNJ4vwEb-hpk1fD-wyn-18">
          <mxGeometry width="360" height="1060" as="geometry" />
        </mxCell>
        <mxCell id="acgDZ-SoyNHMQ0wOxpw4-43" value="" style="rounded=0;whiteSpace=wrap;html=1;fillColor=#f8cecc;strokeColor=#b85450;" parent="4rNJ4vwEb-hpk1fD-wyn-29" vertex="1">
          <mxGeometry width="360" height="1060" as="geometry" />
        </mxCell>
        <mxCell id="acgDZ-SoyNHMQ0wOxpw4-18" value="" style="shape=image;html=1;verticalAlign=top;verticalLabelPosition=bottom;labelBackgroundColor=#ffffff;imageAspect=0;aspect=fixed;image=https://cdn2.iconfinder.com/data/icons/boxicons-logos/24/bxl-netlify-128.png" parent="4rNJ4vwEb-hpk1fD-wyn-29" vertex="1">
          <mxGeometry x="116" y="402" width="128" height="128" as="geometry" />
        </mxCell>
        <mxCell id="acgDZ-SoyNHMQ0wOxpw4-19" value="&lt;font style=&quot;font-size: 26px;&quot;&gt;Netlify&lt;/font&gt;" style="text;html=1;strokeColor=none;fillColor=none;align=center;verticalAlign=middle;whiteSpace=wrap;rounded=0;" parent="4rNJ4vwEb-hpk1fD-wyn-29" vertex="1">
          <mxGeometry x="100" y="530" width="160" height="60" as="geometry" />
        </mxCell>
        <mxCell id="acgDZ-SoyNHMQ0wOxpw4-20" value="" style="endArrow=classic;html=1;rounded=0;entryX=0.492;entryY=0.094;entryDx=0;entryDy=0;entryPerimeter=0;strokeWidth=8;" parent="4rNJ4vwEb-hpk1fD-wyn-29" edge="1">
          <mxGeometry width="50" height="50" relative="1" as="geometry">
            <mxPoint x="179.17000000000007" y="307" as="sourcePoint" />
            <mxPoint x="179.17000000000007" y="402" as="targetPoint" />
          </mxGeometry>
        </mxCell>
        <mxCell id="acgDZ-SoyNHMQ0wOxpw4-21" value="" style="shape=image;verticalLabelPosition=bottom;labelBackgroundColor=#ffffff;verticalAlign=top;aspect=fixed;imageAspect=0;image=data:image/svg+xml,PHN2ZyB4bWxuczpjYz0iaHR0cDovL2NyZWF0aXZlY29tbW9ucy5vcmcvbnMjIiB4bWxuczpkYz0iaHR0cDovL3B1cmwub3JnL2RjL2VsZW1lbnRzLzEuMS8iIHhtbG5zOmlua3NjYXBlPSJodHRwOi8vd3d3Lmlua3NjYXBlLm9yZy9uYW1lc3BhY2VzL2lua3NjYXBlIiB4bWxuczpyZGY9Imh0dHA6Ly93d3cudzMub3JnLzE5OTkvMDIvMjItcmRmLXN5bnRheC1ucyMiIHhtbG5zOnNvZGlwb2RpPSJodHRwOi8vc29kaXBvZGkuc291cmNlZm9yZ2UubmV0L0RURC9zb2RpcG9kaS0wLmR0ZCIgeG1sbnM6c3ZnPSJodHRwOi8vd3d3LnczLm9yZy8yMDAwL3N2ZyIgeG1sbnM9Imh0dHA6Ly93d3cudzMub3JnLzIwMDAvc3ZnIiB4bWxuczp4bGluaz0iaHR0cDovL3d3dy53My5vcmcvMTk5OS94bGluayIgdmVyc2lvbj0iMS4xIiBpZD0ic3ZnMTc1NjcxIiBpbmtzY2FwZTp2ZXJzaW9uPSIwLjkyLjMgKDI0MDU1NDYsIDIwMTgtMDMtMTEpIiBzb2RpcG9kaTpkb2NuYW1lPSJnaXRodWIuc3ZnIiB4PSIwcHgiIHk9IjBweCIgdmlld0JveD0iMCAwIDQ1LjI3IDQ1LjI5IiBzdHlsZT0iZW5hYmxlLWJhY2tncm91bmQ6bmV3IDAgMCA0NS4yNyA0NS4yOTsiIHhtbDpzcGFjZT0icHJlc2VydmUiPiYjeGE7PHNvZGlwb2RpOm5hbWVkdmlldyBib3JkZXJjb2xvcj0iIzY2NjY2NiIgYm9yZGVyb3BhY2l0eT0iMSIgZml0LW1hcmdpbi1ib3R0b209IjAiIGZpdC1tYXJnaW4tbGVmdD0iMCIgZml0LW1hcmdpbi1yaWdodD0iMCIgZml0LW1hcmdpbi10b3A9IjAiIGdyaWR0b2xlcmFuY2U9IjEwIiBndWlkZXRvbGVyYW5jZT0iMTAiIGlkPSJuYW1lZHZpZXcxNzU2NzMiIGlua3NjYXBlOmN1cnJlbnQtbGF5ZXI9InN2ZzE3NTY3MSIgaW5rc2NhcGU6Y3g9IjMwLjE3ODAyNSIgaW5rc2NhcGU6Y3k9IjMwLjE5NDMxOSIgaW5rc2NhcGU6cGFnZW9wYWNpdHk9IjAiIGlua3NjYXBlOnBhZ2VzaGFkb3c9IjIiIGlua3NjYXBlOndpbmRvdy1oZWlnaHQ9IjEwMTciIGlua3NjYXBlOndpbmRvdy1tYXhpbWl6ZWQ9IjEiIGlua3NjYXBlOndpbmRvdy13aWR0aD0iMTkyMCIgaW5rc2NhcGU6d2luZG93LXg9Ii04IiBpbmtzY2FwZTp3aW5kb3cteT0iLTgiIGlua3NjYXBlOnpvb209IjEwLjA5NTE1OCIgb2JqZWN0dG9sZXJhbmNlPSIxMCIgcGFnZWNvbG9yPSIjZmZmZmZmIiBzaG93Z3JpZD0iZmFsc2UiPiYjeGE7CTwvc29kaXBvZGk6bmFtZWR2aWV3PiYjeGE7PGcgaWQ9ImcxNzU2NjkiIHRyYW5zZm9ybT0idHJhbnNsYXRlKC05LjU2MjU0MTcsLTkuNTYxMzEpIj4mI3hhOwk8dGl0bGUgaWQ9InRpdGxlMTc1NjU5Ij5QYWdlLTE8L3RpdGxlPiYjeGE7CTxnIGlkPSJncm91cDIyNTAtMSIgdHJhbnNmb3JtPSJ0cmFuc2xhdGUoOS41NjMwOCwtOS4zNzg2OSkiPiYjeGE7CQk8dGl0bGUgaWQ9InRpdGxlMTc1NjYxIj5HaXRIdWI8L3RpdGxlPiYjeGE7CQk8ZyBpZD0ic2hhcGUyMjUxLTIiPiYjeGE7CQkJPHRpdGxlIGlkPSJ0aXRsZTE3NTY2MyI+U2hlZXQuMjI1MTwvdGl0bGU+JiN4YTsJCQk8cGF0aCBpZD0icGF0aDE3NTY2NSIgaW5rc2NhcGU6Y29ubmVjdG9yLWN1cnZhdHVyZT0iMCIgZD0iTTIyLjYzLDE4Ljk0QzEwLjE0LDE4Ljk0LDAsMjkuMzMsMCw0Mi4xNSAgICAgYy0wLjA3LDkuODksNi4xNSwxOC43MywxNS40OCwyMi4wMWMxLjEzLDAuMjIsMS41NC0wLjUsMS41NC0xLjExYzAtMC42MiwwLTIuMDEsMC0zLjk1Yy02LjI5LDEuNDEtNy42Mi0zLjExLTcuNjItMy4xMSAgICAgYy0xLjAzLTIuNjgtMi41MS0zLjQtMi41MS0zLjRjLTIuMDYtMS40MSwwLjE1LTEuNDEsMC4xNS0xLjQxYzIuMjcsMC4xNiwzLjQ3LDIuMzksMy40NywyLjM5YzIuMDIsMy41NCw1LjMsMi41Miw2LjU4LDEuOTMgICAgIGMwLjEtMS4xNywwLjYtMi4yNiwxLjQyLTMuMUMxMy40OCw1MS44MSw4LjIsNDkuODIsOC4yLDQwLjkyYy0wLjA0LTIuMjksMC43OS00LjUxLDIuMzItNi4yMmMtMC42OS0yLTAuNjEtNC4xOSwwLjIyLTYuMTQgICAgIGMwLDAsMS45MS0wLjYyLDYuMjMsMi40YzMuNy0xLjA0LDcuNjItMS4wNCwxMS4zMiwwYzQuMzItMyw2LjIyLTIuMzcsNi4yMi0yLjM3YzAuODMsMS45NSwwLjkxLDQuMTQsMC4yMiw2LjE0ICAgICBjMS41MywxLjcsMi4zNywzLjkzLDIuMzMsNi4yMmMwLDguOTEtNS4yOSwxMC44OC0xMC4zMywxMS40NWMwLjgxLDAuNzEsMS41MywyLjEyLDEuNTMsNC4zYzAsMy4xMSwwLDUuNjEsMCw2LjM3ICAgICBjMCwwLjYyLDAuNDEsMS4zNCwxLjU2LDEuMTJjOS4zMy0zLjMsMTUuNTMtMTIuMTUsMTUuNDUtMjIuMDRDNDUuMjcsMjkuMzMsMzUuMTMsMTguOTQsMjIuNjMsMTguOTR6Ii8+JiN4YTsJCTwvZz4mI3hhOwk8L2c+JiN4YTs8L2c+JiN4YTs8L3N2Zz4=;" parent="4rNJ4vwEb-hpk1fD-wyn-29" vertex="1">
          <mxGeometry x="140" y="210" width="80" height="80" as="geometry" />
        </mxCell>
        <mxCell id="acgDZ-SoyNHMQ0wOxpw4-25" value="" style="endArrow=classic;html=1;rounded=0;entryX=0.492;entryY=0.094;entryDx=0;entryDy=0;entryPerimeter=0;strokeWidth=8;" parent="4rNJ4vwEb-hpk1fD-wyn-29" edge="1">
          <mxGeometry width="50" height="50" relative="1" as="geometry">
            <mxPoint x="179.17000000000007" y="590" as="sourcePoint" />
            <mxPoint x="179.17000000000007" y="685" as="targetPoint" />
          </mxGeometry>
        </mxCell>
        <mxCell id="acgDZ-SoyNHMQ0wOxpw4-49" value="&lt;font style=&quot;font-size: 30px;&quot;&gt;Frontend panel de administraciÃ³n&lt;/font&gt;" style="text;html=1;strokeColor=none;fillColor=none;align=center;verticalAlign=middle;whiteSpace=wrap;rounded=0;" parent="4rNJ4vwEb-hpk1fD-wyn-29" vertex="1">
          <mxGeometry x="75" y="20" width="210" height="140" as="geometry" />
        </mxCell>
        <mxCell id="4rNJ4vwEb-hpk1fD-wyn-21" value="" style="group" vertex="1" connectable="0" parent="4rNJ4vwEb-hpk1fD-wyn-29">
          <mxGeometry x="35" y="728.5" width="290" height="210" as="geometry" />
        </mxCell>
        <mxCell id="4rNJ4vwEb-hpk1fD-wyn-22" value="" style="rounded=0;whiteSpace=wrap;html=1;" vertex="1" parent="4rNJ4vwEb-hpk1fD-wyn-21">
          <mxGeometry width="290" height="210" as="geometry" />
        </mxCell>
        <mxCell id="4rNJ4vwEb-hpk1fD-wyn-23" value="&lt;font style=&quot;font-size: 26px;&quot;&gt;HTML, CSS, Typescript&lt;br&gt;&lt;/font&gt;" style="text;html=1;strokeColor=none;fillColor=none;align=center;verticalAlign=middle;whiteSpace=wrap;rounded=0;" vertex="1" parent="4rNJ4vwEb-hpk1fD-wyn-21">
          <mxGeometry x="41.239999999999995" y="80" width="207.5" height="100" as="geometry" />
        </mxCell>
        <mxCell id="4rNJ4vwEb-hpk1fD-wyn-24" value="" style="shape=image;verticalLabelPosition=bottom;labelBackgroundColor=#ffffff;verticalAlign=top;aspect=fixed;imageAspect=0;image=data:image/svg+xml,PHN2ZyB4bWxuczpjYz0iaHR0cDovL2NyZWF0aXZlY29tbW9ucy5vcmcvbnMjIiB4bWxuczpkYz0iaHR0cDovL3B1cmwub3JnL2RjL2VsZW1lbnRzLzEuMS8iIHhtbG5zOmlua3NjYXBlPSJodHRwOi8vd3d3Lmlua3NjYXBlLm9yZy9uYW1lc3BhY2VzL2lua3NjYXBlIiB4bWxuczpyZGY9Imh0dHA6Ly93d3cudzMub3JnLzE5OTkvMDIvMjItcmRmLXN5bnRheC1ucyMiIHhtbG5zOnNvZGlwb2RpPSJodHRwOi8vc29kaXBvZGkuc291cmNlZm9yZ2UubmV0L0RURC9zb2RpcG9kaS0wLmR0ZCIgeG1sbnM6c3ZnPSJodHRwOi8vd3d3LnczLm9yZy8yMDAwL3N2ZyIgeG1sbnM9Imh0dHA6Ly93d3cudzMub3JnLzIwMDAvc3ZnIiB4bWxuczp4bGluaz0iaHR0cDovL3d3dy53My5vcmcvMTk5OS94bGluayIgdmVyc2lvbj0iMS4xIiBpZD0ic3ZnMTE0OTA2IiBpbmtzY2FwZTp2ZXJzaW9uPSIwLjkyLjMgKDI0MDU1NDYsIDIwMTgtMDMtMTEpIiBzb2RpcG9kaTpkb2NuYW1lPSJhbmd1bGFyLnN2ZyIgeD0iMHB4IiB5PSIwcHgiIHZpZXdCb3g9IjAgMCA1Ni44MiAxNS4zOSIgc3R5bGU9ImVuYWJsZS1iYWNrZ3JvdW5kOm5ldyAwIDAgNTYuODIgMTUuMzk7IiB4bWw6c3BhY2U9InByZXNlcnZlIj4mI3hhOzxzb2RpcG9kaTpuYW1lZHZpZXcgYm9yZGVyY29sb3I9IiM2NjY2NjYiIGJvcmRlcm9wYWNpdHk9IjEiIGZpdC1tYXJnaW4tYm90dG9tPSIwIiBmaXQtbWFyZ2luLWxlZnQ9IjAiIGZpdC1tYXJnaW4tcmlnaHQ9IjAiIGZpdC1tYXJnaW4tdG9wPSIwIiBncmlkdG9sZXJhbmNlPSIxMCIgZ3VpZGV0b2xlcmFuY2U9IjEwIiBpZD0ibmFtZWR2aWV3MTE0OTA4IiBpbmtzY2FwZTpjdXJyZW50LWxheWVyPSJzdmcxMTQ5MDYiIGlua3NjYXBlOmN4PSIzNy44ODExNTgiIGlua3NjYXBlOmN5PSIxMC4yNTk4NDYiIGlua3NjYXBlOnBhZ2VvcGFjaXR5PSIwIiBpbmtzY2FwZTpwYWdlc2hhZG93PSIyIiBpbmtzY2FwZTp3aW5kb3ctaGVpZ2h0PSIxMDE3IiBpbmtzY2FwZTp3aW5kb3ctbWF4aW1pemVkPSIxIiBpbmtzY2FwZTp3aW5kb3ctd2lkdGg9IjE5MjAiIGlua3NjYXBlOndpbmRvdy14PSItOCIgaW5rc2NhcGU6d2luZG93LXk9Ii04IiBpbmtzY2FwZTp6b29tPSIyMC44MzUyOTgiIG9iamVjdHRvbGVyYW5jZT0iMTAiIHBhZ2Vjb2xvcj0iI2ZmZmZmZiIgc2hvd2dyaWQ9ImZhbHNlIj4mI3hhOwk8L3NvZGlwb2RpOm5hbWVkdmlldz4mI3hhOzxnIGlkPSJnMTE0OTA0IiB0cmFuc2Zvcm09InRyYW5zbGF0ZSgtMy42NjIxMSwtMy42NTc5MzA3KSI+JiN4YTsJPHRpdGxlIGlkPSJ0aXRsZTExNDg3OSI+UGFnZS0xPC90aXRsZT4mI3hhOwk8ZyBpZD0iZ3JvdXAxMjEzLTEiIHRyYW5zZm9ybT0idHJhbnNsYXRlKDMuNjYyMTEsLTMuNjYyMTEpIj4mI3hhOwkJPHRpdGxlIGlkPSJ0aXRsZTExNDg4MSI+QW5ndWxhcjwvdGl0bGU+JiN4YTsJCTxnIGlkPSJzaGFwZTEyMTQtMiIgdHJhbnNmb3JtPSJ0cmFuc2xhdGUoMTYuNzEzNiwtMy45MTc1OSkiPiYjeGE7CQkJPHRpdGxlIGlkPSJ0aXRsZTExNDg4MyI+U2hlZXQuMTIxNDwvdGl0bGU+JiN4YTsJCQk8cGF0aCBpZD0icGF0aDExNDg4NSIgaW5rc2NhcGU6Y29ubmVjdG9yLWN1cnZhdHVyZT0iMCIgc3R5bGU9ImZpbGw6I0I1MkUzMTsiIGQ9Ik0wLDIyLjY1di02Ljk5aDAuOWw0LjI3LDUuNjN2LTUuNjNoMC44NnY2Ljk5ICAgICBoLTAuOWwtNC4yOC01LjY4djUuNjhIMHogTTEyLjk4LDIyLjM3Yy0wLjU2LDAuMjEtMS4xNywwLjMyLTEuODIsMC4zMmMtMi41MywwLTMuNzktMS4yLTMuNzktMy42NGMwLTIuMjksMS4yMi0zLjQ1LDMuNjYtMy40NSAgICAgYzAuNywwLDEuMzYsMC4xLDEuOTUsMC4yOXYwLjc4Yy0wLjU5LTAuMjMtMS4yMi0wLjM1LTEuODUtMC4zNWMtMS45MSwwLTIuODYsMC45MS0yLjg2LDIuNzFjMCwxLjk0LDAuOTQsMi45MSwyLjgyLDIuOTEgICAgIGMwLjMsMCwwLjYzLTAuMDQsMS0wLjEydi0yLjM0aDAuODlWMjIuMzd6IE0xNC40MywxOS45NXYtNC4yOWgwLjl2NC4yOWMwLDEuMzUsMC42NiwyLjAyLDIuMDEsMi4wMmMxLjMzLDAsMi0wLjY3LDItMi4wMnYtNC4yOSAgICAgaDAuOXY0LjI5YzAsMS44My0wLjk2LDIuNzYtMi45LDIuNzZDMTUuMzksMjIuNzEsMTQuNDMsMjEuNzgsMTQuNDMsMTkuOTV6IE0yMi43NSwxNS42NnY2LjI2aDMuNjZ2MC43M2gtNC41NnYtNi45OUwyMi43NSwxNS42NiAgICAgeiBNMjcuNzEsMjIuNjVoLTAuOTRsMy40Ny03LjkxbDMuNDgsNy45MWgtMWwtMC45LTIuMmgtMi4zMWwwLjI0LTAuNzNoMS43N2wtMS4zMS0zLjE2TDI3LjcxLDIyLjY1eiBNMzQuNjgsMjIuNjV2LTYuOTloMi45OSAgICAgYzEuMzMsMCwxLjk5LDAuNTUsMS45OSwxLjY3YzAsMC45MS0wLjY1LDEuNTktMS45NSwyLjAybDIuNCwzLjNoLTEuMTlsLTIuMjItMy4xNHYtMC41OWMxLjMzLTAuMjEsMi4wMS0wLjcyLDIuMDEtMS41NCAgICAgYzAtMC42NC0wLjM3LTAuOTctMS4xMS0wLjk3aC0ydjYuMjRMMzQuNjgsMjIuNjV6Ii8+JiN4YTsJCTwvZz4mI3hhOwkJPGcgaWQ9InNoYXBlMTIxNS00Ij4mI3hhOwkJCTx0aXRsZSBpZD0idGl0bGUxMTQ4ODgiPlNoZWV0LjEyMTU8L3RpdGxlPiYjeGE7CQkJPHBhdGggaWQ9InBhdGgxMTQ4OTAiIGlua3NjYXBlOmNvbm5lY3Rvci1jdXJ2YXR1cmU9IjAiIHN0eWxlPSJmaWxsOiNFMjMyMzc7IiBkPSJNMCw5Ljg4bDcuMTYtMi41Nmw3LjM1LDIuNTFsLTEuMTksOS40NyAgICAgbC02LjE2LDMuNDFMMS4xLDE5LjM0TDAsOS44OHoiLz4mI3hhOwkJPC9nPiYjeGE7CQk8ZyBpZD0ic2hhcGUxMjE2LTYiIHRyYW5zZm9ybT0idHJhbnNsYXRlKDcuMTU4MjEpIj4mI3hhOwkJCTx0aXRsZSBpZD0idGl0bGUxMTQ4OTMiPlNoZWV0LjEyMTY8L3RpdGxlPiYjeGE7CQkJPHBhdGggaWQ9InBhdGgxMTQ4OTUiIGlua3NjYXBlOmNvbm5lY3Rvci1jdXJ2YXR1cmU9IjAiIHN0eWxlPSJmaWxsOiNCNTJFMzE7IiBkPSJNNy4zNSw5LjgzTDAsNy4zMnYxNS4zOWw2LjE2LTMuNDFMNy4zNSw5LjgzeiIvPiYjeGE7CQk8L2c+JiN4YTsJCTxnIGlkPSJzaGFwZTEyMTctOCIgdHJhbnNmb3JtPSJ0cmFuc2xhdGUoMi43MDc5MSwtMy42NDAxNCkiPiYjeGE7CQkJPHRpdGxlIGlkPSJ0aXRsZTExNDg5OCI+U2hlZXQuMTIxNzwvdGl0bGU+JiN4YTsJCQk8cGF0aCBpZD0icGF0aDExNDkwMCIgaW5rc2NhcGU6Y29ubmVjdG9yLWN1cnZhdHVyZT0iMCIgc3R5bGU9ImZpbGw6I0ZGRkZGRjsiIGQ9Ik00LjQ2LDEyLjc2TDAsMjIuNjhsMS42Ni0wLjAzbDAuOS0yLjI0aDMuOTkgICAgIGwwLjk3LDIuMjZsMS41OSwwLjA0TDQuNDYsMTIuNzZ6IE00LjQ3LDE1Ljk1bDEuNTEsMy4xNUgzLjE1TDQuNDcsMTUuOTV6Ii8+JiN4YTsJCTwvZz4mI3hhOwk8L2c+JiN4YTs8L2c+JiN4YTs8L3N2Zz4=;" vertex="1" parent="4rNJ4vwEb-hpk1fD-wyn-21">
          <mxGeometry x="30.99000000000001" y="20" width="228" height="60" as="geometry" />
        </mxCell>
        <mxCell id="acgDZ-SoyNHMQ0wOxpw4-29" value="" style="endArrow=classic;html=1;rounded=0;endSize=21;startSize=19;strokeWidth=7;entryX=0.04;entryY=0.5;entryDx=0;entryDy=0;entryPerimeter=0;exitX=1;exitY=0.5;exitDx=0;exitDy=0;" parent="1" edge="1" target="acgDZ-SoyNHMQ0wOxpw4-30" source="acgDZ-SoyNHMQ0wOxpw4-43">
          <mxGeometry width="50" height="50" relative="1" as="geometry">
            <mxPoint x="990" y="538.33" as="sourcePoint" />
            <mxPoint x="1090" y="538.33" as="targetPoint" />
          </mxGeometry>
        </mxCell>
        <mxCell id="acgDZ-SoyNHMQ0wOxpw4-24" value="" style="endArrow=classic;html=1;rounded=0;endSize=21;startSize=19;strokeWidth=7;entryX=0;entryY=0.5;entryDx=0;entryDy=0;exitX=0.97;exitY=0.5;exitDx=0;exitDy=0;exitPerimeter=0;" parent="1" edge="1" target="acgDZ-SoyNHMQ0wOxpw4-43" source="acgDZ-SoyNHMQ0wOxpw4-22">
          <mxGeometry width="50" height="50" relative="1" as="geometry">
            <mxPoint x="570" y="485" as="sourcePoint" />
            <mxPoint x="670" y="485" as="targetPoint" />
          </mxGeometry>
        </mxCell>
        <mxCell id="4rNJ4vwEb-hpk1fD-wyn-5" value="" style="group" vertex="1" connectable="0" parent="1">
          <mxGeometry x="1150" y="687" width="160" height="163" as="geometry" />
        </mxCell>
        <mxCell id="acgDZ-SoyNHMQ0wOxpw4-30" value="" style="outlineConnect=0;dashed=0;verticalLabelPosition=bottom;verticalAlign=top;align=center;html=1;shape=mxgraph.aws3.ssl_padlock;fillColor=#D2D3D3;gradientColor=none;" parent="4rNJ4vwEb-hpk1fD-wyn-5" vertex="1">
          <mxGeometry x="35" width="90" height="103" as="geometry" />
        </mxCell>
        <mxCell id="acgDZ-SoyNHMQ0wOxpw4-31" value="&lt;span style=&quot;font-size: 26px;&quot;&gt;SSL&lt;/span&gt;" style="text;html=1;strokeColor=none;fillColor=none;align=center;verticalAlign=middle;whiteSpace=wrap;rounded=0;" parent="4rNJ4vwEb-hpk1fD-wyn-5" vertex="1">
          <mxGeometry y="103" width="160" height="60" as="geometry" />
        </mxCell>
        <mxCell id="4rNJ4vwEb-hpk1fD-wyn-6" value="" style="group" vertex="1" connectable="0" parent="1">
          <mxGeometry x="500" y="690" width="160" height="165.5" as="geometry" />
        </mxCell>
        <mxCell id="acgDZ-SoyNHMQ0wOxpw4-22" value="" style="outlineConnect=0;dashed=0;verticalLabelPosition=bottom;verticalAlign=top;align=center;html=1;shape=mxgraph.aws3.ssl_padlock;fillColor=#D2D3D3;gradientColor=none;" parent="4rNJ4vwEb-hpk1fD-wyn-6" vertex="1">
          <mxGeometry x="30" width="90" height="103" as="geometry" />
        </mxCell>
        <mxCell id="acgDZ-SoyNHMQ0wOxpw4-23" value="&lt;span style=&quot;font-size: 26px;&quot;&gt;SSL&lt;/span&gt;" style="text;html=1;strokeColor=none;fillColor=none;align=center;verticalAlign=middle;whiteSpace=wrap;rounded=0;" parent="4rNJ4vwEb-hpk1fD-wyn-6" vertex="1">
          <mxGeometry y="105.5" width="160" height="60" as="geometry" />
        </mxCell>
        <mxCell id="4rNJ4vwEb-hpk1fD-wyn-7" value="" style="group;fillColor=#f8cecc;strokeColor=#b85450;container=0;" vertex="1" connectable="0" parent="1">
          <mxGeometry x="20" y="210" width="399.63" height="1060" as="geometry" />
        </mxCell>
        <mxCell id="4rNJ4vwEb-hpk1fD-wyn-9" value="" style="group" vertex="1" connectable="0" parent="1">
          <mxGeometry x="495" y="1858.5" width="160" height="163" as="geometry" />
        </mxCell>
        <mxCell id="W28Hg_RXF8OLAKR3yMh1-43" value="" style="outlineConnect=0;dashed=0;verticalLabelPosition=bottom;verticalAlign=top;align=center;html=1;shape=mxgraph.aws3.ssl_padlock;fillColor=#D2D3D3;gradientColor=none;" parent="4rNJ4vwEb-hpk1fD-wyn-9" vertex="1">
          <mxGeometry x="35" width="90" height="103" as="geometry" />
        </mxCell>
        <mxCell id="W28Hg_RXF8OLAKR3yMh1-44" value="&lt;span style=&quot;font-size: 26px;&quot;&gt;SSL&lt;/span&gt;" style="text;html=1;strokeColor=none;fillColor=none;align=center;verticalAlign=middle;whiteSpace=wrap;rounded=0;" parent="4rNJ4vwEb-hpk1fD-wyn-9" vertex="1">
          <mxGeometry y="103" width="160" height="60" as="geometry" />
        </mxCell>
        <mxCell id="4rNJ4vwEb-hpk1fD-wyn-10" value="" style="group;fillColor=#f8cecc;strokeColor=#b85450;" vertex="1" connectable="0" parent="1">
          <mxGeometry x="20.000000000000007" y="1380" width="399.63" height="1060" as="geometry" />
        </mxCell>
        <mxCell id="W28Hg_RXF8OLAKR3yMh1-27" value="" style="rounded=0;whiteSpace=wrap;html=1;fillColor=#dae8fc;strokeColor=#6c8ebf;" parent="4rNJ4vwEb-hpk1fD-wyn-10" vertex="1">
          <mxGeometry width="399.63" height="1060" as="geometry" />
        </mxCell>
        <mxCell id="W28Hg_RXF8OLAKR3yMh1-28" value="" style="sketch=0;pointerEvents=1;shadow=0;dashed=0;html=1;strokeColor=none;labelPosition=center;verticalLabelPosition=bottom;verticalAlign=top;align=center;fillColor=#505050;shape=mxgraph.mscae.intune.user_group" parent="4rNJ4vwEb-hpk1fD-wyn-10" vertex="1">
          <mxGeometry x="109.63" y="170" width="120" height="100" as="geometry" />
        </mxCell>
        <mxCell id="W28Hg_RXF8OLAKR3yMh1-29" value="Cloud" style="ellipse;shape=cloud;whiteSpace=wrap;html=1;align=center;strokeWidth=5;" parent="4rNJ4vwEb-hpk1fD-wyn-10" vertex="1">
          <mxGeometry x="64.63" y="370" width="210" height="160" as="geometry" />
        </mxCell>
        <mxCell id="W28Hg_RXF8OLAKR3yMh1-31" value="&lt;font style=&quot;font-size: 26px;&quot;&gt;ExposiciÃ³n a internet&lt;/font&gt;" style="text;html=1;strokeColor=none;fillColor=none;align=center;verticalAlign=middle;whiteSpace=wrap;rounded=0;" parent="4rNJ4vwEb-hpk1fD-wyn-10" vertex="1">
          <mxGeometry x="239.63" y="360" width="160" height="80" as="geometry" />
        </mxCell>
        <mxCell id="W28Hg_RXF8OLAKR3yMh1-32" value="" style="endArrow=classic;html=1;rounded=0;entryX=0.492;entryY=0.094;entryDx=0;entryDy=0;entryPerimeter=0;strokeWidth=8;" parent="4rNJ4vwEb-hpk1fD-wyn-10" target="W28Hg_RXF8OLAKR3yMh1-29" edge="1">
          <mxGeometry width="50" height="50" relative="1" as="geometry">
            <mxPoint x="167.63" y="290" as="sourcePoint" />
            <mxPoint x="879.63" y="490" as="targetPoint" />
          </mxGeometry>
        </mxCell>
        <mxCell id="W28Hg_RXF8OLAKR3yMh1-33" value="&lt;font style=&quot;font-size: 30px;&quot;&gt;Usuarios&lt;/font&gt;" style="text;html=1;strokeColor=none;fillColor=none;align=center;verticalAlign=middle;whiteSpace=wrap;rounded=0;" parent="4rNJ4vwEb-hpk1fD-wyn-10" vertex="1">
          <mxGeometry x="97.32000000000001" y="20" width="154.63" height="70" as="geometry" />
        </mxCell>
        <mxCell id="W28Hg_RXF8OLAKR3yMh1-34" value="" style="shape=curlyBracket;whiteSpace=wrap;html=1;rounded=1;labelPosition=left;verticalLabelPosition=middle;align=right;verticalAlign=middle;strokeWidth=9;" parent="4rNJ4vwEb-hpk1fD-wyn-10" vertex="1">
          <mxGeometry x="69.63" y="560" width="50" height="180" as="geometry" />
        </mxCell>
        <mxCell id="W28Hg_RXF8OLAKR3yMh1-35" value="&lt;font style=&quot;font-size: 25px;&quot;&gt;Navegadores&lt;/font&gt;" style="text;html=1;strokeColor=none;fillColor=none;align=center;verticalAlign=middle;whiteSpace=wrap;rounded=0;rotation=-90;" parent="4rNJ4vwEb-hpk1fD-wyn-10" vertex="1">
          <mxGeometry x="-40.370000000000005" y="620" width="170" height="70" as="geometry" />
        </mxCell>
        <mxCell id="W28Hg_RXF8OLAKR3yMh1-36" value="&lt;font style=&quot;font-size: 25px;&quot;&gt;Chrome&lt;br&gt;FireFox&lt;br&gt;Opera&lt;br&gt;Safari&lt;br&gt;Edge&lt;br&gt;&lt;/font&gt;" style="text;html=1;strokeColor=none;fillColor=none;align=center;verticalAlign=middle;whiteSpace=wrap;rounded=0;" parent="4rNJ4vwEb-hpk1fD-wyn-10" vertex="1">
          <mxGeometry x="109.63" y="562.5" width="130" height="175" as="geometry" />
        </mxCell>
        <mxCell id="W28Hg_RXF8OLAKR3yMh1-37" value="" style="shape=curlyBracket;whiteSpace=wrap;html=1;rounded=1;labelPosition=left;verticalLabelPosition=middle;align=right;verticalAlign=middle;strokeWidth=9;" parent="4rNJ4vwEb-hpk1fD-wyn-10" vertex="1">
          <mxGeometry x="69.63" y="780" width="50" height="180" as="geometry" />
        </mxCell>
        <mxCell id="W28Hg_RXF8OLAKR3yMh1-38" value="&lt;font style=&quot;font-size: 25px;&quot;&gt;Dispositivos&lt;br&gt;&lt;/font&gt;" style="text;html=1;strokeColor=none;fillColor=none;align=center;verticalAlign=middle;whiteSpace=wrap;rounded=0;rotation=-90;" parent="4rNJ4vwEb-hpk1fD-wyn-10" vertex="1">
          <mxGeometry x="-40.370000000000005" y="840" width="170" height="70" as="geometry" />
        </mxCell>
        <mxCell id="W28Hg_RXF8OLAKR3yMh1-39" value="" style="shape=image;verticalLabelPosition=bottom;labelBackgroundColor=#ffffff;verticalAlign=top;aspect=fixed;imageAspect=0;image=data:image/svg+xml,PHN2ZyB4bWxuczpjYz0iaHR0cDovL2NyZWF0aXZlY29tbW9ucy5vcmcvbnMjIiB4bWxuczpkYz0iaHR0cDovL3B1cmwub3JnL2RjL2VsZW1lbnRzLzEuMS8iIHhtbG5zOmlua3NjYXBlPSJodHRwOi8vd3d3Lmlua3NjYXBlLm9yZy9uYW1lc3BhY2VzL2lua3NjYXBlIiB4bWxuczpyZGY9Imh0dHA6Ly93d3cudzMub3JnLzE5OTkvMDIvMjItcmRmLXN5bnRheC1ucyMiIHhtbG5zOnNvZGlwb2RpPSJodHRwOi8vc29kaXBvZGkuc291cmNlZm9yZ2UubmV0L0RURC9zb2RpcG9kaS0wLmR0ZCIgeG1sbnM6c3ZnPSJodHRwOi8vd3d3LnczLm9yZy8yMDAwL3N2ZyIgeG1sbnM9Imh0dHA6Ly93d3cudzMub3JnLzIwMDAvc3ZnIiB4bWxuczp4bGluaz0iaHR0cDovL3d3dy53My5vcmcvMTk5OS94bGluayIgdmVyc2lvbj0iMS4xIiBpZD0ic3ZnMTE5NSIgaW5rc2NhcGU6dmVyc2lvbj0iMC45Mi4zICgyNDA1NTQ2LCAyMDE4LTAzLTExKSIgc29kaXBvZGk6ZG9jbmFtZT0iYW5kcm9pZC5zdmciIHg9IjBweCIgeT0iMHB4IiB2aWV3Qm94PSIwIDAgMjkuMzggNTAuODUiIHN0eWxlPSJlbmFibGUtYmFja2dyb3VuZDpuZXcgMCAwIDI5LjM4IDUwLjg1OyIgeG1sOnNwYWNlPSJwcmVzZXJ2ZSI+JiN4YTs8c29kaXBvZGk6bmFtZWR2aWV3IGJvcmRlcmNvbG9yPSIjNjY2NjY2IiBib3JkZXJvcGFjaXR5PSIxIiBmaXQtbWFyZ2luLWJvdHRvbT0iMCIgZml0LW1hcmdpbi1sZWZ0PSIwIiBmaXQtbWFyZ2luLXJpZ2h0PSIwIiBmaXQtbWFyZ2luLXRvcD0iMCIgZ3JpZHRvbGVyYW5jZT0iMTAiIGd1aWRldG9sZXJhbmNlPSIxMCIgaWQ9Im5hbWVkdmlldzExOTciIGlua3NjYXBlOmN1cnJlbnQtbGF5ZXI9InN2ZzExOTUiIGlua3NjYXBlOmN4PSIxOS41ODkzNCIgaW5rc2NhcGU6Y3k9IjMzLjg5NzQ3NiIgaW5rc2NhcGU6cGFnZW9wYWNpdHk9IjAiIGlua3NjYXBlOnBhZ2VzaGFkb3c9IjIiIGlua3NjYXBlOndpbmRvdy1oZWlnaHQ9IjEwMTciIGlua3NjYXBlOndpbmRvdy1tYXhpbWl6ZWQ9IjEiIGlua3NjYXBlOndpbmRvdy13aWR0aD0iMTkyMCIgaW5rc2NhcGU6d2luZG93LXg9Ii04IiBpbmtzY2FwZTp3aW5kb3cteT0iLTgiIGlua3NjYXBlOnpvb209IjEyLjc4NjY1MSIgb2JqZWN0dG9sZXJhbmNlPSIxMCIgcGFnZWNvbG9yPSIjZmZmZmZmIiBzaG93Z3JpZD0iZmFsc2UiPiYjeGE7CTwvc29kaXBvZGk6bmFtZWR2aWV3PiYjeGE7PGcgaWQ9ImcxMTkzIiB0cmFuc2Zvcm09InRyYW5zbGF0ZSgtMi42ODI2ODU1ZS01KSI+JiN4YTsJPHRpdGxlIGlkPSJ0aXRsZTExNjMiPlBhZ2UtMTwvdGl0bGU+JiN4YTsJPGcgaWQ9Imdyb3VwMzQ5OS0xIj4mI3hhOwkJPHRpdGxlIGlkPSJ0aXRsZTExNjUiPkFuZHJvaWQ8L3RpdGxlPiYjeGE7CQk8ZyBpZD0ic2hhcGUzNTAwLTIiPiYjeGE7CQkJPHRpdGxlIGlkPSJ0aXRsZTExNjciPlNoZWV0LjM1MDA8L3RpdGxlPiYjeGE7CQkJPHBhdGggaWQ9InBhdGgxMTY5IiBpbmtzY2FwZTpjb25uZWN0b3ItY3VydmF0dXJlPSIwIiBzdHlsZT0iZmlsbDojM0Y1NzY1OyIgZD0iTTI3LjQzLDBDMi4xLDAsMi4xLDAsMi4xLDBDMC45MiwwLDAsMC44LDAsMS44NCAgICAgYzAsNDYuOTUsMCw0Ni45NSwwLDQ2Ljk1YzAsMC45MiwwLjkyLDIuMDYsMi4xLDIuMDZjMjUuMzMsMCwyNS4zMywwLDI1LjMzLDBjMS4wNywwLDEuOTUtMS4xNCwxLjk1LTIuMDYgICAgIGMwLTQ2Ljk1LDAtNDYuOTUsMC00Ni45NUMyOS4zOCwwLjgsMjguNSwwLDI3LjQzLDB6Ii8+JiN4YTsJCTwvZz4mI3hhOwkJPGcgaWQ9InNoYXBlMzUwMS00IiB0cmFuc2Zvcm09InRyYW5zbGF0ZSgzLjA2MDg0LC03LjI1MTY3KSI+JiN4YTsJCQk8dGl0bGUgaWQ9InRpdGxlMTE3MiI+U2hlZXQuMzUwMTwvdGl0bGU+JiN4YTsJCQk8cGF0aCBpZD0icGF0aDExNzQiIGlua3NjYXBlOmNvbm5lY3Rvci1jdXJ2YXR1cmU9IjAiIHN0eWxlPSJmaWxsOiNGRkZGRkY7IiBkPSJNMCwxMC41OWgyMy4yNnY0MC4yNkgwVjEwLjU5eiIvPiYjeGE7CQk8L2c+JiN4YTsJCTxnIGlkPSJzaGFwZTM1MDItNiIgdHJhbnNmb3JtPSJ0cmFuc2xhdGUoMTIuODU1NSwtMy4wNjM0OCkiPiYjeGE7CQkJPHRpdGxlIGlkPSJ0aXRsZTExNzciPlNoZWV0LjM1MDI8L3RpdGxlPiYjeGE7CQkJPHBhdGggaWQ9InBhdGgxMTc5IiBpbmtzY2FwZTpjb25uZWN0b3ItY3VydmF0dXJlPSIwIiBzdHlsZT0iZmlsbDojRkZGRkZGOyIgZD0iTTAsNDkuMzJjMC0wLjg0LDAuNzctMS41MywxLjY0LTEuNTMgICAgIGMwLjkzLDAsMS42NSwwLjY5LDEuNjUsMS41M2MwLDAuODgtMC43MiwxLjUzLTEuNjUsMS41M0MwLjc3LDUwLjg1LDAsNTAuMiwwLDQ5LjMyeiIvPiYjeGE7CQk8L2c+JiN4YTsJCTxnIGlkPSJzaGFwZTM1MDMtOCIgdHJhbnNmb3JtPSJ0cmFuc2xhdGUoMTcuNzUyOSwtMy42NzYxOCkiPiYjeGE7CQkJPHRpdGxlIGlkPSJ0aXRsZTExODIiPlNoZWV0LjM1MDM8L3RpdGxlPiYjeGE7CQkJPHBhdGggaWQ9InBhdGgxMTg0IiBpbmtzY2FwZTpjb25uZWN0b3ItY3VydmF0dXJlPSIwIiBzdHlsZT0iZmlsbDojRkZGRkZGOyIgZD0iTTAsNDkuOTNjMC0wLjQ5LDAuMzEtMC45MSwwLjYxLTAuOTEgICAgIGMwLjM1LDAsMC42MSwwLjQyLDAuNjEsMC45MWMwLDAuNTQtMC4yNiwwLjkyLTAuNjEsMC45MkMwLjMxLDUwLjg1LDAsNTAuNDcsMCw0OS45M3oiLz4mI3hhOwkJPC9nPiYjeGE7CQk8ZyBpZD0ic2hhcGUzNTA0LTEwIiB0cmFuc2Zvcm09InRyYW5zbGF0ZSg5LjE4MjUxLC0zLjY3NjE4KSI+JiN4YTsJCQk8dGl0bGUgaWQ9InRpdGxlMTE4NyI+U2hlZXQuMzUwNDwvdGl0bGU+JiN4YTsJCQk8cGF0aCBpZD0icGF0aDExODkiIGlua3NjYXBlOmNvbm5lY3Rvci1jdXJ2YXR1cmU9IjAiIHN0eWxlPSJmaWxsOiNGRkZGRkY7IiBkPSJNMCw0OS45M2MwLTAuNDksMC4zMS0wLjkxLDAuNjEtMC45MSAgICAgYzAuMzUsMCwwLjYxLDAuNDIsMC42MSwwLjkxYzAsMC41NC0wLjI2LDAuOTItMC42MSwwLjkyQzAuMzEsNTAuODUsMCw1MC40NywwLDQ5LjkzeiIvPiYjeGE7CQk8L2c+JiN4YTsJPC9nPiYjeGE7PC9nPiYjeGE7PC9zdmc+;" parent="4rNJ4vwEb-hpk1fD-wyn-10" vertex="1">
          <mxGeometry x="129.63" y="780" width="57.43" height="101" as="geometry" />
        </mxCell>
        <mxCell id="W28Hg_RXF8OLAKR3yMh1-40" value="" style="shape=image;verticalLabelPosition=bottom;labelBackgroundColor=#ffffff;verticalAlign=top;aspect=fixed;imageAspect=0;image=data:image/svg+xml,PHN2ZyB4bWxuczpjYz0iaHR0cDovL2NyZWF0aXZlY29tbW9ucy5vcmcvbnMjIiB4bWxuczpkYz0iaHR0cDovL3B1cmwub3JnL2RjL2VsZW1lbnRzLzEuMS8iIHhtbG5zOmlua3NjYXBlPSJodHRwOi8vd3d3Lmlua3NjYXBlLm9yZy9uYW1lc3BhY2VzL2lua3NjYXBlIiB4bWxuczpyZGY9Imh0dHA6Ly93d3cudzMub3JnLzE5OTkvMDIvMjItcmRmLXN5bnRheC1ucyMiIHhtbG5zOnNvZGlwb2RpPSJodHRwOi8vc29kaXBvZGkuc291cmNlZm9yZ2UubmV0L0RURC9zb2RpcG9kaS0wLmR0ZCIgeG1sbnM6c3ZnPSJodHRwOi8vd3d3LnczLm9yZy8yMDAwL3N2ZyIgeG1sbnM9Imh0dHA6Ly93d3cudzMub3JnLzIwMDAvc3ZnIiB4bWxuczp4bGluaz0iaHR0cDovL3d3dy53My5vcmcvMTk5OS94bGluayIgdmVyc2lvbj0iMS4xIiBpZD0ic3ZnMTkxOCIgaW5rc2NhcGU6dmVyc2lvbj0iMC45Mi4zICgyNDA1NTQ2LCAyMDE4LTAzLTExKSIgc29kaXBvZGk6ZG9jbmFtZT0iZGVza3RvcC5zdmciIHg9IjBweCIgeT0iMHB4IiB2aWV3Qm94PSIwIDAgNTUuNjYgMzMuMzMiIHN0eWxlPSJlbmFibGUtYmFja2dyb3VuZDpuZXcgMCAwIDU1LjY2IDMzLjMzOyIgeG1sOnNwYWNlPSJwcmVzZXJ2ZSI+JiN4YTs8c29kaXBvZGk6bmFtZWR2aWV3IGJvcmRlcmNvbG9yPSIjNjY2NjY2IiBib3JkZXJvcGFjaXR5PSIxIiBmaXQtbWFyZ2luLWJvdHRvbT0iMCIgZml0LW1hcmdpbi1sZWZ0PSIwIiBmaXQtbWFyZ2luLXJpZ2h0PSIwIiBmaXQtbWFyZ2luLXRvcD0iMCIgZ3JpZHRvbGVyYW5jZT0iMTAiIGd1aWRldG9sZXJhbmNlPSIxMCIgaWQ9Im5hbWVkdmlldzE5MjAiIGlua3NjYXBlOmN1cnJlbnQtbGF5ZXI9InN2ZzE5MTgiIGlua3NjYXBlOmN4PSI1NC43MjUwMzkiIGlua3NjYXBlOmN5PSIxNy4zOTkwNDQiIGlua3NjYXBlOnBhZ2VvcGFjaXR5PSIwIiBpbmtzY2FwZTpwYWdlc2hhZG93PSIyIiBpbmtzY2FwZTp3aW5kb3ctaGVpZ2h0PSIxMDE3IiBpbmtzY2FwZTp3aW5kb3ctbWF4aW1pemVkPSIxIiBpbmtzY2FwZTp3aW5kb3ctd2lkdGg9IjE5MjAiIGlua3NjYXBlOndpbmRvdy14PSItOCIgaW5rc2NhcGU6d2luZG93LXk9Ii04IiBpbmtzY2FwZTp6b29tPSIxMS4xMTE0NjQiIG9iamVjdHRvbGVyYW5jZT0iMTAiIHBhZ2Vjb2xvcj0iI2ZmZmZmZiIgc2hvd2dyaWQ9ImZhbHNlIj4mI3hhOwk8L3NvZGlwb2RpOm5hbWVkdmlldz4mI3hhOzxnIGlkPSJncm91cDM1MTgtMyIgdHJhbnNmb3JtPSJ0cmFuc2xhdGUoMTAuMTE4ODU4LC04LjA0Njc1MikiPiYjeGE7CTx0aXRsZSBpZD0idGl0bGUxNzYyIj5nOTk5NDwvdGl0bGU+JiN4YTsJPGcgaWQ9Imdyb3VwMzUxOS00IiB0cmFuc2Zvcm09InRyYW5zbGF0ZSg1LjM1NzA2KSI+JiN4YTsJCTx0aXRsZSBpZD0idGl0bGUxNzY0Ij5nOTk4MDwvdGl0bGU+JiN4YTsJCTxnIGlkPSJzaGFwZTM1MjAtNSIgdHJhbnNmb3JtPSJ0cmFuc2xhdGUoMCwtMC44OTI4NDQpIj4mI3hhOwkJCTx0aXRsZSBpZD0idGl0bGUxNzY2Ij5wb2x5Z29uOTk3NDwvdGl0bGU+JiN4YTsJCQk8cGF0aCBpZD0icGF0aDE3NjgiIGlua3NjYXBlOmNvbm5lY3Rvci1jdXJ2YXR1cmU9IjAiIHN0eWxlPSJmaWxsOiM4MDgwODA7IiBkPSJNMi4xOCwzOWgzMC42bDIuMDQsMi4zOEgwTDIuMTgsMzl6Ii8+JiN4YTsJCTwvZz4mI3hhOwkJPGcgaWQ9InNoYXBlMzUyMS03IiB0cmFuc2Zvcm09InRyYW5zbGF0ZSgzLjI3Mzc2LC0xLjE5MDQ2KSI+JiN4YTsJCQk8dGl0bGUgaWQ9InRpdGxlMTc3MSI+cG9seWdvbjk5NzY8L3RpdGxlPiYjeGE7CQkJPHBhdGggaWQ9InBhdGgxNzczIiBpbmtzY2FwZTpjb25uZWN0b3ItY3VydmF0dXJlPSIwIiBzdHlsZT0iZmlsbDojMkUyRTJFOyIgZD0iTTAuOTksMzkuODloMjYuMzJsMC45NiwxLjQ5SDBMMC45OSwzOS44OXoiLz4mI3hhOwkJPC9nPiYjeGE7CQk8ZyBpZD0ic2hhcGUzNTIyLTkiPiYjeGE7CQkJPHRpdGxlIGlkPSJ0aXRsZTE3NzYiPnBhdGg5OTc4PC90aXRsZT4mI3hhOwkJCTxwYXRoIGlkPSJwYXRoMTc3OCIgaW5rc2NhcGU6Y29ubmVjdG9yLWN1cnZhdHVyZT0iMCIgc3R5bGU9ImZpbGw6IzFBMUExQTsiIGQ9Ik0zMy4zNyw0MS4zOEgxLjQ5QzAuMDEsNDEuMzgsMCw0MC41MSwwLDQwLjUxICAgICBoMzQuNzRDMzQuNzQsNDAuNTEsMzQuOTEsNDEuMzgsMzMuMzcsNDEuMzh6Ii8+JiN4YTsJCTwvZz4mI3hhOwk8L2c+JiN4YTsJPGcgaWQ9InNoYXBlMzUyMy0xMSIgdHJhbnNmb3JtPSJ0cmFuc2xhdGUoMTkuNjQyNiwtNC45MTA2NCkiPiYjeGE7CQk8dGl0bGUgaWQ9InRpdGxlMTc4MiI+cG9seWdvbjk5ODI8L3RpdGxlPiYjeGE7CQk8cGF0aCBpZD0icGF0aDE3ODQiIGlua3NjYXBlOmNvbm5lY3Rvci1jdXJ2YXR1cmU9IjAiIHN0eWxlPSJmaWxsOiMxQTFBMUE7IiBkPSJNMC42LDM3LjIxaDQuNzZsMC4wNCwwLjNsMC41NSwzLjg3SDBMMC42LDM3LjIxeiIvPiYjeGE7CTwvZz4mI3hhOwk8ZyBpZD0ic2hhcGUzNTI0LTEzIiB0cmFuc2Zvcm09InRyYW5zbGF0ZSgyMi42MTg3LC00LjkxMDY0KSI+JiN4YTsJCTx0aXRsZSBpZD0idGl0bGUxNzg3Ij5wb2x5Z29uOTk4NDwvdGl0bGU+JiN4YTsJCTxwYXRoIGlkPSJwYXRoMTc4OSIgaW5rc2NhcGU6Y29ubmVjdG9yLWN1cnZhdHVyZT0iMCIgc3R5bGU9ImZpbGw6IzJFMkUyRTsiIGQ9Ik0wLDM3LjUxaDIuNDJsMC41NiwzLjg3SDBWMzcuNTF6Ii8+JiN4YTsJPC9nPiYjeGE7CTxnIGlkPSJzaGFwZTM1MjUtMTUiIHRyYW5zZm9ybT0idHJhbnNsYXRlKDAsLTguMzMzMjEpIj4mI3hhOwkJPHRpdGxlIGlkPSJ0aXRsZTE3OTIiPnJlY3Q5OTg2PC90aXRsZT4mI3hhOwkJPHBhdGggaWQ9InBhdGgxNzk0IiBpbmtzY2FwZTpjb25uZWN0b3ItY3VydmF0dXJlPSIwIiBzdHlsZT0iZmlsbDojMjIxRjFGOyIgZD0iTTAsNDAuMTljMCwwLjY2LDAuNTMsMS4xOSwxLjE5LDEuMTloNDMuMTUgICAgYzAuNjYsMC4wMSwxLjE5LTAuNTIsMS4yLTEuMThjMCwwLDAtMC4wMSwwLTAuMDFWMTcuNTdjMC0wLjY2LTAuNTMtMS4xOS0xLjE5LTEuMTljMCwwLTAuMDEsMC0wLjAxLDBIMS4xOSAgICBDMC41MywxNi4zOCwwLDE2LjkxLDAsMTcuNTdWNDAuMTl6Ii8+JiN4YTsJPC9nPiYjeGE7CTxnIGlkPSJzaGFwZTM1MjYtMTciIHRyYW5zZm9ybT0idHJhbnNsYXRlKDEuMTkwNDYsLTkuNTIzNjcpIj4mI3hhOwkJPHRpdGxlIGlkPSJ0aXRsZTE3OTciPnJlY3Q5OTg4PC90aXRsZT4mI3hhOwkJPHJlY3QgaWQ9InJlY3QxNzk5IiB4PSIwIiB5PSIxOC43NiIgc3R5bGU9ImZpbGw6IzgwQkNFQjsiIHdpZHRoPSI0My4xNSIgaGVpZ2h0PSIyMi42MiIvPiYjeGE7CTwvZz4mI3hhOwk8ZyBpZD0ic2hhcGUzNTI3LTE5IiB0cmFuc2Zvcm09InRyYW5zbGF0ZSgxMy4zOTI3LC0zLjg2ODk5KSI+JiN4YTsJCTx0aXRsZSBpZD0idGl0bGUxODAyIj5wYXRoOTk5MDwvdGl0bGU+JiN4YTsJCTxwYXRoIGlkPSJwYXRoMTgwNCIgaW5rc2NhcGU6Y29ubmVjdG9yLWN1cnZhdHVyZT0iMCIgc3R5bGU9ImZpbGw6IzJFMkUyRTsiIGQ9Ik0xOC4wOSw0MS4zOEgwLjY2QzAuMzEsNDEuNCwwLjAyLDQxLjEzLDAsNDAuNzggICAgYzAsMC4wMSwxLjExLTAuODksMS4xNy0wLjg5aDE2LjEyYzAuNjcsMCwxLjQ2LDAuOSwxLjQ2LDAuOUMxOC43Myw0MS4xNCwxOC40NCw0MS40LDE4LjA5LDQxLjM4TDE4LjA5LDQxLjM4eiIvPiYjeGE7CTwvZz4mI3hhOwk8ZyBpZD0ic2hhcGUzNTI4LTIxIiB0cmFuc2Zvcm09InRyYW5zbGF0ZSgzMi43Mzc2LC0yMC41MzU0KSI+JiN4YTsJCTx0aXRsZSBpZD0idGl0bGUxODA3Ij5wb2x5Z29uOTk5MjwvdGl0bGU+JiN4YTsJCTxwYXRoIGlkPSJwYXRoMTgwOSIgaW5rc2NhcGU6Y29ubmVjdG9yLWN1cnZhdHVyZT0iMCIgc3R5bGU9ImZpbGw6I0FBRDJGMjsiIGQ9Ik0wLDI5Ljc3aDExLjYxdjExLjYxTDAsMjkuNzd6Ii8+JiN4YTsJPC9nPiYjeGE7PC9nPiYjeGE7PGcgaWQ9InNoYXBlMzUyOS0yMyIgdHJhbnNmb3JtPSJ0cmFuc2xhdGUoNy43Mzc5Mzc4LC02LjI2MTA2MikiPiYjeGE7CTx0aXRsZSBpZD0idGl0bGUxODEzIj5yZWN0OTk5NjwvdGl0bGU+JiN4YTsJPHJlY3QgaWQ9InJlY3QxODE1IiB4PSIwIiB5PSIxLjUiIHN0eWxlPSJmaWxsOm5vbmU7IiB3aWR0aD0iNTAiIGhlaWdodD0iMzkuODgiLz4mI3hhOzwvZz4mI3hhOzxnIGlkPSJzaGFwZTM1MzEtMjYiIHRyYW5zZm9ybT0idHJhbnNsYXRlKC00LjIyMzMzMTNlLTUsLTguMzQ0MzYyKSI+JiN4YTsJPHRpdGxlIGlkPSJ0aXRsZTE4MjEiPnJlY3QxMDAwMDwvdGl0bGU+JiN4YTsJPHJlY3QgaWQ9InJlY3QxODIzIiB4PSIwIiB5PSIxNCIgc3R5bGU9ImZpbGw6IzY2NjY2NjsiIHdpZHRoPSIxMy42OSIgaGVpZ2h0PSIyNy4zOCIvPiYjeGE7PC9nPiYjeGE7PGcgaWQ9Imdyb3VwMzUzMi0yOCIgdHJhbnNmb3JtPSJ0cmFuc2xhdGUoMC4yMzIwOTY3NywtOC4zNDQzNjIpIj4mI3hhOwk8dGl0bGUgaWQ9InRpdGxlMTgyNiI+ZzEwMDE0PC90aXRsZT4mI3hhOwk8ZyBpZD0ic2hhcGUzNTMzLTI5IiB0cmFuc2Zvcm09InRyYW5zbGF0ZSg4LjM5ODY4KSI+JiN4YTsJCTx0aXRsZSBpZD0idGl0bGUxODI4Ij5yZWN0MTAwMDI8L3RpdGxlPiYjeGE7CQk8cmVjdCBpZD0icmVjdDE4MzAiIHg9IjAiIHk9IjE0IiBzdHlsZT0iZmlsbDojNEQ0RDREOyIgd2lkdGg9IjUuMDYiIGhlaWdodD0iMjcuMzgiLz4mI3hhOwk8L2c+JiN4YTsJPGcgaWQ9InNoYXBlMzUzNC0zMSIgdHJhbnNmb3JtPSJ0cmFuc2xhdGUoMCwtMjMuOTgxOCkiPiYjeGE7CQk8dGl0bGUgaWQ9InRpdGxlMTgzMyI+cG9seWdvbjEwMDA0PC90aXRsZT4mI3hhOwkJPHJlY3QgaWQ9InJlY3QxODM1IiB4PSIwIiB5PSI0MC42NCIgc3R5bGU9ImZpbGw6bm9uZTsiIHdpZHRoPSI5LjE1IiBoZWlnaHQ9IjAuNzQiLz4mI3hhOwk8L2c+JiN4YTsJPGcgaWQ9InNoYXBlMzUzNS0zMyIgdHJhbnNmb3JtPSJ0cmFuc2xhdGUoMCwtMjMuOTgxOCkiPiYjeGE7CQk8dGl0bGUgaWQ9InRpdGxlMTgzOCI+cG9seWxpbmUxMDAwNjwvdGl0bGU+JiN4YTsJCTxyZWN0IGlkPSJyZWN0MTg0MCIgeD0iMCIgeT0iNDAuNjQiIHN0eWxlPSJmaWxsOm5vbmU7IiB3aWR0aD0iOS4xNSIgaGVpZ2h0PSIwLjc0Ii8+JiN4YTsJPC9nPiYjeGE7CTxnIGlkPSJzaGFwZTM1MzYtMzUiIHRyYW5zZm9ybT0idHJhbnNsYXRlKDguMTAxMDcsLTI0LjEwNjgpIj4mI3hhOwkJPHRpdGxlIGlkPSJ0aXRsZTE4NDMiPnJlY3QxMDAwODwvdGl0bGU+JiN4YTsJCTxyZWN0IGlkPSJyZWN0MTg0NSIgeD0iMCIgeT0iNDAuNzkiIHdpZHRoPSI0Ljc2IiBoZWlnaHQ9IjAuNiIvPiYjeGE7CTwvZz4mI3hhOwk8ZyBpZD0ic2hhcGUzNTM3LTM3IiB0cmFuc2Zvcm09InRyYW5zbGF0ZSgwLjM2MzA5LC0yNC4xMDY4KSI+JiN4YTsJCTx0aXRsZSBpZD0idGl0bGUxODQ4Ij5yZWN0MTAwMTA8L3RpdGxlPiYjeGE7CQk8cmVjdCBpZD0icmVjdDE4NTAiIHg9IjAiIHk9IjQwLjc5IiBzdHlsZT0iZmlsbDojMzMzMzMzOyIgd2lkdGg9IjUuMDYiIGhlaWdodD0iMC42Ii8+JiN4YTsJPC9nPiYjeGE7CTxnIGlkPSJzaGFwZTM1MzgtMzkiIHRyYW5zZm9ybT0idHJhbnNsYXRlKDUuNDIyNTQsLTI0LjEwNjgpIj4mI3hhOwkJPHRpdGxlIGlkPSJ0aXRsZTE4NTMiPnBvbHlnb24xMDAxMjwvdGl0bGU+JiN4YTsJCTxyZWN0IGlkPSJyZWN0MTg1NSIgeD0iMCIgeT0iNDAuNzkiIHN0eWxlPSJmaWxsOiNENEU4Rjg7IiB3aWR0aD0iMi45OCIgaGVpZ2h0PSIwLjYiLz4mI3hhOwk8L2c+JiN4YTs8L2c+JiN4YTs8ZyBpZD0ic2hhcGUzNTM5LTQxIiB0cmFuc2Zvcm09InRyYW5zbGF0ZSgtNC4yMjMzMzEzZS01LC0zMi40NTExNjIpIj4mI3hhOwk8dGl0bGUgaWQ9InRpdGxlMTg1OSI+cmVjdDEwMDE2PC90aXRsZT4mI3hhOwk8cmVjdCBpZD0icmVjdDE4NjEiIHg9IjAiIHk9IjQwLjc5IiBzdHlsZT0iZmlsbDojRkZGRkZGOyIgd2lkdGg9IjAuNiIgaGVpZ2h0PSIwLjYiLz4mI3hhOzwvZz4mI3hhOzxnIGlkPSJzaGFwZTM1NDAtNDMiIHRyYW5zZm9ybT0idHJhbnNsYXRlKDguMzMzMTY3OCwtMzAuNjY1NDYyKSI+JiN4YTsJPHRpdGxlIGlkPSJ0aXRsZTE4NjQiPnJlY3QxMDAxODwvdGl0bGU+JiN4YTsJPHJlY3QgaWQ9InJlY3QxODY2IiB4PSIwIiB5PSI0MC43OSIgd2lkdGg9IjQuNzYiIGhlaWdodD0iMC42Ii8+JiN4YTs8L2c+JiN4YTs8ZyBpZD0ic2hhcGUzNTQxLTQ1IiB0cmFuc2Zvcm09InRyYW5zbGF0ZSgwLjU5NTE4Njc3LC0zMC42NjU0NjIpIj4mI3hhOwk8dGl0bGUgaWQ9InRpdGxlMTg2OSI+cmVjdDEwMDIwPC90aXRsZT4mI3hhOwk8cmVjdCBpZD0icmVjdDE4NzEiIHg9IjAiIHk9IjQwLjc5IiBzdHlsZT0iZmlsbDojMzMzMzMzOyIgd2lkdGg9IjUuMDYiIGhlaWdodD0iMC42Ii8+JiN4YTs8L2c+JiN4YTs8ZyBpZD0ic2hhcGUzNTQyLTQ3IiB0cmFuc2Zvcm09InRyYW5zbGF0ZSg1LjY1NDYzNzgsLTMwLjY2NTQ2MikiPiYjeGE7CTx0aXRsZSBpZD0idGl0bGUxODc0Ij5wb2x5Z29uMTAwMjI8L3RpdGxlPiYjeGE7CTxyZWN0IGlkPSJyZWN0MTg3NiIgeD0iMCIgeT0iNDAuNzkiIHN0eWxlPSJmaWxsOiNENEU4Rjg7IiB3aWR0aD0iMi45OCIgaGVpZ2h0PSIwLjYiLz4mI3hhOzwvZz4mI3hhOzxnIGlkPSJzaGFwZTM1NDMtNDkiIHRyYW5zZm9ybT0idHJhbnNsYXRlKC00LjIyMzMzMTNlLTUsLTMwLjY2NTQ2MikiPiYjeGE7CTx0aXRsZSBpZD0idGl0bGUxODc5Ij5yZWN0MTAwMjQ8L3RpdGxlPiYjeGE7CTxyZWN0IGlkPSJyZWN0MTg4MSIgeD0iMCIgeT0iNDAuNzkiIHN0eWxlPSJmaWxsOiNGRkZGRkY7IiB3aWR0aD0iMC42IiBoZWlnaHQ9IjAuNiIvPiYjeGE7PC9nPiYjeGE7PGcgaWQ9InNoYXBlMzU0NC01MSIgdHJhbnNmb3JtPSJ0cmFuc2xhdGUoOC4zMzMxNjc4LC0yOC44Nzk3NjIpIj4mI3hhOwk8dGl0bGUgaWQ9InRpdGxlMTg4NCI+cmVjdDEwMDI2PC90aXRsZT4mI3hhOwk8cmVjdCBpZD0icmVjdDE4ODYiIHg9IjAiIHk9IjQwLjc5IiB3aWR0aD0iNC43NiIgaGVpZ2h0PSIwLjYiLz4mI3hhOzwvZz4mI3hhOzxnIGlkPSJzaGFwZTM1NDUtNTMiIHRyYW5zZm9ybT0idHJhbnNsYXRlKDAuNTk1MTg2NzcsLTI4Ljg3OTc2MikiPiYjeGE7CTx0aXRsZSBpZD0idGl0bGUxODg5Ij5yZWN0MTAwMjg8L3RpdGxlPiYjeGE7CTxyZWN0IGlkPSJyZWN0MTg5MSIgeD0iMCIgeT0iNDAuNzkiIHN0eWxlPSJmaWxsOiMzMzMzMzM7IiB3aWR0aD0iNS4wNiIgaGVpZ2h0PSIwLjYiLz4mI3hhOzwvZz4mI3hhOzxnIGlkPSJzaGFwZTM1NDYtNTUiIHRyYW5zZm9ybT0idHJhbnNsYXRlKDUuNjU0NjM3OCwtMjguODc5NzYyKSI+JiN4YTsJPHRpdGxlIGlkPSJ0aXRsZTE4OTQiPnBvbHlnb24xMDAzMDwvdGl0bGU+JiN4YTsJPHJlY3QgaWQ9InJlY3QxODk2IiB4PSIwIiB5PSI0MC43OSIgc3R5bGU9ImZpbGw6I0Q0RThGODsiIHdpZHRoPSIyLjk4IiBoZWlnaHQ9IjAuNiIvPiYjeGE7PC9nPiYjeGE7PGcgaWQ9InNoYXBlMzU0Ny01NyIgdHJhbnNmb3JtPSJ0cmFuc2xhdGUoLTQuMjIzMzMxM2UtNSwtMjguODc5NzYyKSI+JiN4YTsJPHRpdGxlIGlkPSJ0aXRsZTE4OTkiPnJlY3QxMDAzMjwvdGl0bGU+JiN4YTsJPHJlY3QgaWQ9InJlY3QxOTAxIiB4PSIwIiB5PSI0MC43OSIgc3R5bGU9ImZpbGw6I0ZGRkZGRjsiIHdpZHRoPSIwLjYiIGhlaWdodD0iMC42Ii8+JiN4YTs8L2c+JiN4YTs8ZyBpZD0ic2hhcGUzNTQ4LTU5IiB0cmFuc2Zvcm09InRyYW5zbGF0ZSgtNC4yMjMzMzEzZS01LC0yNy4wOTQwNjIpIj4mI3hhOwk8dGl0bGUgaWQ9InRpdGxlMTkwNCI+cmVjdDEwMDM0PC90aXRsZT4mI3hhOwk8cmVjdCBpZD0icmVjdDE5MDYiIHg9IjAiIHk9IjQwLjc5IiBzdHlsZT0iZmlsbDojRkZGRkZGOyIgd2lkdGg9IjAuNiIgaGVpZ2h0PSIwLjYiLz4mI3hhOzwvZz4mI3hhOzxnIGlkPSJzaGFwZTM1NDktNjEiIHRyYW5zZm9ybT0idHJhbnNsYXRlKC00LjIyMzMzMTNlLTUsLTI1LjMwODM2MikiPiYjeGE7CTx0aXRsZSBpZD0idGl0bGUxOTA5Ij5yZWN0MTAwMzY8L3RpdGxlPiYjeGE7CTxyZWN0IGlkPSJyZWN0MTkxMSIgeD0iMCIgeT0iNDAuNzkiIHN0eWxlPSJmaWxsOiNGRkZGRkY7IiB3aWR0aD0iMC42IiBoZWlnaHQ9IjAuNiIvPiYjeGE7PC9nPiYjeGE7PC9zdmc+;" parent="4rNJ4vwEb-hpk1fD-wyn-10" vertex="1">
          <mxGeometry x="199.63" y="780" width="135.76" height="80" as="geometry" />
        </mxCell>
        <mxCell id="W28Hg_RXF8OLAKR3yMh1-41" value="" style="shape=image;verticalLabelPosition=bottom;labelBackgroundColor=#ffffff;verticalAlign=top;aspect=fixed;imageAspect=0;image=data:image/svg+xml,PHN2ZyB4bWxuczpjYz0iaHR0cDovL2NyZWF0aXZlY29tbW9ucy5vcmcvbnMjIiB4bWxuczpkYz0iaHR0cDovL3B1cmwub3JnL2RjL2VsZW1lbnRzLzEuMS8iIHhtbG5zOmlua3NjYXBlPSJodHRwOi8vd3d3Lmlua3NjYXBlLm9yZy9uYW1lc3BhY2VzL2lua3NjYXBlIiB4bWxuczpyZGY9Imh0dHA6Ly93d3cudzMub3JnLzE5OTkvMDIvMjItcmRmLXN5bnRheC1ucyMiIHhtbG5zOnNvZGlwb2RpPSJodHRwOi8vc29kaXBvZGkuc291cmNlZm9yZ2UubmV0L0RURC9zb2RpcG9kaS0wLmR0ZCIgeG1sbnM6c3ZnPSJodHRwOi8vd3d3LnczLm9yZy8yMDAwL3N2ZyIgeG1sbnM9Imh0dHA6Ly93d3cudzMub3JnLzIwMDAvc3ZnIiB4bWxuczp4bGluaz0iaHR0cDovL3d3dy53My5vcmcvMTk5OS94bGluayIgdmVyc2lvbj0iMS4xIiBpZD0ic3ZnMzQ4NiIgaW5rc2NhcGU6dmVyc2lvbj0iMC45Mi4zICgyNDA1NTQ2LCAyMDE4LTAzLTExKSIgc29kaXBvZGk6ZG9jbmFtZT0iZGV2aWNlX2lwYWQuc3ZnIiB4PSIwcHgiIHk9IjBweCIgdmlld0JveD0iMCAwIDU5LjMxIDQxLjIyIiBzdHlsZT0iZW5hYmxlLWJhY2tncm91bmQ6bmV3IDAgMCA1OS4zMSA0MS4yMjsiIHhtbDpzcGFjZT0icHJlc2VydmUiPiYjeGE7PHNvZGlwb2RpOm5hbWVkdmlldyBib3JkZXJjb2xvcj0iIzY2NjY2NiIgYm9yZGVyb3BhY2l0eT0iMSIgZml0LW1hcmdpbi1ib3R0b209IjAiIGZpdC1tYXJnaW4tbGVmdD0iMCIgZml0LW1hcmdpbi1yaWdodD0iMCIgZml0LW1hcmdpbi10b3A9IjAiIGdyaWR0b2xlcmFuY2U9IjEwIiBndWlkZXRvbGVyYW5jZT0iMTAiIGlkPSJuYW1lZHZpZXczNDg4IiBpbmtzY2FwZTpjdXJyZW50LWxheWVyPSJzdmczNDg2IiBpbmtzY2FwZTpjeD0iMzkuNTM4MzE5IiBpbmtzY2FwZTpjeT0iMjcuNDc5MzkiIGlua3NjYXBlOnBhZ2VvcGFjaXR5PSIwIiBpbmtzY2FwZTpwYWdlc2hhZG93PSIyIiBpbmtzY2FwZTp3aW5kb3ctaGVpZ2h0PSIxMDE3IiBpbmtzY2FwZTp3aW5kb3ctbWF4aW1pemVkPSIxIiBpbmtzY2FwZTp3aW5kb3ctd2lkdGg9IjE5MjAiIGlua3NjYXBlOndpbmRvdy14PSItOCIgaW5rc2NhcGU6d2luZG93LXk9Ii04IiBpbmtzY2FwZTp6b29tPSIxNS43NzQ3NTEiIG9iamVjdHRvbGVyYW5jZT0iMTAiIHBhZ2Vjb2xvcj0iI2ZmZmZmZiIgc2hvd2dyaWQ9ImZhbHNlIj4mI3hhOwk8L3NvZGlwb2RpOm5hbWVkdmlldz4mI3hhOzxnIGlkPSJnMzQ4NCIgdHJhbnNmb3JtPSJ0cmFuc2xhdGUoMCwtMi41MDk2MzU2ZS01KSI+JiN4YTsJPHRpdGxlIGlkPSJ0aXRsZTM0NTkiPlBhZ2UtMTwvdGl0bGU+JiN4YTsJPGcgaWQ9Imdyb3VwMzIyNi0xIj4mI3hhOwkJPHRpdGxlIGlkPSJ0aXRsZTM0NjEiPkRldmljZTogaVBhZDwvdGl0bGU+JiN4YTsJCTxnIGlkPSJzaGFwZTMyMjctMiI+JiN4YTsJCQk8dGl0bGUgaWQ9InRpdGxlMzQ2MyI+U2hlZXQuMzIyNzwvdGl0bGU+JiN4YTsJCQk8cGF0aCBpZD0icGF0aDM0NjUiIGlua3NjYXBlOmNvbm5lY3Rvci1jdXJ2YXR1cmU9IjAiIHN0eWxlPSJmaWxsOiMzRjU3NjU7IiBkPSJNNTYuNDYsMEMyLjkxLDAsMi45MSwwLDIuOTEsMCAgICAgQzEuMzEsMCwwLDEuMywwLDIuOTFjMCwzNS40NiwwLDM1LjQ2LDAsMzUuNDZjMCwxLjU2LDEuMzEsMi44NSwyLjkxLDIuODVjNTMuNTUsMCw1My41NSwwLDUzLjU1LDBjMS41NSwwLDIuODUtMS4yOSwyLjg1LTIuODUgICAgIGMwLTM1LjQ2LDAtMzUuNDYsMC0zNS40NkM1OS4zMSwxLjMsNTguMDEsMCw1Ni40NiwweiBNMjkuNjUsMWMwLjM4LDAsMC42OSwwLjMsMC42OSwwLjYxYzAsMC4zNy0wLjMxLDAuNjgtMC42OSwwLjY4ICAgICBjLTAuMywwLTAuNjctMC4zMS0wLjY3LTAuNjhDMjguOTgsMS4zLDI5LjM1LDEsMjkuNjUsMXogTTI5LjY1LDQwLjExYy0wLjc0LDAtMS4yOS0wLjU2LTEuMjktMS4zYzAtMC42OCwwLjU1LTEuMywxLjI5LTEuMyAgICAgYzAuNzUsMCwxLjMxLDAuNjIsMS4zMSwxLjNDMzAuOTYsMzkuNTUsMzAuNCw0MC4xMSwyOS42NSw0MC4xMXogTTU2LjAzLDM2Ljc2Yy01Mi43NCwwLTUyLjc0LDAtNTIuNzQsMGMwLTMzLjQ4LDAtMzMuNDgsMC0zMy40OCAgICAgYzUyLjc0LDAsNTIuNzQsMCw1Mi43NCwwVjM2Ljc2eiIvPiYjeGE7CQk8L2c+JiN4YTsJCTxnIGlkPSJzaGFwZTMyMjgtNCIgdHJhbnNmb3JtPSJ0cmFuc2xhdGUoMi4xNjEsLTQuNDMzNjQpIj4mI3hhOwkJCTx0aXRsZSBpZD0idGl0bGUzNDY4Ij5TaGVldC4zMjI4PC90aXRsZT4mI3hhOwkJCTxwYXRoIGlkPSJwYXRoMzQ3MCIgaW5rc2NhcGU6Y29ubmVjdG9yLWN1cnZhdHVyZT0iMCIgc3R5bGU9ImZpbGw6IzhEOUZCMDsiIGQ9Ik0wLDguNDdjMC0wLjY0LDAuNTMtMS4xNiwxLjE2LTEuMTZoNTIuNjcgICAgIGMwLjY0LDAsMS4xNiwwLjUyLDEuMTYsMS4xNnYzMS42YzAsMC42My0wLjUyLDEuMTUtMS4xNiwxLjE1SDEuMTZDMC41Myw0MS4yMiwwLDQwLjcsMCw0MC4wN1Y4LjQ3eiIvPiYjeGE7CQk8L2c+JiN4YTsJCTxnIGlkPSJzaGFwZTMyMjktNiIgdHJhbnNmb3JtPSJ0cmFuc2xhdGUoMjMuNjg1NSwtMTQuMzc5NCkiPiYjeGE7CQkJPHRpdGxlIGlkPSJ0aXRsZTM0NzMiPlNoZWV0LjMyMjk8L3RpdGxlPiYjeGE7CQkJPHBhdGggaWQ9InBhdGgzNDc1IiBpbmtzY2FwZTpjb25uZWN0b3ItY3VydmF0dXJlPSIwIiBzdHlsZT0iZmlsbDojRkZGRkZGOyIgZD0iTTEyLjMzLDM3LjM5Yy0wLjM0LDAuNzMtMC41MSwxLjA3LTAuOTQsMS43MyAgICAgYy0wLjYsMC45NC0xLjQ2LDIuMDYtMi41LDIuMWMtMC45NCwwLTEuMi0wLjY0LTIuNDUtMC42Yy0xLjI4LDAtMS41NCwwLjYtMi40OSwwLjZjLTEuMDctMC4wNC0xLjg1LTEuMDctMi40NS0xLjk4ICAgICBjLTEuNzItMi41OC0xLjg5LTUuNi0wLjg2LTcuMjNjMC43Ny0xLjEyLDEuOTQtMS44MSwzLjAxLTEuODFjMS4xMiwwLDEuODUsMC42NSwyLjc1LDAuNjVzMS40Ny0wLjY1LDIuNzUtMC42NSAgICAgYzAuOTksMCwyLjAzLDAuNTYsMi43NSwxLjQ2QzkuNDksMzMsOS44OSwzNi40NCwxMi4zMywzNy4zOXoiLz4mI3hhOwkJPC9nPiYjeGE7CQk8ZyBpZD0ic2hhcGUzMjMwLTgiIHRyYW5zZm9ybT0idHJhbnNsYXRlKDI5LjU1MSwtMjUuMjgzOCkiPiYjeGE7CQkJPHRpdGxlIGlkPSJ0aXRsZTM0NzgiPlNoZWV0LjMyMzA8L3RpdGxlPiYjeGE7CQkJPHBhdGggaWQ9InBhdGgzNDgwIiBpbmtzY2FwZTpjb25uZWN0b3ItY3VydmF0dXJlPSIwIiBzdHlsZT0iZmlsbDojRkZGRkZGOyIgZD0iTTIuMjgsNDAuMDdjMC40OC0wLjYsMC44Mi0xLjQyLDAuNy0yLjMyICAgICBjLTAuNzUsMC4wOS0xLjY3LDAuNTYtMi4yNCwxLjJjLTAuNDgsMC41Ni0wLjg4LDEuNDItMC43LDIuMjdDMC44OCw0MS4yMiwxLjc5LDQwLjc1LDIuMjgsNDAuMDd6Ii8+JiN4YTsJCTwvZz4mI3hhOwk8L2c+JiN4YTs8L2c+JiN4YTs8L3N2Zz4=;" parent="4rNJ4vwEb-hpk1fD-wyn-10" vertex="1">
          <mxGeometry x="129.63" y="900" width="100.73" height="70" as="geometry" />
        </mxCell>
        <mxCell id="W28Hg_RXF8OLAKR3yMh1-42" value="" style="shape=image;verticalLabelPosition=bottom;labelBackgroundColor=#ffffff;verticalAlign=top;aspect=fixed;imageAspect=0;image=data:image/svg+xml,PHN2ZyB4bWxuczpjYz0iaHR0cDovL2NyZWF0aXZlY29tbW9ucy5vcmcvbnMjIiB4bWxuczpkYz0iaHR0cDovL3B1cmwub3JnL2RjL2VsZW1lbnRzLzEuMS8iIHhtbG5zOmlua3NjYXBlPSJodHRwOi8vd3d3Lmlua3NjYXBlLm9yZy9uYW1lc3BhY2VzL2lua3NjYXBlIiB4bWxuczpyZGY9Imh0dHA6Ly93d3cudzMub3JnLzE5OTkvMDIvMjItcmRmLXN5bnRheC1ucyMiIHhtbG5zOnNvZGlwb2RpPSJodHRwOi8vc29kaXBvZGkuc291cmNlZm9yZ2UubmV0L0RURC9zb2RpcG9kaS0wLmR0ZCIgeG1sbnM6c3ZnPSJodHRwOi8vd3d3LnczLm9yZy8yMDAwL3N2ZyIgeG1sbnM9Imh0dHA6Ly93d3cudzMub3JnLzIwMDAvc3ZnIiB4bWxuczp4bGluaz0iaHR0cDovL3d3dy53My5vcmcvMTk5OS94bGluayIgdmVyc2lvbj0iMS4xIiBpZD0ic3ZnMTA5NDgiIGlua3NjYXBlOnZlcnNpb249IjAuOTIuMyAoMjQwNTU0NiwgMjAxOC0wMy0xMSkiIHNvZGlwb2RpOmRvY25hbWU9ImxhcHRvcC5zdmciIHg9IjBweCIgeT0iMHB4IiB2aWV3Qm94PSIwIDAgODEuNzUgNTYuMjYiIHN0eWxlPSJlbmFibGUtYmFja2dyb3VuZDpuZXcgMCAwIDgxLjc1IDU2LjI2OyIgeG1sOnNwYWNlPSJwcmVzZXJ2ZSI+JiN4YTs8c29kaXBvZGk6bmFtZWR2aWV3IGJvcmRlcmNvbG9yPSIjNjY2NjY2IiBib3JkZXJvcGFjaXR5PSIxIiBmaXQtbWFyZ2luLWJvdHRvbT0iMCIgZml0LW1hcmdpbi1sZWZ0PSIwIiBmaXQtbWFyZ2luLXJpZ2h0PSIwIiBmaXQtbWFyZ2luLXRvcD0iMCIgZ3JpZHRvbGVyYW5jZT0iMTAiIGd1aWRldG9sZXJhbmNlPSIxMCIgaWQ9Im5hbWVkdmlldzEwOTUwIiBpbmtzY2FwZTpjdXJyZW50LWxheWVyPSJzdmcxMDk0OCIgaW5rc2NhcGU6Y3g9IjU0LjUiIGlua3NjYXBlOmN5PSIzNy41MDcwMzkiIGlua3NjYXBlOnBhZ2VvcGFjaXR5PSIwIiBpbmtzY2FwZTpwYWdlc2hhZG93PSIyIiBpbmtzY2FwZTp3aW5kb3ctaGVpZ2h0PSIxMDE3IiBpbmtzY2FwZTp3aW5kb3ctbWF4aW1pemVkPSIxIiBpbmtzY2FwZTp3aW5kb3ctd2lkdGg9IjE5MjAiIGlua3NjYXBlOndpbmRvdy14PSItOCIgaW5rc2NhcGU6d2luZG93LXk9Ii04IiBpbmtzY2FwZTp6b29tPSIxMS4yNTgwNDYiIG9iamVjdHRvbGVyYW5jZT0iMTAiIHBhZ2Vjb2xvcj0iI2ZmZmZmZiIgc2hvd2dyaWQ9ImZhbHNlIj4mI3hhOwk8L3NvZGlwb2RpOm5hbWVkdmlldz4mI3hhOzxnIGlkPSJnMTA5NDYiIHRyYW5zZm9ybT0idHJhbnNsYXRlKC0wLjc1LC0wLjc1MTMyMSkiPiYjeGE7CTx0aXRsZSBpZD0idGl0bGUxMDkxNiI+UGFnZS0xPC90aXRsZT4mI3hhOwk8ZyBpZD0iZ3JvdXAzNjE4LTEiIHRyYW5zZm9ybT0idHJhbnNsYXRlKDAuNzUsLTAuNzU4Njc5KSI+JiN4YTsJCTx0aXRsZSBpZD0idGl0bGUxMDkxOCI+TGFwdG9wPC90aXRsZT4mI3hhOwkJPGcgaWQ9InNoYXBlMzYxOS0yIiB0cmFuc2Zvcm09InRyYW5zbGF0ZSg2Ljc1LC00LjUpIj4mI3hhOwkJCTx0aXRsZSBpZD0idGl0bGUxMDkyMCI+cmVjdDE0OTc8L3RpdGxlPiYjeGE7CQkJJiN4YTsJCQkJPHBhdGggaWQ9InBhdGgxMDkyMiIgaW5rc2NhcGU6Y29ubmVjdG9yLWN1cnZhdHVyZT0iMCIgc3R5bGU9ImZpbGw6I0ZDRkNGQztzdHJva2U6IzU1NkE4QTtzdHJva2Utd2lkdGg6MS41O3N0cm9rZS1taXRlcmxpbWl0OjM7IiBkPSIgICAgIE0wLDU0Ljc2YzAsMS42NiwxLjM0LDMsMywzaDYzYzEuNjYsMCwzLTEuMzQsMy0zdi00NWMwLTEuNjYtMS4zNC0zLTMtM0gzYy0xLjY2LDAtMywxLjM0LTMsM1Y1NC43NnoiLz4mI3hhOwkJPC9nPiYjeGE7CQk8ZyBpZD0ic2hhcGUzNjIwLTQiPiYjeGE7CQkJPHRpdGxlIGlkPSJ0aXRsZTEwOTI1Ij5wYXRoMTQ5OTwvdGl0bGU+JiN4YTsJCQk8cGF0aCBpZD0icGF0aDEwOTI3IiBpbmtzY2FwZTpjb25uZWN0b3ItY3VydmF0dXJlPSIwIiBzdHlsZT0iZmlsbDojNDE0MDQyOyIgZD0iTTc4Ljc1LDU3Ljc2SDMuMTMgICAgIEMxLjY4LDU3Ljg3LDAuMzYsNTYuOTIsMCw1NS41MWg4MS43NUM4MS43NSw1NS41MSw4MC44NCw1Ny43Niw3OC43NSw1Ny43NnoiLz4mI3hhOwkJPC9nPiYjeGE7CQk8ZyBpZD0ic2hhcGUzNjIxLTYiIHRyYW5zZm9ybT0idHJhbnNsYXRlKDAuMDc1LC0yLjI1KSI+JiN4YTsJCQk8dGl0bGUgaWQ9InRpdGxlMTA5MzAiPnBvbHlnb24xNTAxPC90aXRsZT4mI3hhOwkJCTxwYXRoIGlkPSJwYXRoMTA5MzIiIGlua3NjYXBlOmNvbm5lY3Rvci1jdXJ2YXR1cmU9IjAiIHN0eWxlPSJmaWxsOiM1NTZBOEE7IiBkPSJNNzYuNDIsNTQuMDFsNS4yNSwzLjc1SDBsNS45NC0zLjc1SDc2LjQyeiIvPiYjeGE7CQk8L2c+JiN4YTsJCTxnIGlkPSJzaGFwZTM2MjItOCIgdHJhbnNmb3JtPSJ0cmFuc2xhdGUoMywtMi4yNSkiPiYjeGE7CQkJPHRpdGxlIGlkPSJ0aXRsZTEwOTM1Ij5wb2x5Z29uMTUwMzwvdGl0bGU+JiN4YTsJCQk8cGF0aCBpZD0icGF0aDEwOTM3IiBpbmtzY2FwZTpjb25uZWN0b3ItY3VydmF0dXJlPSIwIiBzdHlsZT0iZmlsbDojRTRFREYxOyIgZD0iTTczLjAyLDU1LjUxbDIuNzMsMi4yNUgwbDMuNDUtMi4yNUg3My4wMnoiLz4mI3hhOwkJPC9nPiYjeGE7CQk8ZyBpZD0ic2hhcGUzNjIzLTEwIiB0cmFuc2Zvcm09InRyYW5zbGF0ZSgxMS4yNSwtMTAuNSkiPiYjeGE7CQkJPHRpdGxlIGlkPSJ0aXRsZTEwOTQwIj5yZWN0MTUwNTwvdGl0bGU+JiN4YTsJCQk8cmVjdCBpZD0icmVjdDEwOTQyIiB5PSIxOC4wMSIgc3R5bGU9ImZpbGw6IzJCQzdGNDsiIHdpZHRoPSI2MCIgaGVpZ2h0PSIzOS43NSIvPiYjeGE7CQk8L2c+JiN4YTsJPC9nPiYjeGE7PC9nPiYjeGE7PC9zdmc+;" parent="4rNJ4vwEb-hpk1fD-wyn-10" vertex="1">
          <mxGeometry x="239.63" y="890" width="131.79" height="90" as="geometry" />
        </mxCell>
        <mxCell id="4rNJ4vwEb-hpk1fD-wyn-11" value="&lt;font style=&quot;font-size: 50px;&quot;&gt;Diagrama de infraestructura URARA&lt;/font&gt;" style="text;html=1;strokeColor=none;fillColor=none;align=center;verticalAlign=middle;whiteSpace=wrap;rounded=0;" vertex="1" parent="1">
          <mxGeometry x="625" y="10" width="1210" height="120" as="geometry" />
        </mxCell>
        <mxCell id="4rNJ4vwEb-hpk1fD-wyn-12" value="" style="group" vertex="1" connectable="0" parent="1">
          <mxGeometry x="1480" y="1860" width="160" height="163" as="geometry" />
        </mxCell>
        <mxCell id="4rNJ4vwEb-hpk1fD-wyn-13" value="" style="outlineConnect=0;dashed=0;verticalLabelPosition=bottom;verticalAlign=top;align=center;html=1;shape=mxgraph.aws3.ssl_padlock;fillColor=#D2D3D3;gradientColor=none;" vertex="1" parent="4rNJ4vwEb-hpk1fD-wyn-12">
          <mxGeometry x="35" width="90" height="103" as="geometry" />
        </mxCell>
        <mxCell id="4rNJ4vwEb-hpk1fD-wyn-14" value="&lt;span style=&quot;font-size: 26px;&quot;&gt;SSL&lt;/span&gt;" style="text;html=1;strokeColor=none;fillColor=none;align=center;verticalAlign=middle;whiteSpace=wrap;rounded=0;" vertex="1" parent="4rNJ4vwEb-hpk1fD-wyn-12">
          <mxGeometry y="103" width="160" height="60" as="geometry" />
        </mxCell>
        <mxCell id="4rNJ4vwEb-hpk1fD-wyn-15" value="" style="endArrow=classic;html=1;rounded=0;strokeWidth=7;entryX=0.04;entryY=0.5;entryDx=0;entryDy=0;entryPerimeter=0;exitX=1;exitY=0.5;exitDx=0;exitDy=0;" edge="1" parent="1" source="W28Hg_RXF8OLAKR3yMh1-1" target="4rNJ4vwEb-hpk1fD-wyn-13">
          <mxGeometry width="50" height="50" relative="1" as="geometry">
            <mxPoint x="1130" y="1780" as="sourcePoint" />
            <mxPoint x="1180" y="1730" as="targetPoint" />
          </mxGeometry>
        </mxCell>
        <mxCell id="4rNJ4vwEb-hpk1fD-wyn-16" value="" style="endArrow=classic;html=1;rounded=0;strokeWidth=7;entryX=0.5;entryY=1;entryDx=0;entryDy=0;exitX=0.5;exitY=0;exitDx=0;exitDy=0;exitPerimeter=0;" edge="1" parent="1" source="4rNJ4vwEb-hpk1fD-wyn-13" target="acgDZ-SoyNHMQ0wOxpw4-46">
          <mxGeometry width="50" height="50" relative="1" as="geometry">
            <mxPoint x="1220" y="1588" as="sourcePoint" />
            <mxPoint x="1689" y="1560" as="targetPoint" />
          </mxGeometry>
        </mxCell>
        <mxCell id="4rNJ4vwEb-hpk1fD-wyn-17" value="" style="group" vertex="1" connectable="0" parent="1">
          <mxGeometry x="20" y="210" width="399.63" height="1060" as="geometry" />
        </mxCell>
        <mxCell id="acgDZ-SoyNHMQ0wOxpw4-48" value="" style="rounded=0;whiteSpace=wrap;html=1;fillColor=#dae8fc;strokeColor=#6c8ebf;" parent="4rNJ4vwEb-hpk1fD-wyn-17" vertex="1">
          <mxGeometry width="399.63" height="1060" as="geometry" />
        </mxCell>
        <mxCell id="acgDZ-SoyNHMQ0wOxpw4-1" value="" style="sketch=0;pointerEvents=1;shadow=0;dashed=0;html=1;strokeColor=none;labelPosition=center;verticalLabelPosition=bottom;verticalAlign=top;align=center;fillColor=#505050;shape=mxgraph.mscae.intune.user_group" parent="4rNJ4vwEb-hpk1fD-wyn-17" vertex="1">
          <mxGeometry x="109.63" y="170" width="120" height="100" as="geometry" />
        </mxCell>
        <mxCell id="acgDZ-SoyNHMQ0wOxpw4-2" value="Cloud" style="ellipse;shape=cloud;whiteSpace=wrap;html=1;align=center;strokeWidth=5;" parent="4rNJ4vwEb-hpk1fD-wyn-17" vertex="1">
          <mxGeometry x="64.63" y="370" width="210" height="160" as="geometry" />
        </mxCell>
        <mxCell id="acgDZ-SoyNHMQ0wOxpw4-4" value="&lt;font style=&quot;font-size: 26px;&quot;&gt;ExposiciÃ³n a internet&lt;/font&gt;" style="text;html=1;strokeColor=none;fillColor=none;align=center;verticalAlign=middle;whiteSpace=wrap;rounded=0;" parent="4rNJ4vwEb-hpk1fD-wyn-17" vertex="1">
          <mxGeometry x="239.63" y="360" width="160" height="80" as="geometry" />
        </mxCell>
        <mxCell id="acgDZ-SoyNHMQ0wOxpw4-6" value="" style="endArrow=classic;html=1;rounded=0;entryX=0.492;entryY=0.094;entryDx=0;entryDy=0;entryPerimeter=0;strokeWidth=8;" parent="4rNJ4vwEb-hpk1fD-wyn-17" target="acgDZ-SoyNHMQ0wOxpw4-2" edge="1">
          <mxGeometry width="50" height="50" relative="1" as="geometry">
            <mxPoint x="167.63" y="290" as="sourcePoint" />
            <mxPoint x="879.63" y="490" as="targetPoint" />
          </mxGeometry>
        </mxCell>
        <mxCell id="acgDZ-SoyNHMQ0wOxpw4-7" value="&lt;font style=&quot;font-size: 30px;&quot;&gt;Empleados&lt;/font&gt;" style="text;html=1;strokeColor=none;fillColor=none;align=center;verticalAlign=middle;whiteSpace=wrap;rounded=0;" parent="4rNJ4vwEb-hpk1fD-wyn-17" vertex="1">
          <mxGeometry x="102.68" y="10" width="154.63" height="70" as="geometry" />
        </mxCell>
        <mxCell id="acgDZ-SoyNHMQ0wOxpw4-8" value="" style="shape=curlyBracket;whiteSpace=wrap;html=1;rounded=1;labelPosition=left;verticalLabelPosition=middle;align=right;verticalAlign=middle;strokeWidth=9;" parent="4rNJ4vwEb-hpk1fD-wyn-17" vertex="1">
          <mxGeometry x="69.63" y="560" width="50" height="180" as="geometry" />
        </mxCell>
        <mxCell id="acgDZ-SoyNHMQ0wOxpw4-9" value="&lt;font style=&quot;font-size: 25px;&quot;&gt;Navegadores&lt;/font&gt;" style="text;html=1;strokeColor=none;fillColor=none;align=center;verticalAlign=middle;whiteSpace=wrap;rounded=0;rotation=-90;" parent="4rNJ4vwEb-hpk1fD-wyn-17" vertex="1">
          <mxGeometry x="-40.37" y="620" width="170" height="70" as="geometry" />
        </mxCell>
        <mxCell id="acgDZ-SoyNHMQ0wOxpw4-10" value="&lt;font style=&quot;font-size: 25px;&quot;&gt;Chrome&lt;br&gt;FireFox&lt;br&gt;Opera&lt;br&gt;Safari&lt;br&gt;Edge&lt;br&gt;&lt;/font&gt;" style="text;html=1;strokeColor=none;fillColor=none;align=center;verticalAlign=middle;whiteSpace=wrap;rounded=0;" parent="4rNJ4vwEb-hpk1fD-wyn-17" vertex="1">
          <mxGeometry x="109.63" y="562.5" width="130" height="175" as="geometry" />
        </mxCell>
        <mxCell id="acgDZ-SoyNHMQ0wOxpw4-11" value="" style="shape=curlyBracket;whiteSpace=wrap;html=1;rounded=1;labelPosition=left;verticalLabelPosition=middle;align=right;verticalAlign=middle;strokeWidth=9;" parent="4rNJ4vwEb-hpk1fD-wyn-17" vertex="1">
          <mxGeometry x="69.63" y="780" width="50" height="180" as="geometry" />
        </mxCell>
        <mxCell id="acgDZ-SoyNHMQ0wOxpw4-12" value="&lt;font style=&quot;font-size: 25px;&quot;&gt;Dispositivos&lt;br&gt;&lt;/font&gt;" style="text;html=1;strokeColor=none;fillColor=none;align=center;verticalAlign=middle;whiteSpace=wrap;rounded=0;rotation=-90;" parent="4rNJ4vwEb-hpk1fD-wyn-17" vertex="1">
          <mxGeometry x="-40.37" y="840" width="170" height="70" as="geometry" />
        </mxCell>
        <mxCell id="acgDZ-SoyNHMQ0wOxpw4-13" value="" style="shape=image;verticalLabelPosition=bottom;labelBackgroundColor=#ffffff;verticalAlign=top;aspect=fixed;imageAspect=0;image=data:image/svg+xml,PHN2ZyB4bWxuczpjYz0iaHR0cDovL2NyZWF0aXZlY29tbW9ucy5vcmcvbnMjIiB4bWxuczpkYz0iaHR0cDovL3B1cmwub3JnL2RjL2VsZW1lbnRzLzEuMS8iIHhtbG5zOmlua3NjYXBlPSJodHRwOi8vd3d3Lmlua3NjYXBlLm9yZy9uYW1lc3BhY2VzL2lua3NjYXBlIiB4bWxuczpyZGY9Imh0dHA6Ly93d3cudzMub3JnLzE5OTkvMDIvMjItcmRmLXN5bnRheC1ucyMiIHhtbG5zOnNvZGlwb2RpPSJodHRwOi8vc29kaXBvZGkuc291cmNlZm9yZ2UubmV0L0RURC9zb2RpcG9kaS0wLmR0ZCIgeG1sbnM6c3ZnPSJodHRwOi8vd3d3LnczLm9yZy8yMDAwL3N2ZyIgeG1sbnM9Imh0dHA6Ly93d3cudzMub3JnLzIwMDAvc3ZnIiB4bWxuczp4bGluaz0iaHR0cDovL3d3dy53My5vcmcvMTk5OS94bGluayIgdmVyc2lvbj0iMS4xIiBpZD0ic3ZnMTE5NSIgaW5rc2NhcGU6dmVyc2lvbj0iMC45Mi4zICgyNDA1NTQ2LCAyMDE4LTAzLTExKSIgc29kaXBvZGk6ZG9jbmFtZT0iYW5kcm9pZC5zdmciIHg9IjBweCIgeT0iMHB4IiB2aWV3Qm94PSIwIDAgMjkuMzggNTAuODUiIHN0eWxlPSJlbmFibGUtYmFja2dyb3VuZDpuZXcgMCAwIDI5LjM4IDUwLjg1OyIgeG1sOnNwYWNlPSJwcmVzZXJ2ZSI+JiN4YTs8c29kaXBvZGk6bmFtZWR2aWV3IGJvcmRlcmNvbG9yPSIjNjY2NjY2IiBib3JkZXJvcGFjaXR5PSIxIiBmaXQtbWFyZ2luLWJvdHRvbT0iMCIgZml0LW1hcmdpbi1sZWZ0PSIwIiBmaXQtbWFyZ2luLXJpZ2h0PSIwIiBmaXQtbWFyZ2luLXRvcD0iMCIgZ3JpZHRvbGVyYW5jZT0iMTAiIGd1aWRldG9sZXJhbmNlPSIxMCIgaWQ9Im5hbWVkdmlldzExOTciIGlua3NjYXBlOmN1cnJlbnQtbGF5ZXI9InN2ZzExOTUiIGlua3NjYXBlOmN4PSIxOS41ODkzNCIgaW5rc2NhcGU6Y3k9IjMzLjg5NzQ3NiIgaW5rc2NhcGU6cGFnZW9wYWNpdHk9IjAiIGlua3NjYXBlOnBhZ2VzaGFkb3c9IjIiIGlua3NjYXBlOndpbmRvdy1oZWlnaHQ9IjEwMTciIGlua3NjYXBlOndpbmRvdy1tYXhpbWl6ZWQ9IjEiIGlua3NjYXBlOndpbmRvdy13aWR0aD0iMTkyMCIgaW5rc2NhcGU6d2luZG93LXg9Ii04IiBpbmtzY2FwZTp3aW5kb3cteT0iLTgiIGlua3NjYXBlOnpvb209IjEyLjc4NjY1MSIgb2JqZWN0dG9sZXJhbmNlPSIxMCIgcGFnZWNvbG9yPSIjZmZmZmZmIiBzaG93Z3JpZD0iZmFsc2UiPiYjeGE7CTwvc29kaXBvZGk6bmFtZWR2aWV3PiYjeGE7PGcgaWQ9ImcxMTkzIiB0cmFuc2Zvcm09InRyYW5zbGF0ZSgtMi42ODI2ODU1ZS01KSI+JiN4YTsJPHRpdGxlIGlkPSJ0aXRsZTExNjMiPlBhZ2UtMTwvdGl0bGU+JiN4YTsJPGcgaWQ9Imdyb3VwMzQ5OS0xIj4mI3hhOwkJPHRpdGxlIGlkPSJ0aXRsZTExNjUiPkFuZHJvaWQ8L3RpdGxlPiYjeGE7CQk8ZyBpZD0ic2hhcGUzNTAwLTIiPiYjeGE7CQkJPHRpdGxlIGlkPSJ0aXRsZTExNjciPlNoZWV0LjM1MDA8L3RpdGxlPiYjeGE7CQkJPHBhdGggaWQ9InBhdGgxMTY5IiBpbmtzY2FwZTpjb25uZWN0b3ItY3VydmF0dXJlPSIwIiBzdHlsZT0iZmlsbDojM0Y1NzY1OyIgZD0iTTI3LjQzLDBDMi4xLDAsMi4xLDAsMi4xLDBDMC45MiwwLDAsMC44LDAsMS44NCAgICAgYzAsNDYuOTUsMCw0Ni45NSwwLDQ2Ljk1YzAsMC45MiwwLjkyLDIuMDYsMi4xLDIuMDZjMjUuMzMsMCwyNS4zMywwLDI1LjMzLDBjMS4wNywwLDEuOTUtMS4xNCwxLjk1LTIuMDYgICAgIGMwLTQ2Ljk1LDAtNDYuOTUsMC00Ni45NUMyOS4zOCwwLjgsMjguNSwwLDI3LjQzLDB6Ii8+JiN4YTsJCTwvZz4mI3hhOwkJPGcgaWQ9InNoYXBlMzUwMS00IiB0cmFuc2Zvcm09InRyYW5zbGF0ZSgzLjA2MDg0LC03LjI1MTY3KSI+JiN4YTsJCQk8dGl0bGUgaWQ9InRpdGxlMTE3MiI+U2hlZXQuMzUwMTwvdGl0bGU+JiN4YTsJCQk8cGF0aCBpZD0icGF0aDExNzQiIGlua3NjYXBlOmNvbm5lY3Rvci1jdXJ2YXR1cmU9IjAiIHN0eWxlPSJmaWxsOiNGRkZGRkY7IiBkPSJNMCwxMC41OWgyMy4yNnY0MC4yNkgwVjEwLjU5eiIvPiYjeGE7CQk8L2c+JiN4YTsJCTxnIGlkPSJzaGFwZTM1MDItNiIgdHJhbnNmb3JtPSJ0cmFuc2xhdGUoMTIuODU1NSwtMy4wNjM0OCkiPiYjeGE7CQkJPHRpdGxlIGlkPSJ0aXRsZTExNzciPlNoZWV0LjM1MDI8L3RpdGxlPiYjeGE7CQkJPHBhdGggaWQ9InBhdGgxMTc5IiBpbmtzY2FwZTpjb25uZWN0b3ItY3VydmF0dXJlPSIwIiBzdHlsZT0iZmlsbDojRkZGRkZGOyIgZD0iTTAsNDkuMzJjMC0wLjg0LDAuNzctMS41MywxLjY0LTEuNTMgICAgIGMwLjkzLDAsMS42NSwwLjY5LDEuNjUsMS41M2MwLDAuODgtMC43MiwxLjUzLTEuNjUsMS41M0MwLjc3LDUwLjg1LDAsNTAuMiwwLDQ5LjMyeiIvPiYjeGE7CQk8L2c+JiN4YTsJCTxnIGlkPSJzaGFwZTM1MDMtOCIgdHJhbnNmb3JtPSJ0cmFuc2xhdGUoMTcuNzUyOSwtMy42NzYxOCkiPiYjeGE7CQkJPHRpdGxlIGlkPSJ0aXRsZTExODIiPlNoZWV0LjM1MDM8L3RpdGxlPiYjeGE7CQkJPHBhdGggaWQ9InBhdGgxMTg0IiBpbmtzY2FwZTpjb25uZWN0b3ItY3VydmF0dXJlPSIwIiBzdHlsZT0iZmlsbDojRkZGRkZGOyIgZD0iTTAsNDkuOTNjMC0wLjQ5LDAuMzEtMC45MSwwLjYxLTAuOTEgICAgIGMwLjM1LDAsMC42MSwwLjQyLDAuNjEsMC45MWMwLDAuNTQtMC4yNiwwLjkyLTAuNjEsMC45MkMwLjMxLDUwLjg1LDAsNTAuNDcsMCw0OS45M3oiLz4mI3hhOwkJPC9nPiYjeGE7CQk8ZyBpZD0ic2hhcGUzNTA0LTEwIiB0cmFuc2Zvcm09InRyYW5zbGF0ZSg5LjE4MjUxLC0zLjY3NjE4KSI+JiN4YTsJCQk8dGl0bGUgaWQ9InRpdGxlMTE4NyI+U2hlZXQuMzUwNDwvdGl0bGU+JiN4YTsJCQk8cGF0aCBpZD0icGF0aDExODkiIGlua3NjYXBlOmNvbm5lY3Rvci1jdXJ2YXR1cmU9IjAiIHN0eWxlPSJmaWxsOiNGRkZGRkY7IiBkPSJNMCw0OS45M2MwLTAuNDksMC4zMS0wLjkxLDAuNjEtMC45MSAgICAgYzAuMzUsMCwwLjYxLDAuNDIsMC42MSwwLjkxYzAsMC41NC0wLjI2LDAuOTItMC42MSwwLjkyQzAuMzEsNTAuODUsMCw1MC40NywwLDQ5LjkzeiIvPiYjeGE7CQk8L2c+JiN4YTsJPC9nPiYjeGE7PC9nPiYjeGE7PC9zdmc+;" parent="4rNJ4vwEb-hpk1fD-wyn-17" vertex="1">
          <mxGeometry x="129.63" y="780" width="57.43" height="101" as="geometry" />
        </mxCell>
        <mxCell id="acgDZ-SoyNHMQ0wOxpw4-14" value="" style="shape=image;verticalLabelPosition=bottom;labelBackgroundColor=#ffffff;verticalAlign=top;aspect=fixed;imageAspect=0;image=data:image/svg+xml,PHN2ZyB4bWxuczpjYz0iaHR0cDovL2NyZWF0aXZlY29tbW9ucy5vcmcvbnMjIiB4bWxuczpkYz0iaHR0cDovL3B1cmwub3JnL2RjL2VsZW1lbnRzLzEuMS8iIHhtbG5zOmlua3NjYXBlPSJodHRwOi8vd3d3Lmlua3NjYXBlLm9yZy9uYW1lc3BhY2VzL2lua3NjYXBlIiB4bWxuczpyZGY9Imh0dHA6Ly93d3cudzMub3JnLzE5OTkvMDIvMjItcmRmLXN5bnRheC1ucyMiIHhtbG5zOnNvZGlwb2RpPSJodHRwOi8vc29kaXBvZGkuc291cmNlZm9yZ2UubmV0L0RURC9zb2RpcG9kaS0wLmR0ZCIgeG1sbnM6c3ZnPSJodHRwOi8vd3d3LnczLm9yZy8yMDAwL3N2ZyIgeG1sbnM9Imh0dHA6Ly93d3cudzMub3JnLzIwMDAvc3ZnIiB4bWxuczp4bGluaz0iaHR0cDovL3d3dy53My5vcmcvMTk5OS94bGluayIgdmVyc2lvbj0iMS4xIiBpZD0ic3ZnMTkxOCIgaW5rc2NhcGU6dmVyc2lvbj0iMC45Mi4zICgyNDA1NTQ2LCAyMDE4LTAzLTExKSIgc29kaXBvZGk6ZG9jbmFtZT0iZGVza3RvcC5zdmciIHg9IjBweCIgeT0iMHB4IiB2aWV3Qm94PSIwIDAgNTUuNjYgMzMuMzMiIHN0eWxlPSJlbmFibGUtYmFja2dyb3VuZDpuZXcgMCAwIDU1LjY2IDMzLjMzOyIgeG1sOnNwYWNlPSJwcmVzZXJ2ZSI+JiN4YTs8c29kaXBvZGk6bmFtZWR2aWV3IGJvcmRlcmNvbG9yPSIjNjY2NjY2IiBib3JkZXJvcGFjaXR5PSIxIiBmaXQtbWFyZ2luLWJvdHRvbT0iMCIgZml0LW1hcmdpbi1sZWZ0PSIwIiBmaXQtbWFyZ2luLXJpZ2h0PSIwIiBmaXQtbWFyZ2luLXRvcD0iMCIgZ3JpZHRvbGVyYW5jZT0iMTAiIGd1aWRldG9sZXJhbmNlPSIxMCIgaWQ9Im5hbWVkdmlldzE5MjAiIGlua3NjYXBlOmN1cnJlbnQtbGF5ZXI9InN2ZzE5MTgiIGlua3NjYXBlOmN4PSI1NC43MjUwMzkiIGlua3NjYXBlOmN5PSIxNy4zOTkwNDQiIGlua3NjYXBlOnBhZ2VvcGFjaXR5PSIwIiBpbmtzY2FwZTpwYWdlc2hhZG93PSIyIiBpbmtzY2FwZTp3aW5kb3ctaGVpZ2h0PSIxMDE3IiBpbmtzY2FwZTp3aW5kb3ctbWF4aW1pemVkPSIxIiBpbmtzY2FwZTp3aW5kb3ctd2lkdGg9IjE5MjAiIGlua3NjYXBlOndpbmRvdy14PSItOCIgaW5rc2NhcGU6d2luZG93LXk9Ii04IiBpbmtzY2FwZTp6b29tPSIxMS4xMTE0NjQiIG9iamVjdHRvbGVyYW5jZT0iMTAiIHBhZ2Vjb2xvcj0iI2ZmZmZmZiIgc2hvd2dyaWQ9ImZhbHNlIj4mI3hhOwk8L3NvZGlwb2RpOm5hbWVkdmlldz4mI3hhOzxnIGlkPSJncm91cDM1MTgtMyIgdHJhbnNmb3JtPSJ0cmFuc2xhdGUoMTAuMTE4ODU4LC04LjA0Njc1MikiPiYjeGE7CTx0aXRsZSBpZD0idGl0bGUxNzYyIj5nOTk5NDwvdGl0bGU+JiN4YTsJPGcgaWQ9Imdyb3VwMzUxOS00IiB0cmFuc2Zvcm09InRyYW5zbGF0ZSg1LjM1NzA2KSI+JiN4YTsJCTx0aXRsZSBpZD0idGl0bGUxNzY0Ij5nOTk4MDwvdGl0bGU+JiN4YTsJCTxnIGlkPSJzaGFwZTM1MjAtNSIgdHJhbnNmb3JtPSJ0cmFuc2xhdGUoMCwtMC44OTI4NDQpIj4mI3hhOwkJCTx0aXRsZSBpZD0idGl0bGUxNzY2Ij5wb2x5Z29uOTk3NDwvdGl0bGU+JiN4YTsJCQk8cGF0aCBpZD0icGF0aDE3NjgiIGlua3NjYXBlOmNvbm5lY3Rvci1jdXJ2YXR1cmU9IjAiIHN0eWxlPSJmaWxsOiM4MDgwODA7IiBkPSJNMi4xOCwzOWgzMC42bDIuMDQsMi4zOEgwTDIuMTgsMzl6Ii8+JiN4YTsJCTwvZz4mI3hhOwkJPGcgaWQ9InNoYXBlMzUyMS03IiB0cmFuc2Zvcm09InRyYW5zbGF0ZSgzLjI3Mzc2LC0xLjE5MDQ2KSI+JiN4YTsJCQk8dGl0bGUgaWQ9InRpdGxlMTc3MSI+cG9seWdvbjk5NzY8L3RpdGxlPiYjeGE7CQkJPHBhdGggaWQ9InBhdGgxNzczIiBpbmtzY2FwZTpjb25uZWN0b3ItY3VydmF0dXJlPSIwIiBzdHlsZT0iZmlsbDojMkUyRTJFOyIgZD0iTTAuOTksMzkuODloMjYuMzJsMC45NiwxLjQ5SDBMMC45OSwzOS44OXoiLz4mI3hhOwkJPC9nPiYjeGE7CQk8ZyBpZD0ic2hhcGUzNTIyLTkiPiYjeGE7CQkJPHRpdGxlIGlkPSJ0aXRsZTE3NzYiPnBhdGg5OTc4PC90aXRsZT4mI3hhOwkJCTxwYXRoIGlkPSJwYXRoMTc3OCIgaW5rc2NhcGU6Y29ubmVjdG9yLWN1cnZhdHVyZT0iMCIgc3R5bGU9ImZpbGw6IzFBMUExQTsiIGQ9Ik0zMy4zNyw0MS4zOEgxLjQ5QzAuMDEsNDEuMzgsMCw0MC41MSwwLDQwLjUxICAgICBoMzQuNzRDMzQuNzQsNDAuNTEsMzQuOTEsNDEuMzgsMzMuMzcsNDEuMzh6Ii8+JiN4YTsJCTwvZz4mI3hhOwk8L2c+JiN4YTsJPGcgaWQ9InNoYXBlMzUyMy0xMSIgdHJhbnNmb3JtPSJ0cmFuc2xhdGUoMTkuNjQyNiwtNC45MTA2NCkiPiYjeGE7CQk8dGl0bGUgaWQ9InRpdGxlMTc4MiI+cG9seWdvbjk5ODI8L3RpdGxlPiYjeGE7CQk8cGF0aCBpZD0icGF0aDE3ODQiIGlua3NjYXBlOmNvbm5lY3Rvci1jdXJ2YXR1cmU9IjAiIHN0eWxlPSJmaWxsOiMxQTFBMUE7IiBkPSJNMC42LDM3LjIxaDQuNzZsMC4wNCwwLjNsMC41NSwzLjg3SDBMMC42LDM3LjIxeiIvPiYjeGE7CTwvZz4mI3hhOwk8ZyBpZD0ic2hhcGUzNTI0LTEzIiB0cmFuc2Zvcm09InRyYW5zbGF0ZSgyMi42MTg3LC00LjkxMDY0KSI+JiN4YTsJCTx0aXRsZSBpZD0idGl0bGUxNzg3Ij5wb2x5Z29uOTk4NDwvdGl0bGU+JiN4YTsJCTxwYXRoIGlkPSJwYXRoMTc4OSIgaW5rc2NhcGU6Y29ubmVjdG9yLWN1cnZhdHVyZT0iMCIgc3R5bGU9ImZpbGw6IzJFMkUyRTsiIGQ9Ik0wLDM3LjUxaDIuNDJsMC41NiwzLjg3SDBWMzcuNTF6Ii8+JiN4YTsJPC9nPiYjeGE7CTxnIGlkPSJzaGFwZTM1MjUtMTUiIHRyYW5zZm9ybT0idHJhbnNsYXRlKDAsLTguMzMzMjEpIj4mI3hhOwkJPHRpdGxlIGlkPSJ0aXRsZTE3OTIiPnJlY3Q5OTg2PC90aXRsZT4mI3hhOwkJPHBhdGggaWQ9InBhdGgxNzk0IiBpbmtzY2FwZTpjb25uZWN0b3ItY3VydmF0dXJlPSIwIiBzdHlsZT0iZmlsbDojMjIxRjFGOyIgZD0iTTAsNDAuMTljMCwwLjY2LDAuNTMsMS4xOSwxLjE5LDEuMTloNDMuMTUgICAgYzAuNjYsMC4wMSwxLjE5LTAuNTIsMS4yLTEuMThjMCwwLDAtMC4wMSwwLTAuMDFWMTcuNTdjMC0wLjY2LTAuNTMtMS4xOS0xLjE5LTEuMTljMCwwLTAuMDEsMC0wLjAxLDBIMS4xOSAgICBDMC41MywxNi4zOCwwLDE2LjkxLDAsMTcuNTdWNDAuMTl6Ii8+JiN4YTsJPC9nPiYjeGE7CTxnIGlkPSJzaGFwZTM1MjYtMTciIHRyYW5zZm9ybT0idHJhbnNsYXRlKDEuMTkwNDYsLTkuNTIzNjcpIj4mI3hhOwkJPHRpdGxlIGlkPSJ0aXRsZTE3OTciPnJlY3Q5OTg4PC90aXRsZT4mI3hhOwkJPHJlY3QgaWQ9InJlY3QxNzk5IiB4PSIwIiB5PSIxOC43NiIgc3R5bGU9ImZpbGw6IzgwQkNFQjsiIHdpZHRoPSI0My4xNSIgaGVpZ2h0PSIyMi42MiIvPiYjeGE7CTwvZz4mI3hhOwk8ZyBpZD0ic2hhcGUzNTI3LTE5IiB0cmFuc2Zvcm09InRyYW5zbGF0ZSgxMy4zOTI3LC0zLjg2ODk5KSI+JiN4YTsJCTx0aXRsZSBpZD0idGl0bGUxODAyIj5wYXRoOTk5MDwvdGl0bGU+JiN4YTsJCTxwYXRoIGlkPSJwYXRoMTgwNCIgaW5rc2NhcGU6Y29ubmVjdG9yLWN1cnZhdHVyZT0iMCIgc3R5bGU9ImZpbGw6IzJFMkUyRTsiIGQ9Ik0xOC4wOSw0MS4zOEgwLjY2QzAuMzEsNDEuNCwwLjAyLDQxLjEzLDAsNDAuNzggICAgYzAsMC4wMSwxLjExLTAuODksMS4xNy0wLjg5aDE2LjEyYzAuNjcsMCwxLjQ2LDAuOSwxLjQ2LDAuOUMxOC43Myw0MS4xNCwxOC40NCw0MS40LDE4LjA5LDQxLjM4TDE4LjA5LDQxLjM4eiIvPiYjeGE7CTwvZz4mI3hhOwk8ZyBpZD0ic2hhcGUzNTI4LTIxIiB0cmFuc2Zvcm09InRyYW5zbGF0ZSgzMi43Mzc2LC0yMC41MzU0KSI+JiN4YTsJCTx0aXRsZSBpZD0idGl0bGUxODA3Ij5wb2x5Z29uOTk5MjwvdGl0bGU+JiN4YTsJCTxwYXRoIGlkPSJwYXRoMTgwOSIgaW5rc2NhcGU6Y29ubmVjdG9yLWN1cnZhdHVyZT0iMCIgc3R5bGU9ImZpbGw6I0FBRDJGMjsiIGQ9Ik0wLDI5Ljc3aDExLjYxdjExLjYxTDAsMjkuNzd6Ii8+JiN4YTsJPC9nPiYjeGE7PC9nPiYjeGE7PGcgaWQ9InNoYXBlMzUyOS0yMyIgdHJhbnNmb3JtPSJ0cmFuc2xhdGUoNy43Mzc5Mzc4LC02LjI2MTA2MikiPiYjeGE7CTx0aXRsZSBpZD0idGl0bGUxODEzIj5yZWN0OTk5NjwvdGl0bGU+JiN4YTsJPHJlY3QgaWQ9InJlY3QxODE1IiB4PSIwIiB5PSIxLjUiIHN0eWxlPSJmaWxsOm5vbmU7IiB3aWR0aD0iNTAiIGhlaWdodD0iMzkuODgiLz4mI3hhOzwvZz4mI3hhOzxnIGlkPSJzaGFwZTM1MzEtMjYiIHRyYW5zZm9ybT0idHJhbnNsYXRlKC00LjIyMzMzMTNlLTUsLTguMzQ0MzYyKSI+JiN4YTsJPHRpdGxlIGlkPSJ0aXRsZTE4MjEiPnJlY3QxMDAwMDwvdGl0bGU+JiN4YTsJPHJlY3QgaWQ9InJlY3QxODIzIiB4PSIwIiB5PSIxNCIgc3R5bGU9ImZpbGw6IzY2NjY2NjsiIHdpZHRoPSIxMy42OSIgaGVpZ2h0PSIyNy4zOCIvPiYjeGE7PC9nPiYjeGE7PGcgaWQ9Imdyb3VwMzUzMi0yOCIgdHJhbnNmb3JtPSJ0cmFuc2xhdGUoMC4yMzIwOTY3NywtOC4zNDQzNjIpIj4mI3hhOwk8dGl0bGUgaWQ9InRpdGxlMTgyNiI+ZzEwMDE0PC90aXRsZT4mI3hhOwk8ZyBpZD0ic2hhcGUzNTMzLTI5IiB0cmFuc2Zvcm09InRyYW5zbGF0ZSg4LjM5ODY4KSI+JiN4YTsJCTx0aXRsZSBpZD0idGl0bGUxODI4Ij5yZWN0MTAwMDI8L3RpdGxlPiYjeGE7CQk8cmVjdCBpZD0icmVjdDE4MzAiIHg9IjAiIHk9IjE0IiBzdHlsZT0iZmlsbDojNEQ0RDREOyIgd2lkdGg9IjUuMDYiIGhlaWdodD0iMjcuMzgiLz4mI3hhOwk8L2c+JiN4YTsJPGcgaWQ9InNoYXBlMzUzNC0zMSIgdHJhbnNmb3JtPSJ0cmFuc2xhdGUoMCwtMjMuOTgxOCkiPiYjeGE7CQk8dGl0bGUgaWQ9InRpdGxlMTgzMyI+cG9seWdvbjEwMDA0PC90aXRsZT4mI3hhOwkJPHJlY3QgaWQ9InJlY3QxODM1IiB4PSIwIiB5PSI0MC42NCIgc3R5bGU9ImZpbGw6bm9uZTsiIHdpZHRoPSI5LjE1IiBoZWlnaHQ9IjAuNzQiLz4mI3hhOwk8L2c+JiN4YTsJPGcgaWQ9InNoYXBlMzUzNS0zMyIgdHJhbnNmb3JtPSJ0cmFuc2xhdGUoMCwtMjMuOTgxOCkiPiYjeGE7CQk8dGl0bGUgaWQ9InRpdGxlMTgzOCI+cG9seWxpbmUxMDAwNjwvdGl0bGU+JiN4YTsJCTxyZWN0IGlkPSJyZWN0MTg0MCIgeD0iMCIgeT0iNDAuNjQiIHN0eWxlPSJmaWxsOm5vbmU7IiB3aWR0aD0iOS4xNSIgaGVpZ2h0PSIwLjc0Ii8+JiN4YTsJPC9nPiYjeGE7CTxnIGlkPSJzaGFwZTM1MzYtMzUiIHRyYW5zZm9ybT0idHJhbnNsYXRlKDguMTAxMDcsLTI0LjEwNjgpIj4mI3hhOwkJPHRpdGxlIGlkPSJ0aXRsZTE4NDMiPnJlY3QxMDAwODwvdGl0bGU+JiN4YTsJCTxyZWN0IGlkPSJyZWN0MTg0NSIgeD0iMCIgeT0iNDAuNzkiIHdpZHRoPSI0Ljc2IiBoZWlnaHQ9IjAuNiIvPiYjeGE7CTwvZz4mI3hhOwk8ZyBpZD0ic2hhcGUzNTM3LTM3IiB0cmFuc2Zvcm09InRyYW5zbGF0ZSgwLjM2MzA5LC0yNC4xMDY4KSI+JiN4YTsJCTx0aXRsZSBpZD0idGl0bGUxODQ4Ij5yZWN0MTAwMTA8L3RpdGxlPiYjeGE7CQk8cmVjdCBpZD0icmVjdDE4NTAiIHg9IjAiIHk9IjQwLjc5IiBzdHlsZT0iZmlsbDojMzMzMzMzOyIgd2lkdGg9IjUuMDYiIGhlaWdodD0iMC42Ii8+JiN4YTsJPC9nPiYjeGE7CTxnIGlkPSJzaGFwZTM1MzgtMzkiIHRyYW5zZm9ybT0idHJhbnNsYXRlKDUuNDIyNTQsLTI0LjEwNjgpIj4mI3hhOwkJPHRpdGxlIGlkPSJ0aXRsZTE4NTMiPnBvbHlnb24xMDAxMjwvdGl0bGU+JiN4YTsJCTxyZWN0IGlkPSJyZWN0MTg1NSIgeD0iMCIgeT0iNDAuNzkiIHN0eWxlPSJmaWxsOiNENEU4Rjg7IiB3aWR0aD0iMi45OCIgaGVpZ2h0PSIwLjYiLz4mI3hhOwk8L2c+JiN4YTs8L2c+JiN4YTs8ZyBpZD0ic2hhcGUzNTM5LTQxIiB0cmFuc2Zvcm09InRyYW5zbGF0ZSgtNC4yMjMzMzEzZS01LC0zMi40NTExNjIpIj4mI3hhOwk8dGl0bGUgaWQ9InRpdGxlMTg1OSI+cmVjdDEwMDE2PC90aXRsZT4mI3hhOwk8cmVjdCBpZD0icmVjdDE4NjEiIHg9IjAiIHk9IjQwLjc5IiBzdHlsZT0iZmlsbDojRkZGRkZGOyIgd2lkdGg9IjAuNiIgaGVpZ2h0PSIwLjYiLz4mI3hhOzwvZz4mI3hhOzxnIGlkPSJzaGFwZTM1NDAtNDMiIHRyYW5zZm9ybT0idHJhbnNsYXRlKDguMzMzMTY3OCwtMzAuNjY1NDYyKSI+JiN4YTsJPHRpdGxlIGlkPSJ0aXRsZTE4NjQiPnJlY3QxMDAxODwvdGl0bGU+JiN4YTsJPHJlY3QgaWQ9InJlY3QxODY2IiB4PSIwIiB5PSI0MC43OSIgd2lkdGg9IjQuNzYiIGhlaWdodD0iMC42Ii8+JiN4YTs8L2c+JiN4YTs8ZyBpZD0ic2hhcGUzNTQxLTQ1IiB0cmFuc2Zvcm09InRyYW5zbGF0ZSgwLjU5NTE4Njc3LC0zMC42NjU0NjIpIj4mI3hhOwk8dGl0bGUgaWQ9InRpdGxlMTg2OSI+cmVjdDEwMDIwPC90aXRsZT4mI3hhOwk8cmVjdCBpZD0icmVjdDE4NzEiIHg9IjAiIHk9IjQwLjc5IiBzdHlsZT0iZmlsbDojMzMzMzMzOyIgd2lkdGg9IjUuMDYiIGhlaWdodD0iMC42Ii8+JiN4YTs8L2c+JiN4YTs8ZyBpZD0ic2hhcGUzNTQyLTQ3IiB0cmFuc2Zvcm09InRyYW5zbGF0ZSg1LjY1NDYzNzgsLTMwLjY2NTQ2MikiPiYjeGE7CTx0aXRsZSBpZD0idGl0bGUxODc0Ij5wb2x5Z29uMTAwMjI8L3RpdGxlPiYjeGE7CTxyZWN0IGlkPSJyZWN0MTg3NiIgeD0iMCIgeT0iNDAuNzkiIHN0eWxlPSJmaWxsOiNENEU4Rjg7IiB3aWR0aD0iMi45OCIgaGVpZ2h0PSIwLjYiLz4mI3hhOzwvZz4mI3hhOzxnIGlkPSJzaGFwZTM1NDMtNDkiIHRyYW5zZm9ybT0idHJhbnNsYXRlKC00LjIyMzMzMTNlLTUsLTMwLjY2NTQ2MikiPiYjeGE7CTx0aXRsZSBpZD0idGl0bGUxODc5Ij5yZWN0MTAwMjQ8L3RpdGxlPiYjeGE7CTxyZWN0IGlkPSJyZWN0MTg4MSIgeD0iMCIgeT0iNDAuNzkiIHN0eWxlPSJmaWxsOiNGRkZGRkY7IiB3aWR0aD0iMC42IiBoZWlnaHQ9IjAuNiIvPiYjeGE7PC9nPiYjeGE7PGcgaWQ9InNoYXBlMzU0NC01MSIgdHJhbnNmb3JtPSJ0cmFuc2xhdGUoOC4zMzMxNjc4LC0yOC44Nzk3NjIpIj4mI3hhOwk8dGl0bGUgaWQ9InRpdGxlMTg4NCI+cmVjdDEwMDI2PC90aXRsZT4mI3hhOwk8cmVjdCBpZD0icmVjdDE4ODYiIHg9IjAiIHk9IjQwLjc5IiB3aWR0aD0iNC43NiIgaGVpZ2h0PSIwLjYiLz4mI3hhOzwvZz4mI3hhOzxnIGlkPSJzaGFwZTM1NDUtNTMiIHRyYW5zZm9ybT0idHJhbnNsYXRlKDAuNTk1MTg2NzcsLTI4Ljg3OTc2MikiPiYjeGE7CTx0aXRsZSBpZD0idGl0bGUxODg5Ij5yZWN0MTAwMjg8L3RpdGxlPiYjeGE7CTxyZWN0IGlkPSJyZWN0MTg5MSIgeD0iMCIgeT0iNDAuNzkiIHN0eWxlPSJmaWxsOiMzMzMzMzM7IiB3aWR0aD0iNS4wNiIgaGVpZ2h0PSIwLjYiLz4mI3hhOzwvZz4mI3hhOzxnIGlkPSJzaGFwZTM1NDYtNTUiIHRyYW5zZm9ybT0idHJhbnNsYXRlKDUuNjU0NjM3OCwtMjguODc5NzYyKSI+JiN4YTsJPHRpdGxlIGlkPSJ0aXRsZTE4OTQiPnBvbHlnb24xMDAzMDwvdGl0bGU+JiN4YTsJPHJlY3QgaWQ9InJlY3QxODk2IiB4PSIwIiB5PSI0MC43OSIgc3R5bGU9ImZpbGw6I0Q0RThGODsiIHdpZHRoPSIyLjk4IiBoZWlnaHQ9IjAuNiIvPiYjeGE7PC9nPiYjeGE7PGcgaWQ9InNoYXBlMzU0Ny01NyIgdHJhbnNmb3JtPSJ0cmFuc2xhdGUoLTQuMjIzMzMxM2UtNSwtMjguODc5NzYyKSI+JiN4YTsJPHRpdGxlIGlkPSJ0aXRsZTE4OTkiPnJlY3QxMDAzMjwvdGl0bGU+JiN4YTsJPHJlY3QgaWQ9InJlY3QxOTAxIiB4PSIwIiB5PSI0MC43OSIgc3R5bGU9ImZpbGw6I0ZGRkZGRjsiIHdpZHRoPSIwLjYiIGhlaWdodD0iMC42Ii8+JiN4YTs8L2c+JiN4YTs8ZyBpZD0ic2hhcGUzNTQ4LTU5IiB0cmFuc2Zvcm09InRyYW5zbGF0ZSgtNC4yMjMzMzEzZS01LC0yNy4wOTQwNjIpIj4mI3hhOwk8dGl0bGUgaWQ9InRpdGxlMTkwNCI+cmVjdDEwMDM0PC90aXRsZT4mI3hhOwk8cmVjdCBpZD0icmVjdDE5MDYiIHg9IjAiIHk9IjQwLjc5IiBzdHlsZT0iZmlsbDojRkZGRkZGOyIgd2lkdGg9IjAuNiIgaGVpZ2h0PSIwLjYiLz4mI3hhOzwvZz4mI3hhOzxnIGlkPSJzaGFwZTM1NDktNjEiIHRyYW5zZm9ybT0idHJhbnNsYXRlKC00LjIyMzMzMTNlLTUsLTI1LjMwODM2MikiPiYjeGE7CTx0aXRsZSBpZD0idGl0bGUxOTA5Ij5yZWN0MTAwMzY8L3RpdGxlPiYjeGE7CTxyZWN0IGlkPSJyZWN0MTkxMSIgeD0iMCIgeT0iNDAuNzkiIHN0eWxlPSJmaWxsOiNGRkZGRkY7IiB3aWR0aD0iMC42IiBoZWlnaHQ9IjAuNiIvPiYjeGE7PC9nPiYjeGE7PC9zdmc+;" parent="4rNJ4vwEb-hpk1fD-wyn-17" vertex="1">
          <mxGeometry x="199.63" y="780" width="135.76" height="80" as="geometry" />
        </mxCell>
        <mxCell id="acgDZ-SoyNHMQ0wOxpw4-16" value="" style="shape=image;verticalLabelPosition=bottom;labelBackgroundColor=#ffffff;verticalAlign=top;aspect=fixed;imageAspect=0;image=data:image/svg+xml,PHN2ZyB4bWxuczpjYz0iaHR0cDovL2NyZWF0aXZlY29tbW9ucy5vcmcvbnMjIiB4bWxuczpkYz0iaHR0cDovL3B1cmwub3JnL2RjL2VsZW1lbnRzLzEuMS8iIHhtbG5zOmlua3NjYXBlPSJodHRwOi8vd3d3Lmlua3NjYXBlLm9yZy9uYW1lc3BhY2VzL2lua3NjYXBlIiB4bWxuczpyZGY9Imh0dHA6Ly93d3cudzMub3JnLzE5OTkvMDIvMjItcmRmLXN5bnRheC1ucyMiIHhtbG5zOnNvZGlwb2RpPSJodHRwOi8vc29kaXBvZGkuc291cmNlZm9yZ2UubmV0L0RURC9zb2RpcG9kaS0wLmR0ZCIgeG1sbnM6c3ZnPSJodHRwOi8vd3d3LnczLm9yZy8yMDAwL3N2ZyIgeG1sbnM9Imh0dHA6Ly93d3cudzMub3JnLzIwMDAvc3ZnIiB4bWxuczp4bGluaz0iaHR0cDovL3d3dy53My5vcmcvMTk5OS94bGluayIgdmVyc2lvbj0iMS4xIiBpZD0ic3ZnMzQ4NiIgaW5rc2NhcGU6dmVyc2lvbj0iMC45Mi4zICgyNDA1NTQ2LCAyMDE4LTAzLTExKSIgc29kaXBvZGk6ZG9jbmFtZT0iZGV2aWNlX2lwYWQuc3ZnIiB4PSIwcHgiIHk9IjBweCIgdmlld0JveD0iMCAwIDU5LjMxIDQxLjIyIiBzdHlsZT0iZW5hYmxlLWJhY2tncm91bmQ6bmV3IDAgMCA1OS4zMSA0MS4yMjsiIHhtbDpzcGFjZT0icHJlc2VydmUiPiYjeGE7PHNvZGlwb2RpOm5hbWVkdmlldyBib3JkZXJjb2xvcj0iIzY2NjY2NiIgYm9yZGVyb3BhY2l0eT0iMSIgZml0LW1hcmdpbi1ib3R0b209IjAiIGZpdC1tYXJnaW4tbGVmdD0iMCIgZml0LW1hcmdpbi1yaWdodD0iMCIgZml0LW1hcmdpbi10b3A9IjAiIGdyaWR0b2xlcmFuY2U9IjEwIiBndWlkZXRvbGVyYW5jZT0iMTAiIGlkPSJuYW1lZHZpZXczNDg4IiBpbmtzY2FwZTpjdXJyZW50LWxheWVyPSJzdmczNDg2IiBpbmtzY2FwZTpjeD0iMzkuNTM4MzE5IiBpbmtzY2FwZTpjeT0iMjcuNDc5MzkiIGlua3NjYXBlOnBhZ2VvcGFjaXR5PSIwIiBpbmtzY2FwZTpwYWdlc2hhZG93PSIyIiBpbmtzY2FwZTp3aW5kb3ctaGVpZ2h0PSIxMDE3IiBpbmtzY2FwZTp3aW5kb3ctbWF4aW1pemVkPSIxIiBpbmtzY2FwZTp3aW5kb3ctd2lkdGg9IjE5MjAiIGlua3NjYXBlOndpbmRvdy14PSItOCIgaW5rc2NhcGU6d2luZG93LXk9Ii04IiBpbmtzY2FwZTp6b29tPSIxNS43NzQ3NTEiIG9iamVjdHRvbGVyYW5jZT0iMTAiIHBhZ2Vjb2xvcj0iI2ZmZmZmZiIgc2hvd2dyaWQ9ImZhbHNlIj4mI3hhOwk8L3NvZGlwb2RpOm5hbWVkdmlldz4mI3hhOzxnIGlkPSJnMzQ4NCIgdHJhbnNmb3JtPSJ0cmFuc2xhdGUoMCwtMi41MDk2MzU2ZS01KSI+JiN4YTsJPHRpdGxlIGlkPSJ0aXRsZTM0NTkiPlBhZ2UtMTwvdGl0bGU+JiN4YTsJPGcgaWQ9Imdyb3VwMzIyNi0xIj4mI3hhOwkJPHRpdGxlIGlkPSJ0aXRsZTM0NjEiPkRldmljZTogaVBhZDwvdGl0bGU+JiN4YTsJCTxnIGlkPSJzaGFwZTMyMjctMiI+JiN4YTsJCQk8dGl0bGUgaWQ9InRpdGxlMzQ2MyI+U2hlZXQuMzIyNzwvdGl0bGU+JiN4YTsJCQk8cGF0aCBpZD0icGF0aDM0NjUiIGlua3NjYXBlOmNvbm5lY3Rvci1jdXJ2YXR1cmU9IjAiIHN0eWxlPSJmaWxsOiMzRjU3NjU7IiBkPSJNNTYuNDYsMEMyLjkxLDAsMi45MSwwLDIuOTEsMCAgICAgQzEuMzEsMCwwLDEuMywwLDIuOTFjMCwzNS40NiwwLDM1LjQ2LDAsMzUuNDZjMCwxLjU2LDEuMzEsMi44NSwyLjkxLDIuODVjNTMuNTUsMCw1My41NSwwLDUzLjU1LDBjMS41NSwwLDIuODUtMS4yOSwyLjg1LTIuODUgICAgIGMwLTM1LjQ2LDAtMzUuNDYsMC0zNS40NkM1OS4zMSwxLjMsNTguMDEsMCw1Ni40NiwweiBNMjkuNjUsMWMwLjM4LDAsMC42OSwwLjMsMC42OSwwLjYxYzAsMC4zNy0wLjMxLDAuNjgtMC42OSwwLjY4ICAgICBjLTAuMywwLTAuNjctMC4zMS0wLjY3LTAuNjhDMjguOTgsMS4zLDI5LjM1LDEsMjkuNjUsMXogTTI5LjY1LDQwLjExYy0wLjc0LDAtMS4yOS0wLjU2LTEuMjktMS4zYzAtMC42OCwwLjU1LTEuMywxLjI5LTEuMyAgICAgYzAuNzUsMCwxLjMxLDAuNjIsMS4zMSwxLjNDMzAuOTYsMzkuNTUsMzAuNCw0MC4xMSwyOS42NSw0MC4xMXogTTU2LjAzLDM2Ljc2Yy01Mi43NCwwLTUyLjc0LDAtNTIuNzQsMGMwLTMzLjQ4LDAtMzMuNDgsMC0zMy40OCAgICAgYzUyLjc0LDAsNTIuNzQsMCw1Mi43NCwwVjM2Ljc2eiIvPiYjeGE7CQk8L2c+JiN4YTsJCTxnIGlkPSJzaGFwZTMyMjgtNCIgdHJhbnNmb3JtPSJ0cmFuc2xhdGUoMi4xNjEsLTQuNDMzNjQpIj4mI3hhOwkJCTx0aXRsZSBpZD0idGl0bGUzNDY4Ij5TaGVldC4zMjI4PC90aXRsZT4mI3hhOwkJCTxwYXRoIGlkPSJwYXRoMzQ3MCIgaW5rc2NhcGU6Y29ubmVjdG9yLWN1cnZhdHVyZT0iMCIgc3R5bGU9ImZpbGw6IzhEOUZCMDsiIGQ9Ik0wLDguNDdjMC0wLjY0LDAuNTMtMS4xNiwxLjE2LTEuMTZoNTIuNjcgICAgIGMwLjY0LDAsMS4xNiwwLjUyLDEuMTYsMS4xNnYzMS42YzAsMC42My0wLjUyLDEuMTUtMS4xNiwxLjE1SDEuMTZDMC41Myw0MS4yMiwwLDQwLjcsMCw0MC4wN1Y4LjQ3eiIvPiYjeGE7CQk8L2c+JiN4YTsJCTxnIGlkPSJzaGFwZTMyMjktNiIgdHJhbnNmb3JtPSJ0cmFuc2xhdGUoMjMuNjg1NSwtMTQuMzc5NCkiPiYjeGE7CQkJPHRpdGxlIGlkPSJ0aXRsZTM0NzMiPlNoZWV0LjMyMjk8L3RpdGxlPiYjeGE7CQkJPHBhdGggaWQ9InBhdGgzNDc1IiBpbmtzY2FwZTpjb25uZWN0b3ItY3VydmF0dXJlPSIwIiBzdHlsZT0iZmlsbDojRkZGRkZGOyIgZD0iTTEyLjMzLDM3LjM5Yy0wLjM0LDAuNzMtMC41MSwxLjA3LTAuOTQsMS43MyAgICAgYy0wLjYsMC45NC0xLjQ2LDIuMDYtMi41LDIuMWMtMC45NCwwLTEuMi0wLjY0LTIuNDUtMC42Yy0xLjI4LDAtMS41NCwwLjYtMi40OSwwLjZjLTEuMDctMC4wNC0xLjg1LTEuMDctMi40NS0xLjk4ICAgICBjLTEuNzItMi41OC0xLjg5LTUuNi0wLjg2LTcuMjNjMC43Ny0xLjEyLDEuOTQtMS44MSwzLjAxLTEuODFjMS4xMiwwLDEuODUsMC42NSwyLjc1LDAuNjVzMS40Ny0wLjY1LDIuNzUtMC42NSAgICAgYzAuOTksMCwyLjAzLDAuNTYsMi43NSwxLjQ2QzkuNDksMzMsOS44OSwzNi40NCwxMi4zMywzNy4zOXoiLz4mI3hhOwkJPC9nPiYjeGE7CQk8ZyBpZD0ic2hhcGUzMjMwLTgiIHRyYW5zZm9ybT0idHJhbnNsYXRlKDI5LjU1MSwtMjUuMjgzOCkiPiYjeGE7CQkJPHRpdGxlIGlkPSJ0aXRsZTM0NzgiPlNoZWV0LjMyMzA8L3RpdGxlPiYjeGE7CQkJPHBhdGggaWQ9InBhdGgzNDgwIiBpbmtzY2FwZTpjb25uZWN0b3ItY3VydmF0dXJlPSIwIiBzdHlsZT0iZmlsbDojRkZGRkZGOyIgZD0iTTIuMjgsNDAuMDdjMC40OC0wLjYsMC44Mi0xLjQyLDAuNy0yLjMyICAgICBjLTAuNzUsMC4wOS0xLjY3LDAuNTYtMi4yNCwxLjJjLTAuNDgsMC41Ni0wLjg4LDEuNDItMC43LDIuMjdDMC44OCw0MS4yMiwxLjc5LDQwLjc1LDIuMjgsNDAuMDd6Ii8+JiN4YTsJCTwvZz4mI3hhOwk8L2c+JiN4YTs8L2c+JiN4YTs8L3N2Zz4=;" parent="4rNJ4vwEb-hpk1fD-wyn-17" vertex="1">
          <mxGeometry x="129.63" y="900" width="100.73" height="70" as="geometry" />
        </mxCell>
        <mxCell id="acgDZ-SoyNHMQ0wOxpw4-17" value="" style="shape=image;verticalLabelPosition=bottom;labelBackgroundColor=#ffffff;verticalAlign=top;aspect=fixed;imageAspect=0;image=data:image/svg+xml,PHN2ZyB4bWxuczpjYz0iaHR0cDovL2NyZWF0aXZlY29tbW9ucy5vcmcvbnMjIiB4bWxuczpkYz0iaHR0cDovL3B1cmwub3JnL2RjL2VsZW1lbnRzLzEuMS8iIHhtbG5zOmlua3NjYXBlPSJodHRwOi8vd3d3Lmlua3NjYXBlLm9yZy9uYW1lc3BhY2VzL2lua3NjYXBlIiB4bWxuczpyZGY9Imh0dHA6Ly93d3cudzMub3JnLzE5OTkvMDIvMjItcmRmLXN5bnRheC1ucyMiIHhtbG5zOnNvZGlwb2RpPSJodHRwOi8vc29kaXBvZGkuc291cmNlZm9yZ2UubmV0L0RURC9zb2RpcG9kaS0wLmR0ZCIgeG1sbnM6c3ZnPSJodHRwOi8vd3d3LnczLm9yZy8yMDAwL3N2ZyIgeG1sbnM9Imh0dHA6Ly93d3cudzMub3JnLzIwMDAvc3ZnIiB4bWxuczp4bGluaz0iaHR0cDovL3d3dy53My5vcmcvMTk5OS94bGluayIgdmVyc2lvbj0iMS4xIiBpZD0ic3ZnMTA5NDgiIGlua3NjYXBlOnZlcnNpb249IjAuOTIuMyAoMjQwNTU0NiwgMjAxOC0wMy0xMSkiIHNvZGlwb2RpOmRvY25hbWU9ImxhcHRvcC5zdmciIHg9IjBweCIgeT0iMHB4IiB2aWV3Qm94PSIwIDAgODEuNzUgNTYuMjYiIHN0eWxlPSJlbmFibGUtYmFja2dyb3VuZDpuZXcgMCAwIDgxLjc1IDU2LjI2OyIgeG1sOnNwYWNlPSJwcmVzZXJ2ZSI+JiN4YTs8c29kaXBvZGk6bmFtZWR2aWV3IGJvcmRlcmNvbG9yPSIjNjY2NjY2IiBib3JkZXJvcGFjaXR5PSIxIiBmaXQtbWFyZ2luLWJvdHRvbT0iMCIgZml0LW1hcmdpbi1sZWZ0PSIwIiBmaXQtbWFyZ2luLXJpZ2h0PSIwIiBmaXQtbWFyZ2luLXRvcD0iMCIgZ3JpZHRvbGVyYW5jZT0iMTAiIGd1aWRldG9sZXJhbmNlPSIxMCIgaWQ9Im5hbWVkdmlldzEwOTUwIiBpbmtzY2FwZTpjdXJyZW50LWxheWVyPSJzdmcxMDk0OCIgaW5rc2NhcGU6Y3g9IjU0LjUiIGlua3NjYXBlOmN5PSIzNy41MDcwMzkiIGlua3NjYXBlOnBhZ2VvcGFjaXR5PSIwIiBpbmtzY2FwZTpwYWdlc2hhZG93PSIyIiBpbmtzY2FwZTp3aW5kb3ctaGVpZ2h0PSIxMDE3IiBpbmtzY2FwZTp3aW5kb3ctbWF4aW1pemVkPSIxIiBpbmtzY2FwZTp3aW5kb3ctd2lkdGg9IjE5MjAiIGlua3NjYXBlOndpbmRvdy14PSItOCIgaW5rc2NhcGU6d2luZG93LXk9Ii04IiBpbmtzY2FwZTp6b29tPSIxMS4yNTgwNDYiIG9iamVjdHRvbGVyYW5jZT0iMTAiIHBhZ2Vjb2xvcj0iI2ZmZmZmZiIgc2hvd2dyaWQ9ImZhbHNlIj4mI3hhOwk8L3NvZGlwb2RpOm5hbWVkdmlldz4mI3hhOzxnIGlkPSJnMTA5NDYiIHRyYW5zZm9ybT0idHJhbnNsYXRlKC0wLjc1LC0wLjc1MTMyMSkiPiYjeGE7CTx0aXRsZSBpZD0idGl0bGUxMDkxNiI+UGFnZS0xPC90aXRsZT4mI3hhOwk8ZyBpZD0iZ3JvdXAzNjE4LTEiIHRyYW5zZm9ybT0idHJhbnNsYXRlKDAuNzUsLTAuNzU4Njc5KSI+JiN4YTsJCTx0aXRsZSBpZD0idGl0bGUxMDkxOCI+TGFwdG9wPC90aXRsZT4mI3hhOwkJPGcgaWQ9InNoYXBlMzYxOS0yIiB0cmFuc2Zvcm09InRyYW5zbGF0ZSg2Ljc1LC00LjUpIj4mI3hhOwkJCTx0aXRsZSBpZD0idGl0bGUxMDkyMCI+cmVjdDE0OTc8L3RpdGxlPiYjeGE7CQkJJiN4YTsJCQkJPHBhdGggaWQ9InBhdGgxMDkyMiIgaW5rc2NhcGU6Y29ubmVjdG9yLWN1cnZhdHVyZT0iMCIgc3R5bGU9ImZpbGw6I0ZDRkNGQztzdHJva2U6IzU1NkE4QTtzdHJva2Utd2lkdGg6MS41O3N0cm9rZS1taXRlcmxpbWl0OjM7IiBkPSIgICAgIE0wLDU0Ljc2YzAsMS42NiwxLjM0LDMsMywzaDYzYzEuNjYsMCwzLTEuMzQsMy0zdi00NWMwLTEuNjYtMS4zNC0zLTMtM0gzYy0xLjY2LDAtMywxLjM0LTMsM1Y1NC43NnoiLz4mI3hhOwkJPC9nPiYjeGE7CQk8ZyBpZD0ic2hhcGUzNjIwLTQiPiYjeGE7CQkJPHRpdGxlIGlkPSJ0aXRsZTEwOTI1Ij5wYXRoMTQ5OTwvdGl0bGU+JiN4YTsJCQk8cGF0aCBpZD0icGF0aDEwOTI3IiBpbmtzY2FwZTpjb25uZWN0b3ItY3VydmF0dXJlPSIwIiBzdHlsZT0iZmlsbDojNDE0MDQyOyIgZD0iTTc4Ljc1LDU3Ljc2SDMuMTMgICAgIEMxLjY4LDU3Ljg3LDAuMzYsNTYuOTIsMCw1NS41MWg4MS43NUM4MS43NSw1NS41MSw4MC44NCw1Ny43Niw3OC43NSw1Ny43NnoiLz4mI3hhOwkJPC9nPiYjeGE7CQk8ZyBpZD0ic2hhcGUzNjIxLTYiIHRyYW5zZm9ybT0idHJhbnNsYXRlKDAuMDc1LC0yLjI1KSI+JiN4YTsJCQk8dGl0bGUgaWQ9InRpdGxlMTA5MzAiPnBvbHlnb24xNTAxPC90aXRsZT4mI3hhOwkJCTxwYXRoIGlkPSJwYXRoMTA5MzIiIGlua3NjYXBlOmNvbm5lY3Rvci1jdXJ2YXR1cmU9IjAiIHN0eWxlPSJmaWxsOiM1NTZBOEE7IiBkPSJNNzYuNDIsNTQuMDFsNS4yNSwzLjc1SDBsNS45NC0zLjc1SDc2LjQyeiIvPiYjeGE7CQk8L2c+JiN4YTsJCTxnIGlkPSJzaGFwZTM2MjItOCIgdHJhbnNmb3JtPSJ0cmFuc2xhdGUoMywtMi4yNSkiPiYjeGE7CQkJPHRpdGxlIGlkPSJ0aXRsZTEwOTM1Ij5wb2x5Z29uMTUwMzwvdGl0bGU+JiN4YTsJCQk8cGF0aCBpZD0icGF0aDEwOTM3IiBpbmtzY2FwZTpjb25uZWN0b3ItY3VydmF0dXJlPSIwIiBzdHlsZT0iZmlsbDojRTRFREYxOyIgZD0iTTczLjAyLDU1LjUxbDIuNzMsMi4yNUgwbDMuNDUtMi4yNUg3My4wMnoiLz4mI3hhOwkJPC9nPiYjeGE7CQk8ZyBpZD0ic2hhcGUzNjIzLTEwIiB0cmFuc2Zvcm09InRyYW5zbGF0ZSgxMS4yNSwtMTAuNSkiPiYjeGE7CQkJPHRpdGxlIGlkPSJ0aXRsZTEwOTQwIj5yZWN0MTUwNTwvdGl0bGU+JiN4YTsJCQk8cmVjdCBpZD0icmVjdDEwOTQyIiB5PSIxOC4wMSIgc3R5bGU9ImZpbGw6IzJCQzdGNDsiIHdpZHRoPSI2MCIgaGVpZ2h0PSIzOS43NSIvPiYjeGE7CQk8L2c+JiN4YTsJPC9nPiYjeGE7PC9nPiYjeGE7PC9zdmc+;" parent="4rNJ4vwEb-hpk1fD-wyn-17" vertex="1">
          <mxGeometry x="239.63" y="890" width="131.79" height="90" as="geometry" />
        </mxCell>
        <mxCell id="4rNJ4vwEb-hpk1fD-wyn-30" value="" style="group" vertex="1" connectable="0" parent="1">
          <mxGeometry x="710" y="1380" width="360" height="1060" as="geometry" />
        </mxCell>
        <mxCell id="W28Hg_RXF8OLAKR3yMh1-1" value="" style="rounded=0;whiteSpace=wrap;html=1;fillColor=#f8cecc;strokeColor=#b85450;" parent="4rNJ4vwEb-hpk1fD-wyn-30" vertex="1">
          <mxGeometry width="360" height="1060" as="geometry" />
        </mxCell>
        <mxCell id="W28Hg_RXF8OLAKR3yMh1-2" value="" style="shape=image;html=1;verticalAlign=top;verticalLabelPosition=bottom;labelBackgroundColor=#ffffff;imageAspect=0;aspect=fixed;image=https://cdn2.iconfinder.com/data/icons/boxicons-logos/24/bxl-netlify-128.png" parent="4rNJ4vwEb-hpk1fD-wyn-30" vertex="1">
          <mxGeometry x="116" y="402" width="128" height="128" as="geometry" />
        </mxCell>
        <mxCell id="W28Hg_RXF8OLAKR3yMh1-3" value="&lt;font style=&quot;font-size: 26px;&quot;&gt;Netlify&lt;/font&gt;" style="text;html=1;strokeColor=none;fillColor=none;align=center;verticalAlign=middle;whiteSpace=wrap;rounded=0;" parent="4rNJ4vwEb-hpk1fD-wyn-30" vertex="1">
          <mxGeometry x="100" y="530" width="160" height="60" as="geometry" />
        </mxCell>
        <mxCell id="W28Hg_RXF8OLAKR3yMh1-4" value="" style="shape=image;verticalLabelPosition=bottom;labelBackgroundColor=#ffffff;verticalAlign=top;aspect=fixed;imageAspect=0;image=data:image/svg+xml,PHN2ZyB4bWxuczpjYz0iaHR0cDovL2NyZWF0aXZlY29tbW9ucy5vcmcvbnMjIiB4bWxuczpkYz0iaHR0cDovL3B1cmwub3JnL2RjL2VsZW1lbnRzLzEuMS8iIHhtbG5zOmlua3NjYXBlPSJodHRwOi8vd3d3Lmlua3NjYXBlLm9yZy9uYW1lc3BhY2VzL2lua3NjYXBlIiB4bWxuczpyZGY9Imh0dHA6Ly93d3cudzMub3JnLzE5OTkvMDIvMjItcmRmLXN5bnRheC1ucyMiIHhtbG5zOnNvZGlwb2RpPSJodHRwOi8vc29kaXBvZGkuc291cmNlZm9yZ2UubmV0L0RURC9zb2RpcG9kaS0wLmR0ZCIgeG1sbnM6c3ZnPSJodHRwOi8vd3d3LnczLm9yZy8yMDAwL3N2ZyIgeG1sbnM9Imh0dHA6Ly93d3cudzMub3JnLzIwMDAvc3ZnIiB4bWxuczp4bGluaz0iaHR0cDovL3d3dy53My5vcmcvMTk5OS94bGluayIgdmVyc2lvbj0iMS4xIiBpZD0ic3ZnMTc1NjcxIiBpbmtzY2FwZTp2ZXJzaW9uPSIwLjkyLjMgKDI0MDU1NDYsIDIwMTgtMDMtMTEpIiBzb2RpcG9kaTpkb2NuYW1lPSJnaXRodWIuc3ZnIiB4PSIwcHgiIHk9IjBweCIgdmlld0JveD0iMCAwIDQ1LjI3IDQ1LjI5IiBzdHlsZT0iZW5hYmxlLWJhY2tncm91bmQ6bmV3IDAgMCA0NS4yNyA0NS4yOTsiIHhtbDpzcGFjZT0icHJlc2VydmUiPiYjeGE7PHNvZGlwb2RpOm5hbWVkdmlldyBib3JkZXJjb2xvcj0iIzY2NjY2NiIgYm9yZGVyb3BhY2l0eT0iMSIgZml0LW1hcmdpbi1ib3R0b209IjAiIGZpdC1tYXJnaW4tbGVmdD0iMCIgZml0LW1hcmdpbi1yaWdodD0iMCIgZml0LW1hcmdpbi10b3A9IjAiIGdyaWR0b2xlcmFuY2U9IjEwIiBndWlkZXRvbGVyYW5jZT0iMTAiIGlkPSJuYW1lZHZpZXcxNzU2NzMiIGlua3NjYXBlOmN1cnJlbnQtbGF5ZXI9InN2ZzE3NTY3MSIgaW5rc2NhcGU6Y3g9IjMwLjE3ODAyNSIgaW5rc2NhcGU6Y3k9IjMwLjE5NDMxOSIgaW5rc2NhcGU6cGFnZW9wYWNpdHk9IjAiIGlua3NjYXBlOnBhZ2VzaGFkb3c9IjIiIGlua3NjYXBlOndpbmRvdy1oZWlnaHQ9IjEwMTciIGlua3NjYXBlOndpbmRvdy1tYXhpbWl6ZWQ9IjEiIGlua3NjYXBlOndpbmRvdy13aWR0aD0iMTkyMCIgaW5rc2NhcGU6d2luZG93LXg9Ii04IiBpbmtzY2FwZTp3aW5kb3cteT0iLTgiIGlua3NjYXBlOnpvb209IjEwLjA5NTE1OCIgb2JqZWN0dG9sZXJhbmNlPSIxMCIgcGFnZWNvbG9yPSIjZmZmZmZmIiBzaG93Z3JpZD0iZmFsc2UiPiYjeGE7CTwvc29kaXBvZGk6bmFtZWR2aWV3PiYjeGE7PGcgaWQ9ImcxNzU2NjkiIHRyYW5zZm9ybT0idHJhbnNsYXRlKC05LjU2MjU0MTcsLTkuNTYxMzEpIj4mI3hhOwk8dGl0bGUgaWQ9InRpdGxlMTc1NjU5Ij5QYWdlLTE8L3RpdGxlPiYjeGE7CTxnIGlkPSJncm91cDIyNTAtMSIgdHJhbnNmb3JtPSJ0cmFuc2xhdGUoOS41NjMwOCwtOS4zNzg2OSkiPiYjeGE7CQk8dGl0bGUgaWQ9InRpdGxlMTc1NjYxIj5HaXRIdWI8L3RpdGxlPiYjeGE7CQk8ZyBpZD0ic2hhcGUyMjUxLTIiPiYjeGE7CQkJPHRpdGxlIGlkPSJ0aXRsZTE3NTY2MyI+U2hlZXQuMjI1MTwvdGl0bGU+JiN4YTsJCQk8cGF0aCBpZD0icGF0aDE3NTY2NSIgaW5rc2NhcGU6Y29ubmVjdG9yLWN1cnZhdHVyZT0iMCIgZD0iTTIyLjYzLDE4Ljk0QzEwLjE0LDE4Ljk0LDAsMjkuMzMsMCw0Mi4xNSAgICAgYy0wLjA3LDkuODksNi4xNSwxOC43MywxNS40OCwyMi4wMWMxLjEzLDAuMjIsMS41NC0wLjUsMS41NC0xLjExYzAtMC42MiwwLTIuMDEsMC0zLjk1Yy02LjI5LDEuNDEtNy42Mi0zLjExLTcuNjItMy4xMSAgICAgYy0xLjAzLTIuNjgtMi41MS0zLjQtMi41MS0zLjRjLTIuMDYtMS40MSwwLjE1LTEuNDEsMC4xNS0xLjQxYzIuMjcsMC4xNiwzLjQ3LDIuMzksMy40NywyLjM5YzIuMDIsMy41NCw1LjMsMi41Miw2LjU4LDEuOTMgICAgIGMwLjEtMS4xNywwLjYtMi4yNiwxLjQyLTMuMUMxMy40OCw1MS44MSw4LjIsNDkuODIsOC4yLDQwLjkyYy0wLjA0LTIuMjksMC43OS00LjUxLDIuMzItNi4yMmMtMC42OS0yLTAuNjEtNC4xOSwwLjIyLTYuMTQgICAgIGMwLDAsMS45MS0wLjYyLDYuMjMsMi40YzMuNy0xLjA0LDcuNjItMS4wNCwxMS4zMiwwYzQuMzItMyw2LjIyLTIuMzcsNi4yMi0yLjM3YzAuODMsMS45NSwwLjkxLDQuMTQsMC4yMiw2LjE0ICAgICBjMS41MywxLjcsMi4zNywzLjkzLDIuMzMsNi4yMmMwLDguOTEtNS4yOSwxMC44OC0xMC4zMywxMS40NWMwLjgxLDAuNzEsMS41MywyLjEyLDEuNTMsNC4zYzAsMy4xMSwwLDUuNjEsMCw2LjM3ICAgICBjMCwwLjYyLDAuNDEsMS4zNCwxLjU2LDEuMTJjOS4zMy0zLjMsMTUuNTMtMTIuMTUsMTUuNDUtMjIuMDRDNDUuMjcsMjkuMzMsMzUuMTMsMTguOTQsMjIuNjMsMTguOTR6Ii8+JiN4YTsJCTwvZz4mI3hhOwk8L2c+JiN4YTs8L2c+JiN4YTs8L3N2Zz4=;" parent="4rNJ4vwEb-hpk1fD-wyn-30" vertex="1">
          <mxGeometry x="140" y="210" width="80" height="80" as="geometry" />
        </mxCell>
        <mxCell id="W28Hg_RXF8OLAKR3yMh1-5" value="" style="endArrow=classic;html=1;rounded=0;entryX=0.492;entryY=0.094;entryDx=0;entryDy=0;entryPerimeter=0;strokeWidth=8;" parent="4rNJ4vwEb-hpk1fD-wyn-30" edge="1">
          <mxGeometry width="50" height="50" relative="1" as="geometry">
            <mxPoint x="179.17000000000007" y="590" as="sourcePoint" />
            <mxPoint x="179.17000000000007" y="685" as="targetPoint" />
          </mxGeometry>
        </mxCell>
        <mxCell id="W28Hg_RXF8OLAKR3yMh1-8" value="&lt;font style=&quot;font-size: 30px;&quot;&gt;Frontend catalogo&lt;/font&gt;" style="text;html=1;strokeColor=none;fillColor=none;align=center;verticalAlign=middle;whiteSpace=wrap;rounded=0;" parent="4rNJ4vwEb-hpk1fD-wyn-30" vertex="1">
          <mxGeometry x="98.84000000000003" y="10" width="162.31" height="80" as="geometry" />
        </mxCell>
        <mxCell id="W28Hg_RXF8OLAKR3yMh1-9" value="" style="endArrow=classic;html=1;rounded=0;entryX=0.492;entryY=0.094;entryDx=0;entryDy=0;entryPerimeter=0;strokeWidth=8;" parent="4rNJ4vwEb-hpk1fD-wyn-30" edge="1">
          <mxGeometry width="50" height="50" relative="1" as="geometry">
            <mxPoint x="179.09000000000015" y="307" as="sourcePoint" />
            <mxPoint x="179.09000000000015" y="402" as="targetPoint" />
          </mxGeometry>
        </mxCell>
        <mxCell id="4rNJ4vwEb-hpk1fD-wyn-20" value="" style="group" vertex="1" connectable="0" parent="4rNJ4vwEb-hpk1fD-wyn-30">
          <mxGeometry x="35" y="690" width="290" height="210" as="geometry" />
        </mxCell>
        <mxCell id="W28Hg_RXF8OLAKR3yMh1-6" value="" style="rounded=0;whiteSpace=wrap;html=1;" parent="4rNJ4vwEb-hpk1fD-wyn-20" vertex="1">
          <mxGeometry width="290" height="210" as="geometry" />
        </mxCell>
        <mxCell id="W28Hg_RXF8OLAKR3yMh1-7" value="&lt;font style=&quot;font-size: 26px;&quot;&gt;HTML, CSS, Typescript&lt;br&gt;&lt;/font&gt;" style="text;html=1;strokeColor=none;fillColor=none;align=center;verticalAlign=middle;whiteSpace=wrap;rounded=0;" parent="4rNJ4vwEb-hpk1fD-wyn-20" vertex="1">
          <mxGeometry x="12.5" y="90" width="265" height="100" as="geometry" />
        </mxCell>
        <mxCell id="4rNJ4vwEb-hpk1fD-wyn-19" value="" style="shape=image;verticalLabelPosition=bottom;labelBackgroundColor=#ffffff;verticalAlign=top;aspect=fixed;imageAspect=0;image=data:image/svg+xml,PHN2ZyB4bWxuczpjYz0iaHR0cDovL2NyZWF0aXZlY29tbW9ucy5vcmcvbnMjIiB4bWxuczpkYz0iaHR0cDovL3B1cmwub3JnL2RjL2VsZW1lbnRzLzEuMS8iIHhtbG5zOmlua3NjYXBlPSJodHRwOi8vd3d3Lmlua3NjYXBlLm9yZy9uYW1lc3BhY2VzL2lua3NjYXBlIiB4bWxuczpyZGY9Imh0dHA6Ly93d3cudzMub3JnLzE5OTkvMDIvMjItcmRmLXN5bnRheC1ucyMiIHhtbG5zOnNvZGlwb2RpPSJodHRwOi8vc29kaXBvZGkuc291cmNlZm9yZ2UubmV0L0RURC9zb2RpcG9kaS0wLmR0ZCIgeG1sbnM6c3ZnPSJodHRwOi8vd3d3LnczLm9yZy8yMDAwL3N2ZyIgeG1sbnM9Imh0dHA6Ly93d3cudzMub3JnLzIwMDAvc3ZnIiB4bWxuczp4bGluaz0iaHR0cDovL3d3dy53My5vcmcvMTk5OS94bGluayIgdmVyc2lvbj0iMS4xIiBpZD0ic3ZnMTE0OTA2IiBpbmtzY2FwZTp2ZXJzaW9uPSIwLjkyLjMgKDI0MDU1NDYsIDIwMTgtMDMtMTEpIiBzb2RpcG9kaTpkb2NuYW1lPSJhbmd1bGFyLnN2ZyIgeD0iMHB4IiB5PSIwcHgiIHZpZXdCb3g9IjAgMCA1Ni44MiAxNS4zOSIgc3R5bGU9ImVuYWJsZS1iYWNrZ3JvdW5kOm5ldyAwIDAgNTYuODIgMTUuMzk7IiB4bWw6c3BhY2U9InByZXNlcnZlIj4mI3hhOzxzb2RpcG9kaTpuYW1lZHZpZXcgYm9yZGVyY29sb3I9IiM2NjY2NjYiIGJvcmRlcm9wYWNpdHk9IjEiIGZpdC1tYXJnaW4tYm90dG9tPSIwIiBmaXQtbWFyZ2luLWxlZnQ9IjAiIGZpdC1tYXJnaW4tcmlnaHQ9IjAiIGZpdC1tYXJnaW4tdG9wPSIwIiBncmlkdG9sZXJhbmNlPSIxMCIgZ3VpZGV0b2xlcmFuY2U9IjEwIiBpZD0ibmFtZWR2aWV3MTE0OTA4IiBpbmtzY2FwZTpjdXJyZW50LWxheWVyPSJzdmcxMTQ5MDYiIGlua3NjYXBlOmN4PSIzNy44ODExNTgiIGlua3NjYXBlOmN5PSIxMC4yNTk4NDYiIGlua3NjYXBlOnBhZ2VvcGFjaXR5PSIwIiBpbmtzY2FwZTpwYWdlc2hhZG93PSIyIiBpbmtzY2FwZTp3aW5kb3ctaGVpZ2h0PSIxMDE3IiBpbmtzY2FwZTp3aW5kb3ctbWF4aW1pemVkPSIxIiBpbmtzY2FwZTp3aW5kb3ctd2lkdGg9IjE5MjAiIGlua3NjYXBlOndpbmRvdy14PSItOCIgaW5rc2NhcGU6d2luZG93LXk9Ii04IiBpbmtzY2FwZTp6b29tPSIyMC44MzUyOTgiIG9iamVjdHRvbGVyYW5jZT0iMTAiIHBhZ2Vjb2xvcj0iI2ZmZmZmZiIgc2hvd2dyaWQ9ImZhbHNlIj4mI3hhOwk8L3NvZGlwb2RpOm5hbWVkdmlldz4mI3hhOzxnIGlkPSJnMTE0OTA0IiB0cmFuc2Zvcm09InRyYW5zbGF0ZSgtMy42NjIxMSwtMy42NTc5MzA3KSI+JiN4YTsJPHRpdGxlIGlkPSJ0aXRsZTExNDg3OSI+UGFnZS0xPC90aXRsZT4mI3hhOwk8ZyBpZD0iZ3JvdXAxMjEzLTEiIHRyYW5zZm9ybT0idHJhbnNsYXRlKDMuNjYyMTEsLTMuNjYyMTEpIj4mI3hhOwkJPHRpdGxlIGlkPSJ0aXRsZTExNDg4MSI+QW5ndWxhcjwvdGl0bGU+JiN4YTsJCTxnIGlkPSJzaGFwZTEyMTQtMiIgdHJhbnNmb3JtPSJ0cmFuc2xhdGUoMTYuNzEzNiwtMy45MTc1OSkiPiYjeGE7CQkJPHRpdGxlIGlkPSJ0aXRsZTExNDg4MyI+U2hlZXQuMTIxNDwvdGl0bGU+JiN4YTsJCQk8cGF0aCBpZD0icGF0aDExNDg4NSIgaW5rc2NhcGU6Y29ubmVjdG9yLWN1cnZhdHVyZT0iMCIgc3R5bGU9ImZpbGw6I0I1MkUzMTsiIGQ9Ik0wLDIyLjY1di02Ljk5aDAuOWw0LjI3LDUuNjN2LTUuNjNoMC44NnY2Ljk5ICAgICBoLTAuOWwtNC4yOC01LjY4djUuNjhIMHogTTEyLjk4LDIyLjM3Yy0wLjU2LDAuMjEtMS4xNywwLjMyLTEuODIsMC4zMmMtMi41MywwLTMuNzktMS4yLTMuNzktMy42NGMwLTIuMjksMS4yMi0zLjQ1LDMuNjYtMy40NSAgICAgYzAuNywwLDEuMzYsMC4xLDEuOTUsMC4yOXYwLjc4Yy0wLjU5LTAuMjMtMS4yMi0wLjM1LTEuODUtMC4zNWMtMS45MSwwLTIuODYsMC45MS0yLjg2LDIuNzFjMCwxLjk0LDAuOTQsMi45MSwyLjgyLDIuOTEgICAgIGMwLjMsMCwwLjYzLTAuMDQsMS0wLjEydi0yLjM0aDAuODlWMjIuMzd6IE0xNC40MywxOS45NXYtNC4yOWgwLjl2NC4yOWMwLDEuMzUsMC42NiwyLjAyLDIuMDEsMi4wMmMxLjMzLDAsMi0wLjY3LDItMi4wMnYtNC4yOSAgICAgaDAuOXY0LjI5YzAsMS44My0wLjk2LDIuNzYtMi45LDIuNzZDMTUuMzksMjIuNzEsMTQuNDMsMjEuNzgsMTQuNDMsMTkuOTV6IE0yMi43NSwxNS42NnY2LjI2aDMuNjZ2MC43M2gtNC41NnYtNi45OUwyMi43NSwxNS42NiAgICAgeiBNMjcuNzEsMjIuNjVoLTAuOTRsMy40Ny03LjkxbDMuNDgsNy45MWgtMWwtMC45LTIuMmgtMi4zMWwwLjI0LTAuNzNoMS43N2wtMS4zMS0zLjE2TDI3LjcxLDIyLjY1eiBNMzQuNjgsMjIuNjV2LTYuOTloMi45OSAgICAgYzEuMzMsMCwxLjk5LDAuNTUsMS45OSwxLjY3YzAsMC45MS0wLjY1LDEuNTktMS45NSwyLjAybDIuNCwzLjNoLTEuMTlsLTIuMjItMy4xNHYtMC41OWMxLjMzLTAuMjEsMi4wMS0wLjcyLDIuMDEtMS41NCAgICAgYzAtMC42NC0wLjM3LTAuOTctMS4xMS0wLjk3aC0ydjYuMjRMMzQuNjgsMjIuNjV6Ii8+JiN4YTsJCTwvZz4mI3hhOwkJPGcgaWQ9InNoYXBlMTIxNS00Ij4mI3hhOwkJCTx0aXRsZSBpZD0idGl0bGUxMTQ4ODgiPlNoZWV0LjEyMTU8L3RpdGxlPiYjeGE7CQkJPHBhdGggaWQ9InBhdGgxMTQ4OTAiIGlua3NjYXBlOmNvbm5lY3Rvci1jdXJ2YXR1cmU9IjAiIHN0eWxlPSJmaWxsOiNFMjMyMzc7IiBkPSJNMCw5Ljg4bDcuMTYtMi41Nmw3LjM1LDIuNTFsLTEuMTksOS40NyAgICAgbC02LjE2LDMuNDFMMS4xLDE5LjM0TDAsOS44OHoiLz4mI3hhOwkJPC9nPiYjeGE7CQk8ZyBpZD0ic2hhcGUxMjE2LTYiIHRyYW5zZm9ybT0idHJhbnNsYXRlKDcuMTU4MjEpIj4mI3hhOwkJCTx0aXRsZSBpZD0idGl0bGUxMTQ4OTMiPlNoZWV0LjEyMTY8L3RpdGxlPiYjeGE7CQkJPHBhdGggaWQ9InBhdGgxMTQ4OTUiIGlua3NjYXBlOmNvbm5lY3Rvci1jdXJ2YXR1cmU9IjAiIHN0eWxlPSJmaWxsOiNCNTJFMzE7IiBkPSJNNy4zNSw5LjgzTDAsNy4zMnYxNS4zOWw2LjE2LTMuNDFMNy4zNSw5LjgzeiIvPiYjeGE7CQk8L2c+JiN4YTsJCTxnIGlkPSJzaGFwZTEyMTctOCIgdHJhbnNmb3JtPSJ0cmFuc2xhdGUoMi43MDc5MSwtMy42NDAxNCkiPiYjeGE7CQkJPHRpdGxlIGlkPSJ0aXRsZTExNDg5OCI+U2hlZXQuMTIxNzwvdGl0bGU+JiN4YTsJCQk8cGF0aCBpZD0icGF0aDExNDkwMCIgaW5rc2NhcGU6Y29ubmVjdG9yLWN1cnZhdHVyZT0iMCIgc3R5bGU9ImZpbGw6I0ZGRkZGRjsiIGQ9Ik00LjQ2LDEyLjc2TDAsMjIuNjhsMS42Ni0wLjAzbDAuOS0yLjI0aDMuOTkgICAgIGwwLjk3LDIuMjZsMS41OSwwLjA0TDQuNDYsMTIuNzZ6IE00LjQ3LDE1Ljk1bDEuNTEsMy4xNUgzLjE1TDQuNDcsMTUuOTV6Ii8+JiN4YTsJCTwvZz4mI3hhOwk8L2c+JiN4YTs8L2c+JiN4YTs8L3N2Zz4=;" vertex="1" parent="4rNJ4vwEb-hpk1fD-wyn-20">
          <mxGeometry x="30.99000000000001" y="20" width="228" height="60" as="geometry" />
        </mxCell>
      </root>
    </mxGraphModel>
  </diagram>
</mxfile>
